<svg xmlns="http://www.w3.org/2000/svg" viewBox="0 0 48 48">
  <style>
    @media (prefers-color-scheme: dark) { path { fill: #fff } }
  </style>
  <path d="M45.57 16.02h.03C40.47 1.92 22.57-3.41 10.48 5.39-4.58 17.16-1.15 39.6 16.9 46.08c.07-.05.09-.13.06-.21-1.2-.84-1.89-2.26-2.24-3.64 1.82 2.17 4.42 3.63 7.15 4.31.66.16 1.34.22 2.01.35.17.02.27-.25.12-.34-.1-.06-.55-.05-.69-.07-.15-.02-.3-.08-.44-.12-3.52-1.08-6.83-3.27-8.73-6.48-.18-.25-.47-1.23-.82-1.09-.26 1.37-.14 2.82.25 4.15-4.82-2.45-8.53-7.02-10.11-12.17 0 0 .01 0 .01.01-.02-.02-.04-.05-.07-.07C-.39 19.26 6.57 6.37 18.22 3.26 29.77.03 41.94 7.17 44.75 18.83c2.04 7.89-.82 17.33-7.57 22.11-.69.45-1.5.89-2.35.82-5.68-.57-5.24-9.76-8.61-9.7.68-.71 1.39-1.39 2.08-2.08.52-.49.99-1.17 1.66-1.44.12.02.33.04.41.15.07.12.21.13.31.03.22-1-.74-1.98-1.68-1.32-1.01.97-2.43 2.74-3.39 3.76-.02-1.89.04-4.93.04-6.85 1.15-.98 2.84-1.57 4.34-1.66.3.71.54 1.45.81 2.17-1.33.68-.92 1.7.52 1.64.74 1.82 1.65 4.52 2.35 6.37.42 1.12.99 2.33.59 3.53-.08.26-.47.58-.46.8.11.2.56.06.75.08.32-.05 1.69-.07 1.98-.16.24-.06.47-.41.67-.43.87.56 2.19.78 3.22.56.1-.02.19-.04.25-.14.01-.19-.23-.25-.37-.33-1.5-1.11-2.55-3.31-3.29-5.07-.67-1.43-1.33-2.91-1.98-4.38l-.87-1.89c-.11-.16-.18-.37-.25-.55.6-.7.07-1.41-.57-1.82.9.25 1.81.59 2.59 1.11.52-.01.47-.61.33-.96 1.06.47 2.11 1.18 3.31.8.53-.16 1-.51 1.26-1 .1-.18.22-.5-.03-.59-1.08.68-2.56.36-3.59-.28 0 0-.62-.26-1.45-.51-.6-.16-1.21-.34-1.82-.47-.62-.14-1.27-.14-1.9-.23-2.14-4.57-4.76-10.49-6.79-15.14-.14-.44-.11-.96.1-1.38.08-.15.36-.39.34-.56-.38-.5-1.16-.14-1.62.05-.45-.18-1.29-.56-1.63-.03.02.19.24.38.34.54.46.86-.04 1.83-.42 2.61-1.86 4.04-4.36 9.92-6.27 13.9-.66.09-1.35.1-2 .25-.35.08-.69.17-1.03.27-.76.2-2.01.69-2.01.69-.94.56-2.54 1-3.49.3-.09 0-.13 0-.21.04-.1.73.72 1.34 1.35 1.53 1.2.39 2.25-.33 3.31-.8-.15.34-.17 1.05.37.94.76-.52 1.67-.83 2.55-1.08-.62.41-1.16 1.09-.59 1.79-.08.19-.16.43-.27.61l-.14.32c-.24.53-.46 1.04-.71 1.58-.99 2.18-2.02 4.43-2.98 6.54-.54.98-1.22 1.91-2.02 2.69-.18.24-.47.18-.59.36-.18.43.93.33 1.16.36.91-.01 1.59-.18 2.34-.7.42.63 1.05.54 1.71.6.52.02 1.09.2 1.59.05 0-.17-.37-.54-.46-.74-.38-.97-.03-2.07.34-2.99.38-1.02 2.15-5.89 2.56-7.01.31-.01.63 0 .92-.13.88-.45.39-1.24-.31-1.56.24-.68.46-1.39.76-2.04l.17-.1c1.36.12 2.96.63 4.02 1.52.08.24.16.48.17.72.04 2.25.04 7.11.06 9.42.01 1.39.02 2.78.02 4.17.07 1.43.09 2.93-.64 4.21-.15.3-.33.57-.54.83-.11.14-.36.28-.31.49.96.39 2.18.19 2.92-.56.74.74 1.95.95 2.92.56.01-.09 0-.13-.06-.21-.68-.69-1.1-1.62-1.32-2.55-.32-2.5-.02-5.15-.08-7.68.19-.12.36-.21.57-.26.96.44 1.25 1.48 1.63 2.38 1.32 2.7 1.64 6.23 4.72 7.58 6.25 2.57 12.09-8.03 13.51-12.89 1.38-4.76 1.34-9.75-.46-14.39Zm-21.41 6.99c-1.59-1.04-3.51-1.38-5.34-1.79 1.68-4.63 3.64-9.95 5.34-14.57 1.64 4.47 3.7 10.1 5.34 14.57-.7.16-1.38.38-2.09.49-1.13.28-2.3.6-3.24 1.31Z"/>
</svg>
