<svg xmlns="http://www.w3.org/2000/svg" viewBox="0 0 46 45.77">
	<style>
		@media (prefers-color-scheme:dark){path{fill:#fff}}
	</style>
	<path d="M44.57 14.91C39.45.82 21.55-4.51 9.48 4.29-5.58 16.05-2.15 38.48 15.89 44.95c.07-.05.09-.13.06-.21-1.2-.84-1.89-2.26-2.24-3.64 1.81 2.17 4.41 3.63 7.14 4.31.66.16 1.34.22 2.01.35.17.02.27-.25.12-.34-.1-.06-.55-.05-.69-.07-.15-.02-.3-.08-.44-.12-3.52-1.08-6.82-3.27-8.73-6.48-.18-.25-.47-1.23-.82-1.09-.26 1.37-.14 2.82.25 4.15-4.82-2.44-8.53-7.01-10.11-12.16h.01a.2.2 0 0 0-.07-.07C-1.38 18.15 5.57 5.27 17.21 2.16c11.54-3.23 23.7 3.91 26.52 15.56 2.04 7.88-.81 17.32-7.57 22.1-.69.45-1.5.89-2.35.82-5.68-.57-5.24-9.75-8.6-9.7.68-.71 1.39-1.39 2.08-2.08.52-.49.98-1.17 1.66-1.44.12.02.33.04.41.15.07.12.21.13.31.03.22-.99-.74-1.97-1.68-1.32-1.01.97-2.42 2.74-3.39 3.76-.02-1.89.04-4.92.04-6.85 1.15-.98 2.84-1.57 4.34-1.66.3.71.54 1.45.8 2.17-1.33.68-.92 1.7.52 1.63.75 1.81 1.65 4.52 2.35 6.37.42 1.12.99 2.32.59 3.53-.08.26-.46.58-.46.8.11.21.56.06.75.08.32-.05 1.69-.07 1.97-.16.24-.06.47-.41.67-.43.87.56 2.19.78 3.22.56.1-.02.19-.05.25-.14.01-.19-.23-.25-.37-.33-1.5-1.11-2.55-3.31-3.29-5.07-.91-1.94-1.79-3.98-2.68-5.93.61.46.59 1.14 1.04 1.57.52-.4-.95-1.52-1.18-1.87-.12-.16-.2-.39-.28-.59.6-.7.07-1.4-.57-1.82.9.26 1.81.59 2.59 1.11.52-.01.47-.61.33-.96 1.06.47 2.11 1.18 3.31.8.53-.16 1-.51 1.26-1 .1-.18.22-.5-.03-.59-1.08.68-2.56.36-3.59-.27.89.15 1.79.22 2.68.09.44-.05.63-.23.85-.87-.02-.04-.05-.07-.09-.12l-.1.07c-.03.42-.29.77-.73.81-.73.06-1.08.02-1.08.02-1.65-.01-3.2-.62-4.79-.98-.62-.14-1.27-.14-1.89-.23-2.14-4.57-4.76-10.49-6.78-15.13-.14-.44-.11-.96.1-1.37.08-.15.36-.39.34-.56-.38-.5-1.16-.14-1.62.05-.45-.18-1.29-.56-1.62-.03.02.2.24.38.34.54.46.85-.04 1.82-.42 2.61-1.85 4.04-4.36 9.91-6.27 13.89-.67.09-1.34.1-2 .25-1.86.43-3.73 1.2-5.68.89-.02-.03-.04-.04-.06-.05l-.03.02c.08.02.09.03.14.09-.38-.07-.77-.34-.73-.77-.04-.05-.05-.07-.11-.09a.28.28 0 0 0-.15.17c.07.4.49.74.88.78.22.01.44.03.66.07.68.02 1.37-.05 2.04-.16-.94.56-2.54 1-3.49.3-.09 0-.13 0-.21.04-.1.73.72 1.34 1.35 1.53 1.2.39 2.25-.33 3.31-.8-.15.34-.17 1.05.37.94.76-.52 1.67-.83 2.55-1.08-.62.41-1.16 1.09-.59 1.79-.09.21-.17.49-.31.67-.25.36-1.63 1.41-1.21 1.86.48-.21.5-1.17 1.13-1.62-1.2 2.63-2.52 5.5-3.71 8.13-.54.98-1.22 1.91-2.02 2.69-.18.24-.47.18-.59.36-.19.43.92.33 1.16.36.91 0 1.59-.18 2.34-.7.42.63 1.05.54 1.71.6.52.02 1.09.2 1.59.05 0-.18-.37-.54-.46-.74-.38-.97-.03-2.07.34-2.98.37-1.02 2.15-5.89 2.56-7.01.31-.01.63 0 .92-.13.87-.45.38-1.24-.31-1.56.25-.68.46-1.39.76-2.04l.17-.1c1.36.12 2.96.63 4.01 1.52.08.24.16.48.17.73.05 2.25.04 7.11.06 9.41.01 1.39.02 2.78.02 4.17.07 1.43.09 2.93-.64 4.21-.15.3-.33.57-.54.83-.11.15-.36.28-.31.49.96.39 2.18.19 2.92-.56.75.74 1.95.95 2.92.56.01-.09 0-.13-.06-.21-.68-.69-1.1-1.62-1.32-2.55-.32-2.5-.02-5.14-.08-7.67.19-.12.35-.21.57-.26.96.44 1.25 1.48 1.63 2.38 1.32 2.7 1.64 6.22 4.72 7.58 6.25 2.57 12.08-8.03 13.51-12.88 1.38-4.75 1.34-9.75-.46-14.38Zm-29.71 29.3h-.03l.02-.01v.01Zm9.74-13.73c.58-.63 1.96-2.22 2.56-2.88.53-.61 1.38-1.92 2.13-.82-.86-.41-1.39.65-1.94 1.15-.27.28-2.55 2.64-2.75 2.87zm.01.47c.94-1.02 2.16-2.25 3.13-3.28.45-.46.97-1.3 1.65-.65l.03.22c-.85-.4-1.46.56-1.99 1.07-.94.92-1.85 1.88-2.82 2.76l-.02-.03s0-.07.03-.1Zm4.69-9.46c.53-.01 2.08.06 2.52.3 0 .06-.02.1-.04.15l.96 2.09c-.44-.22-.87-.43-1.36-.5-.31-.63-.48-1.35-.84-1.94h-.03c.17.66.53 1.27.74 1.92-.4-.07-.8-.02-1.19.08-.26-.7-.51-1.39-.75-2.09Zm.94 3.78c-1.21.09-1.6-.94-.42-1.47.17.47.38.94.51 1.43-.04.04-.04.03-.09.04m5.64 9.84c-.11.83-1.26.58-1.87.69-.2.03-.41.03-.62.05.66-1.12.28-2.49-.18-3.62-.46-1.26-2.61-7.17-3.12-8.55.38-.08.81-.17 1.19-.05.07.13.18.33.2.47 1.41 3.32 3.06 7.45 4.45 10.79-.02.07-.04.14-.05.21Zm-.73-5.79c.42.87 1.24 2.79 1.66 3.62.6 1.05 1.33 2.08 2.24 2.88-1.12.13-2.45-.05-3.07-1.1-1.08-2.65-3.44-8.38-4.55-11.1.51.1 1 .29 1.41.61l2.32 5.08Zm-2.1-6.34c.06.23-.05.45-.19.63-.15-.34-.69-1.42-.74-1.7h.03c.3.33.86.56.89 1.08Zm-9.75-18c.02-.62 0-1.24 0-1.86.27-.16.55-.24.87-.26-1.08.76-.56 2.11-.1 3.07l3.57 8.77c.6 1.44 1.53 3.81 2.13 5.22l.08-.05c-1.2-2.93-3.66-8.99-4.87-11.99-.25-.46-.48-1.15-.68-1.65-.48-1.08-1.31-2.66.1-3.39-.93 1.03-.26 2.41.26 3.47.28.66 1.19 2.58 1.43 3.21 1.56 3.43 3.12 6.91 4.65 10.36-.65.01-1.33.05-1.97.17-1.4-3.68-2.75-7.5-4.11-11.19-.29-.81-.61-1.6-.89-2.42-.15-.48-.44-.96-.48-1.46Zm-.15.56c1.63 4.47 3.7 10.09 5.34 14.56-.7.16-1.38.37-2.09.49-1.13.28-2.3.6-3.24 1.31-1.59-1.04-3.51-1.37-5.34-1.79 1.68-4.63 3.64-9.94 5.34-14.56ZM19.9 20.71l.03-.02c1.09.34 2.28.66 3.23 1.33.81-.66 2.13-1.08 3.15-1.28-1.17.51-2.26 1.2-3.17 2.11-.93-.91-2.02-1.65-3.23-2.12s-.02-.01-.02-.01Zm-4.23-1.15c1.59-3.56 3.18-7.15 4.8-10.7.37-.85.76-1.7 1.14-2.55.52-1.06 1.19-2.43.26-3.47 1.38.72.62 2.25.13 3.32-.23.58-.44 1.21-.72 1.76-1.08 2.68-3.63 9.02-4.72 11.61v.05c-.04.08-.1.21-.12.3.02.01.04.01.06.02.99-2.17 3.29-8.12 4.26-10.41.35-.84 1.08-2.71 1.44-3.52.41-1 1.04-2.33-.09-3.11.32.03.59.11.87.27-.02.49.04 1.56 0 2.02-.47 1.41-1.08 2.92-1.58 4.32-1.2 3.33-2.68 7.26-3.89 10.6-.64-.12-1.32-.17-1.98-.18l.14-.32Zm-2.38 3.85c-.16-.35-.02-.72.22-.99.18-.18.46-.32.61-.51.02-.03.03-.04.07-.05.01.09-.66 1.51-.76 1.74-.05-.06-.1-.12-.14-.19m1.03-1.02c.08-.18.17-.43.29-.59.11-.15.92-.22 1.12-.24-.26.66-.53 1.32-.8 1.97-.48.08-.89.25-1.33.49.25-.54.48-1.08.73-1.62Zm-4.16 12.56c-.66.91-1.9.97-2.93.89.19-.15.38-.33.55-.51.07-.08.18-.21.25-.28.51-.68 1.1-1.38 1.49-2.16.86-1.89 3.05-6.7 3.94-8.65.42-.31.9-.5 1.41-.61-1.3 2.98-3.33 8.47-4.72 11.31Zm3.61-4.62c-.51 1.69-1.86 3.77-.88 5.51-.2-.01-.42-.02-.62-.05-.78-.12-1.84.16-1.92-.91 1.48-3.54 3.14-7.73 4.65-11.26.37-.12.81-.03 1.19.05l-2.42 6.65Zm3.02-6.36c.85.69.2 1.32-.68 1.31-.05-.03-.11 0-.14-.06.13-.48.34-.95.51-1.43.11.05.21.11.32.17Zm-.42-.8-.15.39c-.39-.07-.78-.13-1.17-.06.17-.45.35-.89.55-1.33.06-.16.24-.46.19-.61.16-.1.98-.08 1.21-.08-.2.56-.43 1.12-.62 1.69Zm2.48-1.69c-2.52-.68-5.29-.05-7.52 1.23h-.05c-.17-.34.14-.71.42-.87 3.51-1.59 9.04-1.5 11.38 2.03l-.02.48c-.85-1.48-2.6-2.43-4.21-2.87m4.21 20.39c-.2.81-1.44.98-2.15.93.93-.27 1.75-.87 2.16-1.77v.84Zm.03-16.68c-.01 3.39.01 11.91-.03 15.18.05.87-.65 1.57-1.35 1.99-.32.19-.69.3-1.05.39 1.15-1.31 1.5-3.13 1.36-4.83-.03-2.56-.06-11.85-.09-14.49.52.44.81 1.04 1.15 1.61v.16Zm-2.69-3.64c-3.16-1.34-7.21-1.13-10.19.56-1.06.69-2.68.9-3.43-.33 1.33.44 2.64-.13 3.85-.65 1.24-.39 2.52-.86 3.83-.92 2.87-.27 5.94.59 8.12 2.51.56.61.73.4 1.24-.11 3.27-2.78 7.96-3.04 11.84-1.49 1.21.52 2.52 1.09 3.85.65-1.34 1.95-3.53.19-5.12-.46-3.56-1.2-8.93-.93-11.24 2.42-.71-1.06-1.58-1.69-2.74-2.19Zm3.15 20.78c-.12-.1-.2-.24-.33-.33 0-.32.01-.64 0-.96.4.9 1.23 1.49 2.16 1.77-.63.03-1.33-.05-1.84-.47Zm1.44-.49c.17.32.38.64.63.9-1.15-.24-2.44-1.13-2.39-2.43-.04-3.18 0-11.71-.03-15.01 0-.13-.06-.35.11-.38.18-.58.57-1.08 1.02-1.47 0 2.92-.06 11.64-.08 14.52-.1 1.34.08 2.69.74 3.87m-1.76-17.49-.02-.48c1.24-2.15 4.13-2.92 6.46-3.06 1.49.05 2.98.31 4.4.79.46.15 1.16.5.96 1.08-.01 0-.02.03-.03.03-.36-.19-.74-.4-1.13-.57-3.46-1.64-8.42-1.23-10.64 2.2Zm22.3.74c-.5 5.7-3.53 11.58-7.83 15.34-1.46 1.22-3.41 2.38-5.35 1.73-1.12-.33-2.15-1.03-2.81-2-.46-.5-.62-1.22-.95-1.8-.35-.96-.73-1.9-1.07-2.87-.69-1.33-1.02-3.71-2.92-3.66-.18-.25.43-.56.63-.6.96-.09 1.52.85 1.85 1.62.79 1.7 1.5 3.44 2.4 5.09 1.08 1.74 2.74 3.06 4.88 2.98 1.16-.23 2.16-.95 3.06-1.68 6.21-5.27 8.59-14.37 6.49-22.14-1.46-5.42-5.13-10.2-10.01-12.98C15.1-6.71-5.96 13.47 3.39 32.83c1.53 3 3.73 5.67 6.46 7.66.63.46 1.29.88 1.97 1.26.22.13.82.37.94.56.1.04.18-.01.23-.1-.39-1.26-.66-2.6-.48-3.93 1.49 2.79 3.88 4.85 6.67 6.27-2.03-.73-3.95-2.06-5.32-3.75-.14-.14-.21-.41-.41-.46-.26-.05-.33-.59-.59-.67-.19.95.48 2.57.94 3.43-4.91-2.09-9.17-6.58-11.24-11.48C-.68 24.22.69 15.08 5.83 8.83 13.39-.3 26.93-1.96 36.39 5.26c5.66 4.24 9.06 11.31 8.8 18.38-.23 5.56-2.67 11.23-6.65 15.12-1.06 1.04-2.44 2.42-3.95 2.75-1.8.39-3.71-.63-4.71-2.1-.41-.38-.86-1.51-1.08-2.04-.76-1.6-1.38-3.28-2.2-4.86-.36-.53-.86-1.08-1.55-1.03-.16.06-.37.1-.44.27.02.03.03.04.05.06.21-.22.51-.29.79-.19 1.14.5 1.47 1.85 1.94 2.89 1.3 2.56 2.01 6.02 5.1 6.98 2.32.83 4.38-.91 5.91-2.47 4-3.86 6.35-9.08 6.84-14.61.61-8.45-4.01-16.87-11.43-20.96-4.62-2.6-10.59-3.48-15.78-2.3a23.5 23.5 0 0 0-6.35 2.6C8.37 5.74 5.47 8.5 3.63 11.92-2.89 23.19 1.94 38.24 14 43.28l.03-.02c-.61-.97-1.06-2.2-1.1-3.37.37.44.38.59.44 1.14.27 1.15.82 2.18 1.48 3.15C-11.47 32.93.91-5.12 28.72.97c.86.21 1.69.55 2.51.9.7.25 1.39.53 2.05.87 1.97.97 3.78 2.28 5.37 3.79 4.94 4.71 7.77 11.73 6.88 18.56"/>
</svg>
