<?xml version="1.0" encoding="UTF-8"?>
<svg id="Capa_2" data-name="Capa 2" xmlns="http://www.w3.org/2000/svg" viewBox="0 0 430.3 136.49">
  <defs>
    <style>
      .cls-1 {
        fill: #000;
        stroke-width: 0px;
      }
    </style>
  </defs>
  <g id="Capa_1-2" data-name="Capa 1">
    <g>
      <g>
        <path class="cls-1" d="M179.19,52.35c.68,0,1.38-.28,2.09-.85.72-.57,1.3-1.2,1.75-1.92l-3.22-4.63h-1.24c-.3,1.24-1.6,1.86-3.9,1.86h-14.91c-.68,0-1.38.28-2.09.85-.72.57-1.3,1.2-1.75,1.92l3.22,4.63h1.24c.3-1.24,1.6-1.86,3.9-1.86h3.56l-1.75,1.69v29.93c0,1.92-.34,3.35-1.02,4.29-.75.98-1.54,1.47-2.37,1.47l.9,1.81,11.58-4.86v-1.75c-.94,0-1.56-.3-1.86-.9-.3-.6-.45-1.6-.45-2.99v-28.68h6.32Z"/>
        <path class="cls-1" d="M201.33,52.86c0-1.24-.65-2.63-1.95-4.18s-2.27-2.32-2.91-2.32-3.11.8-7.4,2.4c-4.29,1.6-6.44,2.53-6.44,2.8v32.41c0,1.92-.34,3.35-1.02,4.29-.75.98-1.54,1.47-2.37,1.47l.9,1.81,11.58-4.86v-1.75c-.94,0-1.56-.3-1.86-.9-.3-.6-.45-1.6-.45-2.99v-10.62h5.08v15.47c0,.68.36,1.4,1.07,2.17.71.77,1.49,1.33,2.32,1.67l6.16-3.44v-1.24c-1.81-.38-2.71-1.6-2.71-3.67v-10.95l2.77-1.41v-1.35h-2.77v-14.8ZM194.5,67.65h-1.75l-3.33,1.47v-16.66c.72-.57,1.45-.85,2.2-.85,1.92,0,2.88,1.39,2.88,4.18v11.86Z"/>
        <path class="cls-1" d="M245.37,44.95h-1.24c-.3,1.24-1.6,1.86-3.9,1.86h-14.18l-1.29-1.86h-1.24c-.3,1.24-1.6,1.86-3.9,1.86h-14.91c-.68,0-1.38.28-2.09.85-.72.57-1.3,1.2-1.75,1.92l3.22,4.63h1.24c.3-1.24,1.6-1.86,3.9-1.86h3.56l-1.75,1.69v29.93c0,1.92-.34,3.35-1.02,4.29-.75.98-1.54,1.47-2.37,1.47l.9,1.81,11.58-4.86v-1.75c-.94,0-1.56-.3-1.86-.9-.3-.6-.45-1.6-.45-2.99v-28.68h5.59l1.29,1.86h1.24c.3-1.24,1.6-1.86,3.9-1.86h3.56l-1.75,1.69v29.93c0,1.92-.34,3.35-1.02,4.29-.75.98-1.54,1.47-2.37,1.47l.9,1.81,11.58-4.86v-1.75c-.94,0-1.56-.3-1.86-.9-.3-.6-.45-1.6-.45-2.99v-28.68h6.32c.68,0,1.38-.28,2.09-.85.72-.57,1.3-1.2,1.75-1.92l-3.22-4.63Z"/>
        <path class="cls-1" d="M262.02,46.25c-.64,0-3.11.8-7.4,2.4-4.29,1.6-6.44,2.53-6.44,2.8v30.04c0,2.26.59,4.2,1.78,5.82s2.24,2.43,3.16,2.43,3.44-.8,7.56-2.4c4.12-1.6,6.18-2.55,6.18-2.85v-31.73c0-1.24-.65-2.63-1.95-4.18-1.3-1.54-2.27-2.31-2.91-2.31ZM260.05,83.63c-.75.6-1.49.9-2.2.9-1.92,0-2.88-1.39-2.88-4.18v-28.01c.72-.57,1.45-.85,2.2-.85,1.92,0,2.88,1.39,2.88,4.18v27.95Z"/>
        <path class="cls-1" d="M286.36,46.25c-.64,0-3.11.8-7.4,2.4-4.29,1.6-6.44,2.53-6.44,2.8v30.04c0,2.26.59,4.2,1.78,5.82s2.24,2.43,3.16,2.43,3.44-.8,7.56-2.4c4.12-1.6,6.18-2.55,6.18-2.85v-31.73c0-1.24-.65-2.63-1.95-4.18-1.3-1.54-2.27-2.31-2.91-2.31ZM284.39,83.63c-.75.6-1.49.9-2.2.9-1.92,0-2.88-1.39-2.88-4.18v-28.01c.72-.57,1.45-.85,2.2-.85,1.92,0,2.88,1.39,2.88,4.18v27.95Z"/>
        <path class="cls-1" d="M330.01,84.7c-1.28,0-2.56-.75-3.84-2.26-1.28-1.51-2.34-3.26-3.19-5.25s-1.53-3.91-2.06-5.73c-.53-1.83-.79-3.13-.79-3.93,4.14-1.66,6.18-2.62,6.1-2.88v-10.9c0-1.92.34-3.35,1.02-4.29.75-.98,1.54-1.47,2.37-1.47l-.9-1.81-11.58,4.86v1.75c.94,0,1.56.3,1.86.9.3.6.45,1.6.45,2.99v7.34c0,.68-.6,1.33-1.81,1.95-1.21.62-2.3.93-3.28.93v-16.77c0-.64-.36-1.35-1.07-2.12-.72-.77-1.49-1.33-2.32-1.67l-5.7,3.22v1.24c1.54.3,2.32,1.6,2.32,3.9v29.25c0,1.92-.34,3.35-1.02,4.29-.75.98-1.54,1.47-2.37,1.47l.9,1.81,11.58-4.86v-1.75c-.94,0-1.56-.3-1.86-.9-.3-.6-.45-1.6-.45-2.99v-11.46l.28-.11c0,2,1.12,5.87,3.36,11.63,2.24,5.76,4.02,8.64,5.34,8.64.94,0,3.16-1.11,6.67-3.33v-1.69Z"/>
        <path class="cls-1" d="M338.43,80.3v-26.54c0-1.92.34-3.35,1.02-4.29.75-.98,1.54-1.47,2.37-1.47l-.9-1.81-11.58,4.86v1.75c.94,0,1.56.3,1.86.9.3.6.45,1.6.45,2.99v25.81c0,1.84-.39,3.22-1.19,4.12-.3.34-.67.64-1.1.9-.43.26-.8.39-1.1.39l.9,1.81s3.88-1.67,11.52-5.02v-1.58c-.83,0-1.41-.22-1.75-.65-.34-.43-.51-1.16-.51-2.17Z"/>
        <path class="cls-1" d="M351.64,82.28c-.53-.6-.79-2.41-.79-5.42v-23.09c0-1.92.34-3.35,1.02-4.29.75-.98,1.54-1.47,2.37-1.47l-.9-1.81-11.58,4.86v1.75c.94,0,1.56.3,1.86.9.3.6.45,1.6.45,2.99v24.51c0,1.66.6,3.18,1.81,4.57,1.21,1.39,2.41,2.4,3.62,3.02,1.21.62,2.15.93,2.85.93s3.55-1.05,8.56-3.16v-1.58c-2.41,0-4.61-.23-6.61-.68-.87-.23-1.75-.9-2.65-2.03Z"/>
        <path class="cls-1" d="M372.42,82.28c-.53-.6-.79-2.41-.79-5.42v-23.09c0-1.92.34-3.35,1.02-4.29.75-.98,1.54-1.47,2.37-1.47l-.9-1.81-11.58,4.86v1.75c.94,0,1.56.3,1.86.9.3.6.45,1.6.45,2.99v24.51c0,1.66.6,3.18,1.81,4.57,1.21,1.39,2.41,2.4,3.62,3.02,1.21.62,2.15.93,2.85.93s3.55-1.05,8.56-3.16v-1.58c-2.41,0-4.61-.23-6.61-.68-.87-.23-1.75-.9-2.65-2.03Z"/>
        <path class="cls-1" d="M401.35,51.84c-.4-1.54-.74-2.86-1.04-3.95-.3-1.09-.57-1.64-.79-1.64-.64,0-3.12.8-7.43,2.4-4.31,1.6-6.47,2.53-6.47,2.8v29.7c0,2.11,1.03,4.07,3.08,5.87,2.05,1.81,3.66,2.71,4.83,2.71.57,0,2.15-.52,4.74-1.55,2.6-1.04,3.99-1.55,4.18-1.55v-1.64c-1.7,0-3.28-.07-4.75-.23-1.47-.15-2.82-.75-4.06-1.81-.83-.72-1.24-3.16-1.24-7.34v-5.65h5.14l2.82-1.41v-1.35h-7.96v-14.91c.3-.38.64-.57,1.02-.57.53,0,1.22,1.54,2.09,4.6.87,3.07,1.58,4.6,2.15,4.6.15,0,1.21-.48,3.19-1.44,1.97-.96,3.38-1.63,4.2-2.01v-1.13c-1.2,0-2.02-.37-2.45-1.1-.43-.73-.85-1.87-1.24-3.42Z"/>
        <path class="cls-1" d="M427.08,83.41c-2.33-2.03-4.37-5.97-6.1-11.8,4.1-1.62,6.16-2.58,6.16-2.88v-15.87c0-1.24-.65-2.63-1.95-4.18s-2.25-2.32-2.85-2.32-2.97,1.26-7.12,3.78c0-.64-.38-1.36-1.13-2.15-.75-.79-1.51-1.34-2.26-1.64l-5.7,3.22v1.24c1.54.3,2.32,1.6,2.32,3.9v29.25c0,1.92-.34,3.35-1.02,4.29-.75.98-1.54,1.47-2.37,1.47l.9,1.81,11.58-4.86v-1.75c-.94,0-1.56-.3-1.86-.9-.3-.6-.45-1.6-.45-2.99v-7.4l.62-.17c.15,1.51,1.18,4.59,3.07,9.26,1.9,4.67,3.47,7,4.71,7,.94,0,3.16-1.11,6.67-3.33v-1.69c-1.09,0-2.16-.43-3.22-1.3ZM420.3,68.1c0,.68-.6,1.33-1.81,1.95-1.21.62-2.3.93-3.28.93v-18.35c.79-.56,1.53-.85,2.2-.85,1.92,0,2.88,1.39,2.88,4.18v12.14Z"/>
      </g>
      <path class="cls-1" d="M132.92,44.47C117.64,2.44,64.28-13.45,28.26,12.79-16.63,47.85-6.41,114.75,47.38,134.07c.21-.15.27-.39.17-.63-3.57-2.5-5.63-6.74-6.68-10.86,5.41,6.48,13.16,10.83,21.3,12.86,1.98.47,4,.67,6,1.05.5.07.81-.76.37-1.02-.3-.17-1.64-.16-2.05-.22-.44-.06-.89-.23-1.31-.35-10.5-3.22-20.35-9.76-26.03-19.32-.55-.74-1.4-3.67-2.44-3.26-.78,4.08-.41,8.4.75,12.37-14.36-7.29-25.43-20.91-30.14-36.27.01,0,.03.02.04.03-.06-.07-.13-.14-.21-.2C-4.13,54.12,16.61,15.7,51.33,6.44c34.43-9.64,70.69,11.65,79.08,46.39h0c6.09,23.51-2.43,51.66-22.57,65.9-2.06,1.35-4.47,2.66-7.01,2.45-16.94-1.71-15.62-29.09-25.65-28.92,2.03-2.11,4.14-4.14,6.21-6.2,1.56-1.46,2.94-3.48,4.96-4.29.37.07.98.13,1.22.45.22.35.62.38.91.08.66-2.97-2.22-5.89-5.01-3.94-3,2.89-7.23,8.16-10.11,11.21-.06-5.63.11-14.68.12-20.42,3.44-2.93,8.46-4.67,12.94-4.95.89,2.11,1.62,4.32,2.4,6.48-3.96,2.02-2.74,5.08,1.55,4.88,2.22,5.41,4.91,13.48,7,19,1.24,3.33,2.94,6.93,1.77,10.52-.25.78-1.39,1.72-1.37,2.39.34.61,1.66.19,2.24.23,0,0,0,0,0,0,.95-.15,5.04-.2,5.89-.47.72-.18,1.41-1.23,2-1.27,2.6,1.67,6.53,2.32,9.61,1.68.31-.06.57-.13.75-.42.03-.58-.69-.76-1.11-.99-4.46-3.32-7.61-9.88-9.81-15.12-2.72-5.79-5.34-11.86-8-17.69,1.81,1.38,1.75,3.41,3.1,4.69,1.55-1.19-2.83-4.53-3.52-5.57-.36-.48-.59-1.16-.82-1.75,1.8-2.09.2-4.19-1.69-5.42,2.67.76,5.4,1.75,7.72,3.31,1.55-.03,1.4-1.82.98-2.87,3.15,1.4,6.29,3.53,9.87,2.38,1.59-.48,2.97-1.51,3.76-2.99.29-.54.67-1.48-.08-1.76-3.21,2.02-7.63,1.06-10.7-.82,2.64.44,5.33.66,8,.26,1.3-.14,1.87-.69,2.52-2.59-.07-.12-.16-.22-.26-.34l-.3.2c-.09,1.26-.87,2.28-2.19,2.4-2.18.17-3.21.06-3.21.06,0,0,0,0,0,0-4.93-.04-9.54-1.86-14.3-2.91-1.86-.41-3.78-.41-5.65-.68-6.39-13.63-14.2-31.28-20.23-45.12-.41-1.31-.32-2.86.3-4.1.25-.44,1.06-1.16,1-1.67-1.12-1.49-3.45-.41-4.83.14-1.33-.53-3.84-1.67-4.85-.09.06.58.72,1.12,1.02,1.62,1.36,2.55-.11,5.44-1.25,7.78-5.53,12.04-12.99,29.57-18.69,41.43-1.98.27-4.01.29-5.97.74-5.55,1.29-11.13,3.57-16.93,2.66-.07-.08-.12-.12-.17-.16l-.1.06c.23.07.27.09.43.27-1.15-.2-2.3-1-2.18-2.29-.13-.16-.15-.2-.34-.26-.25.11-.35.26-.46.52.2,1.19,1.45,2.2,2.62,2.32.66.04,1.32.1,1.97.2,2.04.05,4.08-.13,6.08-.47-2.79,1.67-7.58,2.98-10.41.88-.26-.01-.4.02-.64.12-.3,2.19,2.15,3.98,4.03,4.57,3.58,1.15,6.72-.98,9.87-2.38-.44,1-.52,3.12,1.11,2.8,2.27-1.54,4.98-2.48,7.6-3.23-1.85,1.22-3.46,3.26-1.76,5.34-.27.63-.51,1.45-.93,2-.73,1.07-4.85,4.22-3.62,5.54,1.42-.64,1.48-3.48,3.37-4.83-3.57,7.85-7.51,16.39-11.08,24.26-1.6,2.93-3.63,5.69-6.02,8.03-.54.72-1.41.54-1.75,1.08-.55,1.29,2.76.99,3.47,1.06,2.72-.03,4.75-.53,6.98-2.08,1.25,1.89,3.12,1.61,5.11,1.8,1.54.06,3.24.59,4.73.16.02-.52-1.1-1.6-1.36-2.21-1.12-2.89-.08-6.16,1.01-8.9,1.12-3.05,6.41-17.56,7.63-20.9.93-.04,1.89,0,2.75-.39,2.61-1.35,1.15-3.69-.91-4.64.73-2.02,1.37-4.14,2.27-6.09l.51-.31c4.06.36,8.81,1.88,11.97,4.52.23.71.47,1.42.52,2.16.13,6.7.12,21.19.19,28.08.04,4.14.07,8.29.07,12.43.21,4.26.26,8.72-1.91,12.56-.45.89-.99,1.71-1.62,2.48-.34.43-1.06.84-.91,1.46,2.86,1.16,6.51.56,8.7-1.67,2.22,2.21,5.8,2.83,8.69,1.67.03-.28.01-.4-.17-.62-2.03-2.05-3.29-4.82-3.94-7.61-.95-7.45-.07-15.34-.24-22.88.57-.35,1.06-.62,1.71-.78,2.85,1.3,3.73,4.42,4.85,7.1,3.94,8.06,4.89,18.56,14.08,22.6,18.64,7.67,36.02-23.94,40.28-38.42,4.11-14.18,3.99-29.07-1.38-42.89ZM44.33,131.83l-.08.03.05-.06s.02.02.02.04ZM73.36,90.9c1.72-1.88,5.85-6.62,7.63-8.58,1.58-1.81,4.12-5.73,6.35-2.45-2.56-1.22-4.15,1.95-5.78,3.44-.79.83-7.6,7.88-8.21,8.55v-.95ZM73.4,92.31c2.81-3.05,6.43-6.72,9.32-9.77,1.36-1.39,2.9-3.87,4.93-1.93.04.22.06.44.09.67-2.53-1.19-4.34,1.66-5.94,3.19-2.79,2.75-5.52,5.61-8.41,8.24l-.07-.09c0-.11.02-.21.08-.31ZM87.38,64.09c1.58-.03,6.21.18,7.51.9,0,.17-.06.29-.12.44l2.87,6.22c-1.31-.65-2.59-1.29-4.06-1.48-.94-1.87-1.43-4.02-2.51-5.79h-.1c.5,1.96,1.57,3.79,2.22,5.72-1.18-.21-2.39-.06-3.54.23-.77-2.07-1.52-4.15-2.25-6.24ZM90.2,75.37c-3.6.26-4.77-2.8-1.26-4.37.5,1.42,1.12,2.81,1.52,4.25-.11.13-.11.1-.26.12ZM107.01,104.69c-.33,2.47-3.76,1.72-5.58,2.07-.6.09-1.24.1-1.85.14,1.97-3.35.84-7.43-.54-10.78-1.38-3.76-7.79-21.39-9.29-25.5,1.12-.24,2.43-.5,3.55-.14.22.39.53.97.59,1.41,4.21,9.91,9.12,22.23,13.26,32.16-.06.21-.11.42-.14.64ZM104.82,87.45c1.24,2.59,3.71,8.33,4.94,10.81,1.78,3.14,3.96,6.2,6.68,8.6-3.33.38-7.31-.15-9.17-3.27-3.23-7.9-10.26-24.99-13.58-33.09,1.52.3,2.97.88,4.21,1.81l6.91,15.15ZM98.57,68.54c.17.68-.14,1.35-.57,1.87-.46-1.02-2.07-4.25-2.2-5.07.02,0,.08-.03.1-.02.9.98,2.57,1.67,2.67,3.21ZM69.48,14.85c.07-1.84,0-3.71,0-5.56.82-.47,1.65-.7,2.58-.79-3.23,2.26-1.66,6.28-.29,9.17,0,0,10.63,26.17,10.63,26.17,1.78,4.3,4.56,11.36,6.37,15.55l.24-.14c-3.57-8.73-10.92-26.81-14.51-35.75-.74-1.36-1.42-3.44-2.02-4.92-1.43-3.21-3.89-7.94.31-10.11-2.76,3.08-.76,7.18.79,10.34.83,1.96,3.56,7.7,4.27,9.57,4.66,10.24,9.3,20.61,13.86,30.91-1.94.04-3.97.16-5.88.52-4.16-10.96-8.19-22.35-12.27-33.36-.87-2.4-1.82-4.78-2.65-7.23-.46-1.43-1.32-2.86-1.44-4.37ZM69.03,16.54c4.88,13.32,11.03,30.1,15.91,43.43-2.08.48-4.12,1.12-6.24,1.45-3.36.84-6.85,1.79-9.66,3.89-4.75-3.09-10.46-4.1-15.92-5.35,5.01-13.81,10.85-29.65,15.91-43.43ZM59.35,61.77l.09-.06c3.25,1.02,6.79,1.96,9.62,3.97,2.43-1.98,6.36-3.22,9.41-3.83-3.5,1.53-6.73,3.58-9.44,6.29-2.76-2.71-6.02-4.93-9.63-6.33v-.04s-.05,0-.05,0ZM46.75,58.34c4.75-10.62,9.49-21.32,14.31-31.91,1.11-2.55,2.27-5.07,3.41-7.61,1.55-3.16,3.56-7.26.79-10.34,4.12,2.13,1.84,6.72.4,9.89-.69,1.72-1.31,3.59-2.16,5.24-3.22,7.99-10.83,26.89-14.07,34.62v.15c-.13.25-.3.62-.37.9.06.03.12.04.19.06,2.95-6.48,9.81-24.2,12.71-31.04,1.06-2.52,3.21-8.08,4.3-10.51,1.22-2.98,3.12-6.95-.28-9.29.95.1,1.76.32,2.59.79-.07,1.45.11,4.66-.03,6.03-1.39,4.19-3.21,8.71-4.71,12.89-3.56,9.92-8,21.66-11.6,31.6-1.92-.36-3.95-.52-5.9-.53l.41-.95ZM39.64,69.82c-.47-1.03-.05-2.15.67-2.96.54-.55,1.37-.94,1.82-1.52.07-.09.1-.11.2-.14.04.26-1.96,4.5-2.28,5.18-.14-.18-.3-.36-.42-.57ZM42.69,66.78c.25-.55.5-1.27.86-1.75.33-.44,2.75-.65,3.33-.73-.78,1.97-1.58,3.92-2.4,5.87-1.42.23-2.66.75-3.97,1.45.73-1.61,1.43-3.24,2.18-4.84ZM30.29,104.22c-1.98,2.7-5.66,2.89-8.73,2.65.57-.46,1.12-.99,1.63-1.52.2-.23.53-.62.76-.82,1.53-2.04,3.29-4.11,4.44-6.43,2.56-5.65,9.09-19.98,11.76-25.8,1.27-.92,2.68-1.49,4.22-1.81-3.87,8.9-9.94,25.26-14.07,33.74ZM41.08,90.46c-1.52,5.03-5.56,11.25-2.61,16.44-.61-.04-1.24-.05-1.85-.14-2.32-.36-5.5.48-5.72-2.71,4.41-10.56,9.37-23.06,13.85-33.58,1.12-.36,2.43-.1,3.55.14l-7.22,19.84ZM50.06,71.5c2.53,2.05.59,3.94-2.04,3.92-.16-.08-.31,0-.43-.17.4-1.44,1.02-2.84,1.52-4.25.32.15.63.33.95.5ZM48.83,69.11l-.46,1.16c-1.16-.2-2.32-.38-3.49-.17.51-1.33,1.03-2.66,1.63-3.96.17-.48.71-1.37.56-1.83.49-.29,2.93-.24,3.61-.23-.6,1.68-1.29,3.34-1.86,5.03ZM56.21,64.05c-7.52-2.03-15.78-.15-22.44,3.65h-.14c-.51-1.02.41-2.12,1.26-2.61,10.47-4.75,26.97-4.49,33.93,6.06l-.05,1.44c-2.54-4.42-7.76-7.25-12.56-8.55ZM68.77,124.85c-.61,2.41-4.31,2.93-6.42,2.78,2.78-.81,5.23-2.59,6.43-5.27,0,.83,0,1.66-.02,2.49ZM68.85,75.12c-.04,10.12.04,35.52-.07,45.26.15,2.59-1.94,4.68-4.01,5.92-.95.58-2.04.9-3.12,1.16,3.44-3.91,4.46-9.33,4.07-14.4-.08-7.63-.18-35.33-.28-43.22,1.55,1.3,2.42,3.11,3.42,4.81,0,.16,0,.31,0,.46ZM60.85,64.26c-9.42-3.98-21.51-3.38-30.38,1.68-3.17,2.05-8,2.7-10.24-.97,3.96,1.3,7.88-.4,11.48-1.94,3.68-1.16,7.51-2.56,11.41-2.73,8.57-.81,17.71,1.77,24.22,7.49,1.68,1.83,2.18,1.18,3.69-.32,9.74-8.28,23.75-9.07,35.31-4.43,3.6,1.54,7.52,3.24,11.47,1.94-4,5.83-10.52.56-15.27-1.37-10.61-3.57-26.62-2.78-33.51,7.21-2.12-3.16-4.71-5.05-8.18-6.54ZM70.22,126.24c-.36-.3-.59-.72-.97-1,.02-.96.03-1.92.02-2.88,1.18,2.69,3.67,4.46,6.43,5.26-1.87.09-3.97-.14-5.48-1.39ZM74.54,124.77c.52.95,1.13,1.9,1.87,2.69-3.43-.72-7.26-3.37-7.13-7.24-.12-9.49-.03-34.93-.07-44.76,0-.38-.18-1.04.34-1.14.53-1.73,1.7-3.21,3.05-4.39,0,8.7-.19,34.73-.24,43.29-.29,3.98.25,8.02,2.19,11.55ZM69.28,72.61l-.05-1.44c3.71-6.4,12.33-8.7,19.27-9.12,4.46.15,8.88.91,13.11,2.37,1.36.44,3.45,1.48,2.85,3.23-.03.03-.06.08-.1.08-1.09-.57-2.22-1.2-3.36-1.69-10.32-4.88-25.11-3.66-31.72,6.57ZM135.78,74.82c-1.5,17-10.52,34.52-23.36,45.75-4.34,3.63-10.16,7.09-15.94,5.16-3.33-.97-6.4-3.08-8.37-5.95-1.36-1.48-1.84-3.63-2.82-5.35-1.06-2.85-2.18-5.68-3.18-8.55-2.07-3.98-3.03-11.05-8.72-10.9-.54-.75,1.29-1.67,1.87-1.8,2.86-.28,4.54,2.54,5.52,4.83,2.34,5.08,4.46,10.27,7.17,15.18,3.23,5.18,8.17,9.11,14.55,8.88,3.46-.69,6.43-2.83,9.12-5.01,18.52-15.72,25.63-42.86,19.36-66.03-4.37-16.16-15.29-30.41-29.84-38.72C45.02-20.01-17.77,40.16,10.12,97.9c4.57,8.96,11.12,16.91,19.26,22.86,1.88,1.37,3.85,2.63,5.88,3.77.67.38,2.44,1.12,2.82,1.68.29.11.53-.04.68-.29-1.16-3.74-1.96-7.75-1.44-11.71,4.45,8.31,11.58,14.48,19.91,18.71-6.06-2.18-11.79-6.14-15.87-11.17-.42-.42-.64-1.21-1.23-1.37-.77-.14-.99-1.77-1.75-2-.57,2.84,1.44,7.68,2.81,10.22-14.66-6.22-27.34-19.63-33.51-34.23C-2.02,72.23,2.06,44.96,17.37,26.35,39.94-.89,80.32-5.84,108.51,15.67c16.87,12.63,27.01,33.74,26.25,54.81-.68,16.57-7.98,33.49-19.84,45.08-3.15,3.11-7.29,7.23-11.77,8.2-5.36,1.18-11.08-1.89-14.04-6.26-1.21-1.13-2.56-4.51-3.23-6.09-2.27-4.78-4.12-9.79-6.55-14.48-1.09-1.57-2.56-3.22-4.63-3.08-.47.16-1.09.31-1.3.81.05.08.07.12.16.17.63-.67,1.51-.86,2.36-.57,3.41,1.5,4.38,5.51,5.78,8.63,3.88,7.63,5.99,17.95,15.22,20.8,6.93,2.48,13.07-2.72,17.64-7.36,11.93-11.52,18.93-27.08,20.4-43.56,1.83-25.21-11.97-50.31-34.08-62.5C87.05,2.53,69.25-.09,53.78,3.44c-6.65,1.64-13.06,4.26-18.94,7.76-9.86,5.94-18.51,14.18-24.02,24.35-19.45,33.62-5.03,78.5,30.94,93.53l.09-.07c-1.82-2.9-3.17-6.55-3.28-10.04,1.1,1.32,1.15,1.76,1.32,3.4.8,3.44,2.46,6.5,4.41,9.4C-34.19,98.21,2.71-15.27,85.66,2.9c2.58.64,5.04,1.63,7.47,2.67,2.09.74,4.14,1.59,6.12,2.59,5.89,2.91,11.27,6.79,16.02,11.31,14.73,14.04,23.17,34.99,20.51,55.34Z"/>
    </g>
  </g>
</svg>