<?xml version="1.0" encoding="UTF-8"?>
<svg id="Layer_2" data-name="Layer 2" xmlns="http://www.w3.org/2000/svg" viewBox="0 0 1920 1068.03">
  <defs>
    <style>
      .cls-1 {
        fill: #000;
        stroke-width: 0px;
      }
    </style>
  </defs>
  <g id="Layer_1-2" data-name="Layer 1">
    <g>
      <path class="cls-1" d="M545.32,221.02c4.75,1.74,6.31-2.55,8.79-5.12-4.36-1.23-6.38,2.35-8.79,5.12Z"/>
      <path class="cls-1" d="M417.27,141.41c.18.17.43.33.72.49-.25-.16-.49-.33-.72-.49Z"/>
      <path class="cls-1" d="M816.25,203.52c-.4,0-.82-.04-1.26-.14-.08.09-.15.18-.24.25.49-.02.99-.07,1.49-.11Z"/>
      <path class="cls-1" d="M817.15,203.45c.94-.06,1.85-.02,2.72.34.93-2.71,3.31-4.01,6.1-4.88.1-.02.19-.03.29-.05-.7-.33-1.63.03-2.62.65-2.15,1.35-3.92,3.53-6.49,3.95Z"/>
      <path class="cls-1" d="M236.82,191.92c.01-.58.1-1.3.22-2.15-.34.38-.48.95-.3,1.86.02.11.06.19.08.29Z"/>
      <path class="cls-1" d="M144.17,158.41c-3.6-2.32-4.36,2.9-6.58,4.55-.47.18-.91.4-1.34.63.15,4.78,5.04,10.71-4.41,13.29-2.25.61-2.8,7.47-4.13,11.45-.27.14-.55.26-.83.36-.25.46-.58.9-.93,1.33-.67,1.4-1.33,2.8-2,4.2.05.37.16.76.36,1.18,4.07.98,9.27,1.71,2.7,6.68-2.01,1.52-2.31,2.76-1.47,4.89,1.08,2.73.57,5.39-.4,8,3.4-5.32,4.43-11.77,7.39-17.31,1.19-2.21,1.99-4.62,3.25-6.81-.47-.05-.89-.23-1.27-.52-1.15.04-2.69-1-3.21,1.26-.21.92-1.45,2.87-2.86,1.34-.64-.7,0-2.58.07-3.92,2.24-1.84,2.69-5.13,4.73-7.12.04-.19.07-.39.11-.58,1.24-6.28,8.42-8.96,9.36-15.44.38-2.61,4-5.83,1.46-7.46Z"/>
      <path class="cls-1" d="M37.83,89.65c.02-.38.05-.75.08-1.13-.07.37-.1.75-.08,1.13Z"/>
      <path class="cls-1" d="M12.82,95.4c4.96-1.84,9.92-3.68,14.87-5.52,3.5.26,6.61-2.38,10.22-1.36,3.61-2.19,6.47-5.81,10.69-6.84.14-.27.29-.52.48-.75.52-1.06,1.16-2.03,2-2.87.25-.16.52-.26.79-.34.05-1.41-.17-2.71-1.15-3.69-.25.09-.52.16-.8.22-3.96.2-4.08-2.67-4.37-5.41-.02-.17-.03-.35-.05-.52-3.54.87-7.05,2.72-10.65-.14,4.15-.85,6.2-2.61,2.93-6.7-.47-.16-.96-.28-1.45-.37-2.27,1.2-4.54,2.41-6.81,3.61-3.98.18-5.7-3.46-8.61-5.1-1.07.04-2.15.09-3.23.13-.89-2.5-.22-4.12,2.88-4.51,2.77-.35,5.25-.29,5.48-3.55-.21.02-.42.02-.64.05-3.31-2.54-1.73-4.51.57-6.38-4.1-.94-5.15-.48-14.47,3.66,3.43-3.63,5.61-5.92,7.76-8.2-.01-.04-.03-.07-.04-.11H4.5c3.54-2.09,5-4.35,3.99-9.34,3.71,5.3,9.29,4.64,10.7,9.34h.14l-.1.12c2.11-.02,4.23-.04,6.34-.06.02-.03.03-.06.06-.09,1.02-2.24,1.88-4.53,1.73-7.07-5.58-1.58-5.62-5.37-3.81-9.92-.1-.02-.2-.04-.3-.05-2.97-.64-6.9-.5-5.07-5.17-6.18-.42-13.05-2.77-18.19-5.93v38.07c1.98-.82,5.03-.41,6.1-2.38,2.32,3.76-6.29,2.14-2.05,6.28,4.65-1.21,9.3-2.43,13.96-3.64.13.33.27.65.4.98-1.24.94-2.42,2.61-3.72,2.7-8.02.57-8.16,4.25-4.25,9.82-.97-.06-1.94-.12-2.92-.17-2.64.22-5.11-.34-7.51-1.12v28.76c.89.07,1.66.38,2.05,1.49-.5,1.31-1.21,2.23-2.05,2.92v33.05c4.75-1.55,9.66-2.67,13.95-5.4-.33-1.52-3.89-1.04-2.45-3.27,1.08-1.68,1.95-5.12,5.4-2.84-1.94-1.47,4.52-2.12.37-3.8-.9-.36-2.54-.61-2.6-1.07-.65-4.89-.58-4.9-7.1-4.82,2.03-4.61,7.41-1.41,9.98-4.44,7.17-5.41,14.07-11.31,23.07-13.46-.93-.16-1.92-.16-2.78-.5-8.24,2.35-15.62,8.42-25.01,5.75ZM28.01,69.89c1.03-.14,2.06-.29,3.09-.43,1.77,1.11,3.2,3.79,1.65,4.36-2.34.86-6.61.74-7.89-.79-2.02-2.42,2.53-1.48,3.15-3.14Z"/>
      <path class="cls-1" d="M140.78,180.55c-.75.36-1.24.9-1.58,1.54.44-.47.96-.97,1.58-1.54Z"/>
      <path class="cls-1" d="M829.37,191.72c-1.4.1-2.8.27-4.19.6-3.6,1.38-7.23,2.47-11.11,1.31-.32-.4-.66-.78-1-1.13-7.86,3.17-15.46,7.13-24.11,7.81-.34.42-.69.86-1.06,1.32-5.06,3.94-11.36,4.05-17.18,5.62,1.69,1.07,3.95.08,5.8.58,10.58-5.03,21.95-6.46,33.43-7.48.92-4.42,4.73-4.58,7.88-4.61,4.42-.05,7.74-2.52,11.81-3.47-.08-.22-.17-.39-.26-.56Z"/>
      <path class="cls-1" d="M116.75,124.77c-2.27-1.44-3.73.83-4.95,2.6-1.47,2.14-2.26,4.59-2.3,7.19,2.08-.63,4.16-1.28,6.28-1.81.34-.07.67-.14,1.01-.2.2-.69.4-1.38.6-2.06-.12-.01-.24-.01-.36-.05-4.72-1.89-2.6-3.78-.28-5.68Z"/>
      <path class="cls-1" d="M60.93,68.69s-.01,0-.02,0c-.61-.08-1.19-.27-1.74-.51-4.25,1.57-4.82,5.66-5.92,9.38.04,0,.07,0,.11,0,1.15.42,2.07,1.15,2.8,2.13.04.03.06.06.1.1,1.23-.31,2.47-.62,3.7-.93.3-.46.67-.87,1.18-1.21.63-.43,1.31-.74,2.04-.96,1.26-.34,2.63-.27,3.98-.26.72-.25,1.34-.68,1.67-1.59,1.15.03,2.29.07,3.43.1.29-.28.58-.6.84-1,1.09-1.02,2.34-1.63,3.82-1.68,0-.05,0-.09,0-.14-2.12-.13-3.72-1.45-4.33-3.17-1.42-4-3.83-1.79-6.01-1.33-.43.12-.86.24-1.29.36.78,2.16,4.49,3.84,1.37,6.63-1.91-1.97-3.81-3.94-5.71-5.91Z"/>
      <path class="cls-1" d="M1452.09,111.73c.2.02.41-.04.61-.21-.21.07-.41.14-.61.21Z"/>
      <path class="cls-1" d="M1802.64,113.26c1.15-1.81,2.92-3.25,4.32-5.57-2.61,1.64-4.7,3.25-6.41,5.15.71-.09,1.41.03,2.09.42Z"/>
      <path class="cls-1" d="M1807.96,117.32c7.83,2.02,7.85,1.97,10.82-4.43.16-.35.88-.44,1.38-.63-.02-3.42,1.43-5.97,3.21-8.21-4.48,4.57-10.2,8.47-15.4,12.9-.04.03-.07.07-.11.1.03.09.07.18.09.27Z"/>
      <path class="cls-1" d="M1885.42,56.91c-2.11,4.36-3.49,9.15-5.26,13.78,1.38-2.52,2.83-5.03,3.08-7.88.19-2.12,2.1-3.87,2.18-5.9Z"/>
      <path class="cls-1" d="M1915.6,15.39c1.51-.02,2.95-.45,4.4-.85V0c-1.73,3.79-2.8,7.9-4.26,14.81-.05.19-.1.38-.14.58Z"/>
      <path class="cls-1" d="M835.55,194.58c-.31.3-.61.63-.88,1.02.09.22.2.42.31.6.2-.61.38-1.15.56-1.62Z"/>
      <path class="cls-1" d="M1220.58,186.03c-.42.4-.84.77-1.27,1.11.45-.3.89-.65,1.27-1.11Z"/>
      <path class="cls-1" d="M852.62,183.32s-.1-.06-.15-.09c0,.13.08.22.15.09Z"/>
      <path class="cls-1" d="M1394.24,202.53c-.26-.24-.53-.47-.79-.69-.05.15-.11.3-.18.42.32.09.63.18.97.27Z"/>
      <polygon class="cls-1" points="1333.82 191.98 1333.82 191.97 1333.82 191.97 1333.82 191.98"/>
      <path class="cls-1" d="M1826.37,100.59c1.45-1.67,2.7-3.32,3.11-5.26-.81,1.89-1.87,3.63-3.11,5.26Z"/>
      <path class="cls-1" d="M1919.81,58.03c.2.65.07,1.24-.36,1.78-.7,3.22-1.39,6.44-2.09,9.67-9.66-2.51-.83-7.67-2.11-11.28-8.17-1.06-5,6.78-7.8,9.94-.63,4.19,1.22,9.09-3.47,12.12-1.55,2.25-2.08,4.8-2.14,7.47,4.89-1.54,5.92-5.83,6.96-10,.73-2.94.62-6.23,4.63-7.86-.78,11.28-6.64,20.52-9.69,31.43-3.15-2.67-.72-5.45-1.93-7.45-2.88.97-3.92,3.25-3.33,5.91,1.03,4.57-2.33,4.62-5.05,5.46-2.13-1.21-.68,3.8-3.23,1.86.67-7.83,1.33-15.66,2-23.49-.36-.87-.98-2.81-1.26-2.29-2.02,3.77-6.39,4.36-9.01,7.17-4.66,5.8-10.03,11.13-12.05,18.64-1.81,2.09-3.62,4.19-5.43,6.28-2.16-.95-1.64-2.74-1.37-4.44,2.76-6.35,4.24-13.26,8.32-19.02,2.07-2.92,3.94-6.19,8.04-6-.88-.57-2.82-.74-1.03-2.33-.18,0-.35.01-.54.01-.63-2.04-.53-3.87-.08-5.6-1.63,3.17-3.69,6.13-6.63,8.67-1.78,1.54-2.39,5.02-5.74,3.32-2.25-1.15-3.48-2.8-3.62-4.28-1.37,6.3-4.92,12.96-12.01,17.36-5.37-.08-9.79.94-13.25,6.07-2.37,3.53-6.44,6.23-10.94,7.5-.27.02-.53.02-.79.01-1.89,4.21,2.48,2.04,4.26,2.52.12,2.92-.3,5.59-3.37,6.97,0,0,0,0,0,0-4.28,2.14-4.21,10.23-11.56,8.52-.29-.07-4.25,2.6-1.27,5.83,1.75,1.9,2.21,5.12-.72,7.28-2.91-2.65-4.23-6.64-9.38-7.3-4.32-.55,1.89-4.15-.82-6.6-5.89,4.63-10.34,1.75-14.1-3.56-1.97-2.79-3.59-1.55-5.22-.41-.34.5-.67,1.02-.96,1.58-1.4.91-3.75,1.11-4.05,2.83-1.65,9.25-9.73,11.69-16.23,15.83-.86.51-1.66,1.11-2.42,1.74,1.18,2.7.72,6.7,5.36,6.66.51.02,1.01.06,1.52.1.58,4.1-1.75,8.5,2.08,12.33,1.57,1.56-.5,2.66-2.36,3.09-2.37.55-4.5,4.8-7.08.93-3.18-4.77-7.82-6.74-12.91-8.48-2.87-.98-6.29-3.64-8.17-.78-.77,1.18-2.78,5.49-.67,7.96,2.95,3.47,5.46-.86,8.71-1.07-2.22,5.04,6.21,9.78.05,14.99-4.25-.41-6.8-3.99-10.43-5.56-5.65-1.19-9.02-6.78-14.48-8.34-.33.08-.66.15-.99.21-1.1.4-2.18.85-3.33,1.11-16.63,6.14-33.33,12.13-49.08,20.38-11.38,8.47-25.55,11.15-37.7,18.04-2.01,1.14-4.34,1.07-6.37-.42-8.06-4.13-17.54-4.81-22.43-15.27-5.63-12.05-25.22-12.78-30.58-2.46-1.1,1.26-2.28,2.39-3.53,3.44,1.91-.82,3.74-1.06,5.55.49.43,5.27.17,10.71,3.74,15.21,1.43,4.15-1.65,5.69-4.43,6.85-5.94,2.48-11.96,5.02-18.48,5.39-2.03.12-5.02,1.83-6.17-.6-1.3-2.72,1.37-4.47,3.36-6.04.06-.03.12-.06.18-.09-.3-.3-.6-.6-.89-.91-.1.1-.21.18-.31.28-5.87,4.57-12.66,6.97-19.82,8.57l-.68-.13-.66.17c-1.33-1.72-.7-3.29.71-4.41,4.47-3.53,9-6.98,13.64-10.26-10.33,6.38-20.22,13.51-31.53,18.17-1.09.58-2.19,1.17-3.28,1.76-3.82-.11-2.3-2.23-1.55-4.07.26-.17.5-.35.76-.52-.12-.17-.25-.35-.37-.52-4.15,4.51-8.31,3.72-12.46,0-.89.57-2.52,1.7-2.57,1.64-.86-1.15-1.68-1.95-2.47-2.48,0,0,0,0-.01,0-4.44-2.97-7.88,2.71-11.78,4.09-4.13.83-7.73,3.4-12.04,3.66-4.11-.77-7.98,6.69-10.92,2.14-2.53-3.91,4.58-5.91,6.15-9.26,3.42-7.27,10.52-9.49,16.25-13.62-2.1-.98-4.25-1.89-5.69-3.73-.08.06-.15.12-.23.17-5.34,7.05-12.87,9.6-21.27,10.49-4.3.46-8.4.7-12.12,4.16-2.69,2.49-7.29,2.67-11.33,1.97-.08-.01-.16-.02-.24-.04-.91.99-3.02,2.1.59,2.52,3.88.45,7.64-.3,11.22-1.9,5.81-5.23,13.5-4.24,21.04-7.22-1.85,7.44-7.52,10-11.7,14.42-.76-3.48,2.13-5.08,2.85-7.53-3.86.87-8.05-.25-11.62,2.09-.05.07-.11.11-.18.11-.68.49-1.35.99-2.02,1.49-.85.62-1.71,1.25-2.56,1.87-.73,5.17-5.65,6.14-9.12,8.58-2.62,3.03-4.68,6.61-8.53,8.39-5.45.15-5.5.14-1.85-8.08-5.45,3.82-10.25,8.69-17.54,11.02-1.95-8.43,2.93-12.05,9.16-14.88.01-1.05.03-2.1.04-3.14-2.61-1.27-4.52.77-6.73,1.41-5.58,4.33-11.98.91-17.83,1.17-6.97.31-8.72.3-9.03,7.72-.08,2.08-2.16,4.07-3.68,6.7-5.03-6.26-10.2-10.82-17.3-3.63-1.61,1.79-3.84,1.93-4.85.06-1.75-3.25-.08-6.24,2.14-8.84.35-.14.71-.28,1.06-.42.69-3.04.22-3.21-6.23-4.31.03,3.63-4.08,3.76-5.81,3.77-3,.01-2.6-3.41-1.61-6.24-7.32,2.12-1.79,8-4.21,11.35-.44.62,3.3,2.91-.06,4.37-2.24.97-3.51-.46-4.86-2.16-1.23-1.56-2.34-5.08-4.88-3.18-2.32,1.75.08,3.64,1.56,5.47,2.44,3.01,1.6,4.7-2.62,4.63-4.59-.08-4.37.2-5.8,5.83-.13.5-1.71,8.83-7.04,3.4-3.24-3.31-5.39-1.23-7.69,1.25-1.12,1.2-.23,5.09-3.34,3.44-3.3-1.76.26-3.72.72-5.59.16-.64.89-1.14,1.49-1.87-4.95-3.53-11.8,1.8-15.85-3.92-.61-1.1-1.67-1.76-2.74-1.28-1.18.54-1.04,1.79-.55,2.9-.36.41-.72.82-1.08,1.23-2.98-6.09-10.02-3.09-14.26-6.37-4.14,2.57-.6,5.99-.94,9.69-4.49-2.59-7.69-1.59-9.68,3.06-.86,2.01-2.5,3.67-3.48,5.65-.5,1.01-4.38-.89-1.96,2.4,1.01,1.39.64,4.64,3.98,1.85,1.05-.87,1.7,1.54,1.79,2.91-4.74,4.25-10.46-.48-15.43,1.7-.9,1.67-4.29-2.18-4.47,2.71-.26,6.68-7.46,4.37-10.71,4.53-4.32.22-2.85-4.9-2-8,.58-2.12,1.56-4.15,2.66-6.09,2.75-3.77,6.58-3.6,9.76-2.95-1.72-3.13-9.46-3.37-5.2-10.44,3.9-1.02,1.72-3.37.68-4.74-1.85-2.47-2.02-4.24.88-5.78,0,0,0,0,0,0,4.03-1.49,4.39-2.18,3.91-6.46-.23-2.05,1.42-3.42,2.84-3.75,8-1.79,8.03-1.67,14.49-10.5,1-1.36,2.47-1.31,3.8-1.22,7.09.49,13.04-3.07,19.13-5.69,2.74-1.18,4.01-2.77,6.79.24.74.8,5.85-2.27,8.85-3.76,1.03-.51,1.59-2.73,3.04-.65.93,1.34-.46,4.89,2.9,3.78,2.95-.97.5-3.99,1.2-6.04.48-1.41-.32-3.25-.55-4.91-.01,0-.03.02-.05.03,0-.01,0-.02,0-.04-2.69.41-5.67-.03-5.39-3.13.28-3.13,4.85-.39,5.75-3.9,2.07,3.22-.8,4.89-.35,7.02.02,0,.03,0,.05,0,0,0,0,.01,0,.02,7.23-4.64,14.96-1.67,17.1,6.59.5.14,1.01.14,1.51.01,1.7-1.59.34-3.66,1.01-6.58,2.26,3.26,4.06,5.87,5.87,8.48,2.39,1.47,5.08-.53,7.14,1.43,2.19-4.7-9.05-3.29-2.95-9.76,3.93-4.17,5.65-4.66,8.13.47.07.14.55.19.77.1.23-.1.38-.4.57-.61,2.21-4.1-1.99-5.37-3.47-7.83.31-.44.55-.89.76-1.35-.3.28-.56.7-.76,1.34-1.86-1.16-3.71-2.33-5.68-3.56,1.51-1.57,2.99-3.12,4.48-4.68-3.02-.82-6.1-1.55-9.15-1.7-6.09-.29-10.81-2.4-14.14-7.64-2.1-3.3-4.53-4.57-8.24-1.43-3.24,2.73-7.7,3.49-11.49,5.39-1.01.5-2.07,1.07-3.2,1.05-5.41-.1-5.35-.1-8.08,5.42-2.1,4.27-4.41,6.58-9.94,3.77-4.1-2.07-9.08-2.38-13.47-4.54-4.26-2.1-8.37-.17-11.47,3.19-3.15,3.42-6.35,4.4-10.41,1.55-3.96-2.78-6.85.1-9.91,2.1-3.29,2.14-7.67,5.76-10.56,2.27-3.03-3.65,2.13-7.28,3.93-10.76.13-.25.29-.47.48-.67-5.61,2.42-11.58,1.1-17.51-.62-3.6-1.04-4.4,1.44-5.72,3.55-1.79,2.89-3.53,5.88-6.51,7.73-4.91,3.05-9.68,2.97-13.89-1.32-1.92-1.96-3.42-4.59-6.72-2.81,2.46,1.45,2.6,4.68,4.11,6.82,2.42,3.42-1.04,4.5-3.54,4.47-3.48-.05-6.6,6.33-10.26.68-1.37-2.11.86-1.94,1.92-2.56,3.6-2.08,6.65-4.58,6.65-9.09-.49.09-.99.16-1.5.17-12.42-3.73-23.08.41-33.19,7.31-3.17,2.17-6.93,2.18-10.62,2.41-6.82.43-13.11,2.41-18.66,6.25.55,2.35,2.38,2.77,3.42,2.27,11.53-5.54,22.06,1.13,32.94,2.7,5.35.77,10.65,1.93,15.97,1.13,6.02-.91,11.75-1.34,17.23,2.05,2.02,1.26,4.67,1.44,6.39-.29,8.76-8.82,21.63-4.56,31.61-10.16,4.58-2.57,14.55,5.89,15.11,11.57.37,3.75-2.37,5.6-5.22,6.97-4.65,2.23-6.59,4.78-3.13,9.83,3.08,4.5,1.49,7.57-4.14,7.85-5.44.27-10.71.67-14.71,5.17-1.36,1.52-3.62,2.08-5.53,1.44-10.53-3.47-22.57-2.68-31.1-11.87-4.09-4.41-10.18-2.22-15.44-2.55-4.16-.39-8.24.78-12.39.69-.56-.31-1.14-.59-1.71-.89-4.16,3.5-9.76.88-14.27,2.92-14.41-.83-28.62,3.91-43.09,1.7-.59-.57-1.17-1.05-1.73-1.44-4.01.88-8.01,1.75-12.01,2.63-.47.46-.94.93-1.41,1.4-1.17.48-2.39.57-3.64.41-.23-.05-.46-.1-.69-.15-1.8,1.97-3.57,3.92-5.22,5.73,12.36,7.6,24.71,4.43,37.05.29-.29,2.78,3.85,3.45,3.07,6.46-9.53,2.63-19.1,2.17-28.68.34,1.74,1.28,3.48,2.57,5.62,4.15-13.2,3.52-23.77-3.27-34.88-7.44-1.04-.57-2.09-1.15-3.13-1.73-.78.51-2.7-2.61-3.16,1.14-.41,3.29-4.15,3.8-7.07,5.07,1.37.14,2.73.31,3.59,1.75-2.36,2.53-6.59,2.35-8.6,5.4,5.14-.07,10.82-4.62,15.2,1.84,1.18,1.51,4.23.55,4.44,3.21.15,1.88-1.69,2.35-2.87,2.49-12.92,1.45-25.89,3.01-38.43-2.12-.58-.23-.55-1.95-.8-2.97-3.97-.35-7.94-.7-11.91-1.05,1.43-2.49,6.47-.94,5.9-6.06-3.7,1.37-6.13-1.17-9.23-3.03,2.69-2.56,5.58-3.53,8.49-4.46,4.06,1.69,8.12,3.39,12.63,1.66,1.73,6.48,10.78-4.53,11.35,4.74.66-1.08,1.5-1.83,2.49-2.31-3.28-1.45-7.34-2.04-6.59-7.94.25-1.96-4.25-1.14-6.09-.56-5.49,1.73-5.53,2-5.4-3.92-.5.02-1,.03-1.5.05-2.05-.15-4.27-.11-3.5-3.28-3.09-3.58-8.24-2.61-11.73-5.29-3.9-1.19-7.8-2.37-11.7-3.55-.12-6.34,4.67-6.69,9.05-7.13,5.5-.54,11.09.47,16.55-.78,4.17-1.47,8.94-.22,13.12-1.73-7.81-.43-15.6-.49-23.4.25-10.56.75-21.03,2.82-31.67,1.67-4.12-.65-8.19-1.7-12.38-1.95-.65-.16-1.32-.34-1.94-.57-1.69.87-3.88.79-5.35,2.1-1.84-1.4-3.34-3.15-4.89-4.84.05.2.09.42.1.66-1.61,2.24-3.53,2.23-5.63.77-3.38-2.25-8.16-2.43-10.11-6.81-10.84-3.97-22.18-4.97-33.56-5.95-4.67-.41-9.26-1.65-13.88-2.51-1.28.52-2.57,1.53-3.84,1.49-.96-.03-1.92-.04-2.88-.06-8.89,1.68-17.91.49-26.87.33-.5,0-.98-.08-1.45-.2-9.26.27-18.52.72-27.77,1.22-.68.04-1.41-.67-2.11-1.02-.98-.02-1.97-.05-2.95-.08-9.26,1.57-18.49,3.85-27.92,2.31-.75.43-1.54.78-2.41.97-.79.17-1.58.27-2.39.32-1.11.07-2.24.13-3.34,0-1.68-.2-3.98.07-5.67-.31-1.24-.01-2.48,0-3.69.16-2.95.39-5.8-2.46-9.05,1.04-1.59,1.72-2.13-.31-3.07-1.77-.32-.02-.64-.04-.97-.1-.77.25-1.55.42-2.35.57-2.06.36-4.17.33-6.27.31-6.05,2.09-11.8,5.04-17.97,6.78-6.87-3.36-13.75-6.73-20.85-10.21,2.85-3.69,9.56,3.03,10.38-2.83-.24-.14-.49-.28-.73-.42-5.81-1.88-10.05-8.68-17.45-5.48-.14.06-.27.13-.4.2-.32,5.25.43,5.14,8.67,3.82-6.35,3.87-3.53,6.76.67,9.08-4.45,2.12-5.57-1.7-8.29-1.7,1.41,7.71,9.13,3.97,13.13,7.12-1.74,3.18-4.43,3.98-7.54,4.01-4.22-4.27-9.48-5.46-15.25-5.15-8.99-.69-15.52,5-20.23,17.84-.33.9-.49,1.63-1.22,1.87-.52.62-1.2.94-2,1-.51-.13-1.02-.25-1.53-.36-2.4,1.15-4.79,2.31-7.19,3.46-3.65.04-4.93-2.1-5.24-5.12-1.07.59-2.31.62-3.5.84-4.96,1.48-10.12,1.94-13.97,6.51-2.94,3.49-7.72,1.96-11.81,1.63-8.9,1.34-16.93-.32-24.88-5.01-5.61-3.31-9.47-6.87-9.98-13.47,0-.24,0-.47,0-.71-3.02.96-1.34,3-.16,4.92-2.8,4.38-5.73-1.18-8.57.12-3.98-.44-8.27-4.33-11.65,1.56-.87,1.52-3.67,2.15-5.11.18-2.11-2.88-5.22-5.78-2.68-9.76-.67-.25-1.22-.63-1.64-1.18-2.01,5.61-5.47,9.88-11.45,12-6.25,2.23.44,1.85.72,2.54,1.2,2.95-1.43,2.26-2.49,3.03l-.75-.04-.73.19c-.73.36-1.47.37-2.21.01-.03-.02-.05-.04-.08-.06-3.78,2.45-7.88,2.31-12.1,1.3-.07-.03-.14-.06-.2-.08.6,1.64.23,3.02-2.3,3.84-1.25-.12-2.5-.23-3.76-.35-2.26-.18-4.42,2.61-6.75.21,3.12-2.19-1-4.64.5-7.29,2.03-1.05,2.79,2.09,4.61,2.02.49-1.24.98-2.48,1.47-3.71.04-.97.09-1.93.13-2.9-1.02-.63-3.83-.95-3.15-1.18,7.46-2.54-1.08-5.17.24-7.51,0,0,0,0,0-.01,0,0,0,0,0,.01-1.24.01-2.47.03-3.71.04,0,.02,0,.04,0,.06-.02-.02-.03-.03-.05-.05-.42.73-.67,1.77-1.3,2.12-1.81.99-2.31,5.57-5.61,2.48-1.53-1.43-1.3-3.12.42-5.08,2.78-3.19,4.51-1.74,6.49.49,0,0,0,0,0-.01.02,0,.03,0,.05,0,.48-3.79,1.77-6.51,6.01-5.35-.41-4.05,3.83-5.62,5.31-8.73-3.44-2.85-6.51-1.49-9.76-.4-7.18,2.42-7.64,2-7.37-5.63.08-2.24-.07-4.49.14-6.86-1.49,5.31-.42,12.65-9.96,10.95-2.88-.51-3.86,3.73-5.73,5.75-3.63,3.93-6.32,5.65-10.61.17-4.34-5.54-14.21-5.55-20.6-.92,2.06,1.19,3.02-.73,4.24-1.19,2.09-.79,3.9-.73,5.32,1.11,1.31,1.7.38,3.2-.66,4.59-2.16,2.87-3.69,7.02-8.2,6.33-8.44-1.29-16.83-2.46-25.78-.09.17,3.09,2.9,4.67,6.32,5.5,4.71,1.15,7.24,4.08,7.64,8.88-.08.31-.19.6-.33.88,4.73-2.52,4.56-2.63.67-5.43-.65-.47-1.4-1.12-1.58-1.83-.71-2.72-5.04-4.32-3.74-6.96,1.82-3.69,5.26.23,8.02.15,2.49-.08,4.92,2.97,8.15.36,1.36-1.11,2.26.84,2.88,2.11,2.64,5.44-1.72,9.27-4.32,12.27-1.54,1.78-7.04,4.56-10.47-.02-.14.18-.29.35-.46.51-7.91,4.37-17.15,4.68-25.31,8.29-2.25,1-4.39.22-6.6-.24-2.57-.53-5.7-.62-6.96,1.71-3.66,6.75-9.54,4.11-13.67,2.43-4.33-1.76-7.51-3.06-11.43.16-2.74,2.25-5.94.81-8.97.49-9.96-.85-19.79-3.01-29.95-1.9-2.36.26-6.93-.46-7.2-4.11-.34-4.53,4.11-4.22,6.88-4.06,4.28.24,4.39-2.45,4.86-5.24.97-3.52,6.25-.9,6.91-4.85,3.71-1.74,6.96-5.94,11.69-2.18.02.05.04.1.06.16.13-.27.26-.55.39-.83,2.34-1.27,4.73-1.28,7.16-.33.46.55.92,1.01,1.38,1.43,2.99-.29,6.09.17,9.05-.31.57-.59,1.13-1.27,1.68-2.06-5.84-4.85-12.27-2.62-18.22-.99-5.98,1.64-10.45.9-13.83-4.46.03-.39.12-.73.25-1.05-.54-.42-1.07-.84-1.61-1.27.86-3.35-4.41-7.36.21-10.3-1.2-.63-2.16-1.44-1.95-3.17-.63-.61-1.07-1.4-1.59-2.11l.19-.22c-.63.11-1.25.22-1.88.33-4.53.21-9.05-.28-13.58-.27-3.66-.72-6.79,1.16-10.12,2.07-.56-.61-1.21-1.15-1.65-1.84-.86-1.36-1.61-2.79-2.47-4.31,8.99.66,17.49-1.16,26.02-2.55.43-.07.74-.28.97-.56-.02-.3-.05-.6-.09-.89-.19-.44-.37-.88-.55-1.32-3.36,1.43-7.26,2.04-9.8.65-7.82-4.29-17.02-2.47-24.63-6.73-4.17-.29-8.34,2.16-12.51,1.15-.76.23-1.5.5-2.22.85-1.88.93-3.83,1.49-5.96,1.22-.3-.1-.59-.18-.89-.23-3.88,2.07-8.23.49-12.33.88-.23-.53-.32-1.08-.26-1.65-5.47.54-10.95,1.08-16.42,1.62-10.67,3.64-22,2.5-32.94,4.68-13.29,2.66-26.88,3.83-40.34,5.65-3.14,6.28-9.39,9.54-14.1,14.29-1.04,1.04-4.37,5.1-4.73-.95.6-1.27,1.96-3.31,1.44-3.78-9.24-8.35.46-16.09.66-24.08.03-1.07.82-2.07,1.36-3.05.15-.29.31-.58.46-.87-.98-.17-1.55,1.22-1.86,2.11-3.41,9.72-10.04,18.09-11.62,28.62-.5,3.29-2.8,5.94-6.72,6.17,1.13-4.64,4.34-8.62,4.37-13.61-2.16-.11-1.69-5.29-3.39-3.14-2.32,2.94-6.4,7.04-4.8,10.56,1.96,4.31-1.27,4.47-2.68,6.23-3.42,4.27-3.56-2.86-6.09-1.77-.98-1-1.07-1.99-.26-2.96-1.5.33-2.33-1.12-3.48-1.71-5.13-.53-11.17,7.11-15.38-1.72-1.38-.91-2.89-1.64-4.02-2.92-1.82-2.07-4.23-4.1-2.86-7.21,1.26-2.86,3.79-2.49,6.2-2.25,1.67-3.84-1.59-8.11.86-11.88,4.53-9.53,9.13-19.02,13.5-28.62.55-1.22,1.71-3.45-.3-4.35-1.36-.6-2.39.97-2.84,2.4-.63,4.18-5.11,3.44-8.29,7.49,3.22-10.05-4.11-3.29-5.46-5.94-2.65,1.5-.33,5.9-4.55,6.96.49-2.47.91-4.72,1.39-6.96,1.84-8.55-3.73-13.96-12.37-11.86-3.81.92-7.94-.37-11.54,1.79-.91.81-2,.93-3.14.86-1.32-.09-3.22.37-3.41-1.45-.27-2.56,2.4-1.57,3.62-2.4,10.16-2.49,19.56-7.52,30.03-8.96.4-3.29.37-6.67,2.53-9.54.83-1.1,1.47-2.87-.33-3.44-1.03-.33-2.5.72-3.78,1.15h-4.91c3.49-3.8,8.53-4.05,11.79-6.76-15.19,3.64-30.79,4.66-46.15,7.17-.5.16-.91.36-1.27.6.57,3.64,2.98,6.45,5.21,9.34-.23.49-.28,1.01-.15,1.53-2.57,1.72-3.09,2.08-4.25.43-3.44-4.94-.81,3.68-2.91,1.21-2.98.64-4.04-.49-3.15-3.42-.64-.89-1.44-1.7-1.9-2.67-2.26-4.84-6.74-6.1-10.39-3.62-2.97,2.01.83,5.46,1.75,8.24,1.24,1.17,1.31,2.39-.27,3.14-1.44.69-1.75-.63-2.05-1.66-2.47-7.39-8.22-9.62-17.11-7.38-4.87,1.22-10.84,8.64-14.82-1.81-.27-.71-5.27.39-8.64.86v935.37h1920V58.01c-.06,0-.13.02-.19.02ZM1145.73,207.3c-1.75,0-4.33.99-4.73-1.82-.27-1.92,1.57-2.77,3.3-2.98,1.96-.24,3.93-.19,4.89,2.05-.14,2.25-1.79,2.75-3.46,2.76ZM1196.95,193.9c4.37-.91,7.25,1.3,11.8,4.4-6.45.9-8.11-3.89-11.8-4.4ZM94.41,185.43c-.97-.2-1.94-.4-2.92-.6.9-4.16,1.8-8.31,3.04-14,3.97,6.76-2.53,9.76-.12,14.6ZM458.74,248.66c-2.83,2.39-2.27-2.25-4.08-2.18,1.6-8.02,8.22-7.31,14.01-8.07-1.86,4.81-6.29,7.17-9.93,10.25ZM475.48,249.45c-2.32.52-4.86,2.55-6.99.2-2.16-2.39.65-4.47,1.19-6.69.38-1.59,1.13-3.09,1.71-4.62,1-.45,2.89-.95,2.86-1.34-.48-9.01,6.09-2.18,8.95-3.74,1.59-.87,2.31,2.28.78,3.36-6.63,4.67-2.66,7.42,1.59,10.24-.45,1.1-.61,3.81-1.56,2.92-3.05-2.85-5.67-.97-8.53-.33ZM482.42,264.35c1.35-3.08,4-4.28,6.27-5.84-.01-.03-.02-.06-.03-.1l.08.06s-.04.02-.06.04c1.76,5.88,1.72,5.88-6.27,5.84ZM682.53,281.66c-2.84-1.18-9.14.49-8.43-6.14,10.21,2.3,20.42,4.59,30.63,6.89-7.53,4.05-15.19,2.16-22.2-.75ZM812.03,262.09c-3.9-.06-6.7.68-7.11,5.12-5.33-2.98-13.06-.18-16.78-8.08-.99-2.1-7.81-1.39-11.92-2.13-1.84-.33-5.25.95-4.24-3.11.68-2.74,2.26-3.52,5.53-3.49,11.72.1,23.06,2.41,34.05,5.87,6.87,2.16,14.91-.32,20.76,5.44-6.76.15-13.53.49-20.28.38ZM1121.66,261.08c-.72.97-3.01-.51-2.69-1.96.59-2.72,2.18-6.34,5.12-5.44,2.52.77,6.62-1.98,7.94,3.35-2.56,2.92-7.72.5-10.37,4.05ZM1141.15,247.82c-3.88,1.09-8.37.86-12.41.15-1.72-.3,1-1.79,1.17-2.94,3.32-1.9,7.44,1.07,10.6-1.75,1.67,1.38,4.34,3.49.64,4.54ZM1153.85,280.73s-.2-.29-.2-.29c4.45-1.71,8.69-5.01,13.77-1.98.4.24.22,1.43.32,2.18-4.63,0-9.25,2.19-13.89.1ZM1186.12,282.2c1.28-5.52,9.7-12.02,14.35-9.36,6.33,3.63,8.76.2,11.81-3.53,1.68-2.06,3.69-2.37,6.05-2.07-7.37,12.23-19.65,13.9-32.21,14.95ZM1335.97,262.31c-.17,3.78-4.76,2.39-6.06,5.48-2.1-3.69-5.56-5.15-8.66-7.23-1.9-1.28.71-3.1,2.84-3.29,3.86-.35,6.88,3.29,11.21,1.97,2.02-.61.72,1.93.67,3.07ZM1477.13,236.18c-.63-2.62-4.48.11-4.86-2.93.91-1.99,2.33-2.93,4.55-2.17,1.72.06,3.44.12,5.16.19-.68,2.56-2.29,4.2-4.85,4.91ZM1746.79,233.84c17.09,4.84,32.16,13.91,48.27,23.14-7.22,1.49-32.7-10.85-48.27-23.14ZM1856.31,103.85c-1.06.08-1.91-.21-1.74-.81,1.15-3.94,3.88-6.5,9.26-8.85-2.02,5.14-2.28,9.27-7.52,9.66Z"/>
      <path class="cls-1" d="M1301.4,235.92c-.57-.43-1.1-.91-1.59-1.45-.44,1.18-.02,1.68,1.59,1.45Z"/>
      <path class="cls-1" d="M1323.52,224.1c-.01-.13-.03-.25-.04-.39-.14.1-.27.19-.41.28.15.04.3.08.45.11Z"/>
    </g>
  </g>
</svg>