<?xml version="1.0" encoding="UTF-8"?>
<svg id="Capa_2" data-name="Capa 2" xmlns="http://www.w3.org/2000/svg" viewBox="0 0 137.11 136.49">
  <defs>
    <style>
      .cls-1 {
        fill: #fff;
      }
    </style>
  </defs>
  <g id="Capa_2-2" data-name="Capa 2">
    <path class="cls-1" d="M132.84,44.47h.08C117.64,2.44,64.28-13.45,28.26,12.79-16.63,47.85-6.41,114.75,47.38,134.07c.21-.15.27-.39.17-.63-3.57-2.5-5.63-6.74-6.68-10.86,5.41,6.48,13.16,10.83,21.3,12.86,1.98.47,4,.67,6,1.05.5.07.81-.76.37-1.02-.3-.17-1.64-.16-2.05-.22-.44-.06-.89-.23-1.31-.35-10.5-3.22-20.35-9.76-26.03-19.32-.55-.74-1.4-3.67-2.44-3.26-.78,4.08-.41,8.4.75,12.37-14.36-7.29-25.43-20.91-30.14-36.27,0,0,.03.02.04.03-.06-.07-.13-.14-.21-.2C-4.13,54.12,16.61,15.7,51.33,6.44c34.43-9.64,70.69,11.65,79.08,46.39,6.09,23.51-2.43,51.66-22.57,65.9-2.06,1.35-4.47,2.66-7.01,2.45-16.94-1.71-15.62-29.09-25.65-28.92,2.03-2.11,4.14-4.14,6.21-6.2,1.56-1.46,2.94-3.48,4.96-4.29.37.07.98.13,1.22.45.22.35.62.38.91.08.66-2.97-2.22-5.89-5.01-3.94-3,2.89-7.23,8.16-10.11,11.21-.06-5.63.11-14.68.12-20.42,3.44-2.93,8.46-4.67,12.94-4.95.89,2.11,1.62,4.32,2.4,6.48-3.96,2.02-2.74,5.08,1.55,4.88,2.22,5.41,4.91,13.48,7,19,1.24,3.33,2.94,6.93,1.77,10.52-.25.78-1.39,1.72-1.37,2.39.34.61,1.66.19,2.24.23.95-.15,5.04-.2,5.89-.47.72-.18,1.41-1.23,2-1.27,2.6,1.67,6.53,2.32,9.61,1.68.31-.06.57-.13.75-.42.03-.58-.69-.76-1.11-.99-4.46-3.32-7.61-9.88-9.81-15.12-2-4.27-3.95-8.68-5.91-13.05l-2.58-5.63c-.32-.47-.54-1.1-.75-1.65,1.8-2.09.2-4.19-1.69-5.42,2.67.76,5.4,1.75,7.72,3.31,1.55-.03,1.4-1.82.98-2.87,3.15,1.4,6.29,3.53,9.87,2.38,1.59-.48,2.97-1.51,3.76-2.99.29-.54.67-1.48-.08-1.76-3.21,2.02-7.63,1.06-10.7-.82,0,0-1.86-.78-4.33-1.52-1.8-.48-3.6-1-5.41-1.4-1.86-.41-3.78-.41-5.65-.68-6.39-13.63-14.2-31.28-20.23-45.12-.41-1.31-.32-2.86.3-4.1.25-.44,1.06-1.16,1-1.67-1.12-1.49-3.45-.41-4.83.14-1.33-.53-3.84-1.67-4.85-.09.06.58.72,1.12,1.02,1.62,1.36,2.55-.11,5.44-1.25,7.78-5.53,12.04-12.99,29.57-18.69,41.43-1.98.27-4.01.29-5.97.74-1.03.24-2.05.51-3.08.79-2.26.6-6,2.06-6,2.06-2.79,1.67-7.58,2.98-10.41.88-.26-.01-.4.02-.64.12-.3,2.19,2.15,3.98,4.03,4.57,3.58,1.15,6.72-.98,9.87-2.38-.44,1-.52,3.12,1.11,2.8,2.27-1.54,4.98-2.48,7.6-3.23-1.85,1.22-3.46,3.26-1.76,5.34-.24.57-.47,1.27-.81,1.81l-.43.95c-.71,1.57-1.38,3.11-2.12,4.72l-.02.04h0c-2.95,6.45-6.03,13.15-8.88,19.44-1.6,2.93-3.63,5.69-6.02,8.03-.54.72-1.41.54-1.75,1.08-.55,1.29,2.76.99,3.47,1.06,2.72-.03,4.75-.53,6.98-2.08,1.25,1.89,3.12,1.61,5.11,1.8,1.54.06,3.24.59,4.73.16.02-.52-1.1-1.6-1.36-2.21-1.12-2.89-.08-6.16,1.01-8.9,1.12-3.05,6.41-17.56,7.63-20.9.93-.04,1.89,0,2.75-.39,2.61-1.35,1.15-3.69-.91-4.64.73-2.02,1.37-4.14,2.27-6.09l.51-.31c4.06.36,8.81,1.88,11.97,4.52.23.71.47,1.42.52,2.16.13,6.7.12,21.19.19,28.08.04,4.14.07,8.29.07,12.43.21,4.26.26,8.72-1.91,12.56-.45.89-.99,1.71-1.62,2.48-.34.43-1.06.84-.91,1.46,2.86,1.16,6.51.56,8.7-1.67,2.22,2.21,5.8,2.83,8.69,1.67.03-.28.01-.4-.17-.62-2.03-2.05-3.29-4.82-3.94-7.61-.95-7.45-.07-15.34-.24-22.88.57-.35,1.06-.62,1.71-.78,2.85,1.3,3.73,4.42,4.85,7.1,3.94,8.06,4.89,18.56,14.08,22.6,18.64,7.67,36.02-23.94,40.28-38.42,4.11-14.18,3.99-29.07-1.38-42.89ZM69.04,65.31c-4.75-3.09-10.46-4.1-15.92-5.35,5.01-13.81,10.85-29.65,15.91-43.43h0c4.88,13.33,11.03,30.11,15.91,43.44-2.08.48-4.12,1.12-6.24,1.45-3.36.84-6.85,1.79-9.66,3.89Z"/>
  </g>
</svg>