<?xml version="1.0" encoding="UTF-8"?>
<svg id="Capa_2" data-name="Capa 2" xmlns="http://www.w3.org/2000/svg" viewBox="0 0 1920 1011.3">
  <g id="Capa_1-2" data-name="Capa 1">
    <g>
      <path d="M1326.21,947.24l.12,3.21,4.46,1.04c.43-2.58-1.67-4.57-4.58-4.25Z"/>
      <path d="M1338,930.15c-6.49-2.92-7.93.99-7.21,6.37l7.25-.74-.04-5.63Z"/>
      <polygon points="1339.95 937.57 1336.73 938.3 1336.3 943.3 1339.03 943.36 1339.95 937.57"/>
      <path d="M1393.19,919.83l10.89-1.27c1.59,2.72,3.9,2.63,2.84,6.55l6.23.12c-.3-3.69,3.74-4.83.03-8.17l2.29,1.77,3.06-.82.17,2.32c3.25.89,7.32,4.74,11.02,2.99.28,0,.64,2.54,3.06,1.62l.07-3.24h2.52s.08-3.24.08-3.24l1.02,1.47,2.52.26v-4.91c2.44-.48,5.07,1.32,7.29.86,1.34-.28,2.9-2.12,5.11-1.35.89-3.94-1.86-1.67-3.6-2.9-1.55-2.13.41-2.75-3.15-3.28-.65-2.41-3.62-1.17-5.65-1.51v3.28c-5.51-.25-10.4-2.08-15.91-.37l-.09,4.02c-2.5-1.66-4.63-.8-5.9-3.48-2.51-.32-5.18,1.09-6.15,3.16-2.13.43-.53-2.53-3.57-1.73-1.41.37-2.17,4.3-2.26,5.68-2.67-.38.83-4.79,0-6.57l-5.39-.16-.02,3.27-8.96.61c.13,2.9.04,2.9,2.42,5.01Z"/>
      <path d="M1379.95,953.31l-.91-5.79c-5.12-.71-5.32,1.96-3.49,5.6l4.4.19Z"/>
      <path d="M1358.19,950.39c-1.44-1.34-4.17,1.08-2.72,2.42,1.44,1.34,4.16-1.08,2.72-2.42Z"/>
      <path d="M1291.1,938.97l3.71.08v-3.34c-3.11-.61-3.5.97-3.71,3.26Z"/>
      <path d="M1346.81,948.51c-.78-1.84-.73-1.93-3.19-1.73v5.8c3.38.81,2.12-2.39,5.47-1.55l.07,2.41,3.57.16.04-5.29-1.85-1.37,2.78-.4-.06-6.18c-5.85-.77-4.92,2.59-3.64,6.55-2.15-.33-2.5-.07-3.2,1.6Z"/>
      <polygon points="1284.58 939.66 1289.24 939.77 1289.24 936.43 1284.58 936.32 1284.58 939.66"/>
      <path d="M1336.41,921.59l9.94,1.18c.61-5.46-5.47-5.28-10.06-5.23-.12,1.31-.11,2.74.11,4.05Z"/>
      <path d="M1321.03,907.2c-1.84.27-3.93-1.23-5.87-1.04v3.33s-3.69-1.76-3.69-1.76c-.78,3.71,1.27,1.88,2.5,2.76.9,3.19,4.76,2.23,7.63,3.34l-5.97-.18c-2.41.05,2.53,5,2.91,5.08,2.14.47,4.79.15,6.74-.66v3.34s7.74-.56,7.74-.56l.53-3.4c.91-.02,1.83.08,2.75.08.21-2.41,1.95-3.22-.92-5.83l2.6-.08c-.23-2.65,2.73-2.04,1.98-4.78-1.55-.23-3.46.22-4.91-.13-.73-.18-.49-1.67-1.14-1.76-.59-.08-11.14.45-11.71.56-.73.14-.49,1.58-1.16,1.68ZM1328.03,912.34l.94-4.13c1.49-.3.53,1.01,1.15,1.47.74.54,2.39-.09,2.57.75l-.07,6.18-1.86-4.19-8.23,1.43c-.2-4.25,4.56-.94,5.5-1.52Z"/>
      <path d="M1329.87,900.75c-1.46-1.36-4.2,1.05-2.75,2.41,1.46,1.36,4.2-1.05,2.75-2.41Z"/>
      <path d="M1311.47,933.58c1.46,1.36,4.22-1.07,2.76-2.43-1.46-1.36-4.23,1.07-2.76,2.43Z"/>
      <polygon points="1388.12 934.89 1384.47 934.45 1385.49 938.47 1388.97 938.66 1388.12 934.89"/>
      <path d="M1392.56,921.87c-.41-1.37-3.19-1.47-4.49-1.35-1.49,5.31,5.65,5.24,4.49,1.35Z"/>
      <polygon points="1390.77 951.06 1386.26 950.97 1386.26 953.44 1390.77 953.53 1390.77 951.06"/>
      <polygon points="1377.23 940.06 1372.41 940.77 1371.81 943.23 1376.71 942.58 1377.23 940.06"/>
      <polygon points="1375.43 918.55 1371.81 918.46 1371.81 920.93 1375.43 921.02 1375.43 918.55"/>
      <path d="M1386.84,912.23l-1.01,1.64c-5.14-3.36-19.95-3.97-20.36,3.59,3.83.75,7.58-1.09,11.26-.51,3.16.5,5.88,4.94,7.33.95,6.61,3.09,4.54-2.99,6.71-3.08-.04-.82.05-1.65,0-2.47l-3.94-.12Z"/>
      <polygon points="1423.01 905.02 1420.34 904.94 1420.34 908.22 1423.01 908.29 1423.01 905.02"/>
      <path d="M1412.3,905.53c-2.93-.38-4.99.03-4.46,3.15l4.46.95v-4.1Z"/>
      <path d="M1437.25,955.29l-.9,4.06,4.43.09c.32-2.67-.18-4.56-3.53-4.15Z"/>
      <polygon points="1410.52 953.93 1414.08 954 1414.08 950.72 1410.52 950.65 1410.52 953.93"/>
      <path d="M1449.11,922.95l.51-3.32-6.57.65c-2.1,3.76,3.53,3.89,6.06,2.67Z"/>
      <polygon points="1345.44 931.05 1341.78 930.97 1341.78 933.45 1345.44 933.54 1345.44 931.05"/>
      <path d="M1142.81,951.97c-1.54-1.39-4.46,1.12-2.91,2.51,1.54,1.39,4.45-1.12,2.91-2.51Z"/>
      <polygon points="1153.49 948.76 1150.07 949.52 1149.62 952.95 1153.49 953.03 1153.49 948.76"/>
      <path d="M1134.05,959.5c2.89-.56,5.77.94,8.31,1.06,3,.14,6.13-1.22,8.97-1.39,1.81-.11,7.39,2.03,6.03-2.21-.8-2.52-12.38-.39-15.04-.32-3.73-.21-8.55-2.25-8.28,2.87Z"/>
      <path d="M1142.81,964.8l5.83.1v-3.41c-3.36-.29-6.48-.44-5.83,3.31Z"/>
      <path d="M1126.28,937.52c-.8-.82-2.85-1.28-3.13-2.96-3.64-1.56-3.59,2.45-3.82,4.43,2.48,1.52,7.74,2.45,6.95-1.47Z"/>
      <path d="M1161.24,961.72c-1.53-1.38-4.43,1.12-2.9,2.5,1.53,1.38,4.43-1.12,2.9-2.5Z"/>
      <path d="M1072.88,945.28l.13-3.34c-9.65-1.56-9.25,6.82-.13,3.34Z"/>
      <path d="M1060.88,943.64c-2.57-1.16-3.71.67-3.79,2.82-.11,2.83,3.94,3.86,3.04,7.3l8.91,1.08-.58-2.67-5.39-.91c5.08-1.21-.88-6.14-2.2-7.62Z"/>
      <path d="M1074.88,956.79c-7.32-2.11-16.18-2.51-10.7,5.91,2.79,4.3,6.15,1.14,10.82,2.64-.09-2.41,1.1-4.11-1.99-4.79l2.03-.91-.16-2.84Z"/>
      <path d="M998.67,899.26v-4.38s-5.08-.14-5.08-.14c-.34,2.67,1.77,4.88,5.08,4.51Z"/>
      <polygon points="1105.58 947.86 1098.75 946.79 1098.81 949.31 1105.64 950.37 1105.58 947.86"/>
      <path d="M1054.09,957.16c1.58,1.41,4.57-1.13,2.99-2.54-1.58-1.41-4.57,1.13-2.99,2.54Z"/>
      <polygon points="1247.25 955.8 1246.26 960.67 1251.84 961.67 1250.78 955.87 1247.25 955.8"/>
      <path d="M1283.66,911.17v3.34s3.72.1,3.72.1c.42-2.6-.9-3.74-3.72-3.44Z"/>
      <polygon points="1018.93 944.3 1019.06 947.68 1024.98 948.78 1024.87 945.39 1018.93 944.3"/>
      <path d="M1289.67,934.01l7.93-.75c.89-3.39-3.74-2.6-2.79-5.91l-5.57.7,3.58-1.69.13-3.23c-6.61-.17-10.14,2.98-9.3,8.98,3.66-.53,3.89.39,6.02,1.9Z"/>
      <polygon points="1164.14 937.02 1164.14 941.29 1168 941.38 1168 937.1 1164.14 937.02"/>
      <path d="M1309.62,911.85v-3.33c-4.68.78-7.62-2.93-12.34-2-.52.1-1.01,2.35-3.26,1.66l-.11,3.21c3.41.14,5.92,2.07,8.75-.19,1.64-.15,4.84,1.17,6.96.64Z"/>
      <polygon points="1293.88 915.62 1290.61 916.35 1290.17 919.7 1293.88 919.8 1293.88 915.62"/>
      <polygon points="1183.41 950.21 1183.41 952.76 1187.25 952.83 1187.25 950.29 1183.41 950.21"/>
      <polygon points="1219.73 958.95 1214.95 958.46 1215.59 961.01 1220.65 961.95 1219.73 958.95"/>
      <path d="M1275.27,961.27l3.72.07v-3.35c-3.13-.6-3.52.98-3.72,3.28Z"/>
      <path d="M1305.93,922.97c.38-2.63-.1-5.37-.96-7.89-10.66-1.15-.48,11.45.96,7.89Z"/>
      <polygon points="1281.82 939.17 1278.07 938.69 1278.61 941.27 1282.72 942.14 1281.82 939.17"/>
      <path d="M1284.62,924.87c.41-2.12-.97-6.12-.03-8.65l-3.31.74-.36,3.79c-10.28,1.6-1,3.11-2.85,7.05,1.52,1.33,6.46-2.46,6.55-2.92Z"/>
      <path d="M1868.97,873.37c-1.22-1.25-3.52.94-2.3,2.2s3.52-.95,2.3-2.2Z"/>
      <path d="M1865.12,877.04c-1.22-1.25-3.52.95-2.3,2.2,1.22,1.25,3.52-.95,2.3-2.2Z"/>
      <path d="M18.74,1004.19c-2.12-1.61-6.12,1.35-4,2.96,2.12,1.61,6.12-1.35,4-2.96Z"/>
      <path d="M1859.44,878.68c-3.65-3.06-10.67-1.96-14.4-.45-1.73,1.36-.26,4.18-.01,5.98l8.04,1.6c1-2.83,1.79-.63,3.93-.67,2.15-.04,3.85-1.97,7.78-1.33,1.79.3,1.13,1.86,2.35,2.32,2.95,1.1,5.87-.52,5.69-3.5l.75.03.48,1.56c4.19-.16,7.38-1.32,11.78-.39,2.16-5.34-8.82-8.43-9.56-4.87-2.41.39-1.67-1.43-2.41-1.62-1.63-.42-4.16-.02-5.94-.11l-2.48,3.59c-1.89-.79-5.34.05-5.98-2.13Z"/>
      <polygon points="28.1 1005.27 21.42 1005.22 22.94 1011.11 28.09 1011.3 28.1 1005.27"/>
      <path d="M46.14,993.57c.72-.08-.12,2.76,3.88,1.93l2.01-4.96c-3.51.23-14-3.04-11.94,2.35.7,1.82,4.29,1.72,6.06.69Z"/>
      <polygon points="41.39 980.4 41.39 984.39 53.34 984.54 53.33 981.57 41.39 980.4"/>
      <polygon points="1752.98 900.28 1760.16 899.71 1760.16 896.63 1752.99 897.19 1752.98 900.28"/>
      <path d="M1767.17,904.03c-2.47-1.27-2.05,1.12-2.73,1.26-1.67.32-4.05-.38-5.87-.18l.92,4.56,7.03,1.06c-.79-3.52,5.55-2.89.65-6.7Z"/>
      <path d="M1819.4,876.24l-.81,6.08,3.81.03c.28-2.21,2.14-3.61,1.66-5.97l-4.66-.14Z"/>
      <path d="M1784.9,904.09c-1.22,4.13,3.3,3.38,5.63,4.31.73.29.68,1.45.96,1.54,2.79.93,1.95-1.57,1.98-3.04l1.27,1.61c7.68.91,15.25,1.88,9.62-8.12-.62-.45-7.52,1.83-9.33.79-1.57-.9.53-3.54,0-5.03l-3.15-.11c1.13,4.21-2,2.88-1.66,6.01-.55.49-4.49-.85-5.34,2.02Z"/>
      <path d="M1821.72,917.71c1.24,1.25,3.57-.98,2.34-2.23-1.24-1.25-3.57.98-2.34,2.23Z"/>
      <path d="M405.69,886.07c-1.7,3.92,5.34,4.37,6.55,1.19l4.28.99c.12-.92-.16-1.95,0-2.85-4.78-5.54-4.55,2.45-10.83.66Z"/>
      <path d="M710.12,901.23c-2.58,2.12-8.04,1.44-7.73,5.35-.48.37-1.93,0-2.74.42-.58.3-.15,1.2-1.46,1.5.08.85-.23,2.1,0,2.74l1.11.94c1.05.68,2.42,1,3.73,1.08l3.87-2.88-.94-4.43,6.54.08,1.2-7.19c-4.95-.87-2.45,1.12-3.57,2.38Z"/>
      <path d="M331.47,894.68l-4.92-.13v3.85c3.79.52,5.46-.75,4.92-3.72Z"/>
      <polygon points="1566.64 923.45 1566.64 920.25 1564.09 920.18 1564.09 923.38 1566.64 923.45"/>
      <polygon points="105.94 957.43 111.08 955.94 109.85 952.54 105.94 952.46 105.94 957.43"/>
      <polygon points="481.99 862.64 485.52 862.75 485.52 858.99 481.99 858.88 481.99 862.64"/>
      <polygon points="9.39 1010.11 8.04 1004.08 0 1005.01 0 1005.04 1.35 1011.05 9.39 1010.11"/>
      <path d="M765.23,923.74c.04,2.75.43,5.06,4.25,4.67l.1,3.58c3.79.77,3.96-.81,3.24-3.83-.06-.27-4.27-3.96-4.57-4.08-.26-.11-.51-.18-.76-.23-.55-.03-1.1-.07-1.65-.11-.2,0-.39,0-.6,0Z"/>
      <path d="M1249.02,938.04c2.81.25,4.78.64,3.76-2.44-1.25,0-2.51-.07-3.76-.08v2.52Z"/>
      <path d="M698.19,911.24l-3.33-.08v3.65s4.43.11,4.43.11v-2.74c-.06-.04-1.08-.88-1.11-.94Z"/>
      <path d="M726.92,920.13c1.75-1.41-1.56-4.2-3.3-2.81-1.74,1.4,1.55,4.22,3.3,2.81Z"/>
      <path d="M698.2,904.84c-12.7-1.95-11.73,6.52,0,3.66-.11-1.21.09-2.45,0-3.66Z"/>
      <path d="M1700.56,885.38c-1.29-1.28-3.73.98-2.44,2.26,1.29,1.28,3.73-.98,2.44-2.26Z"/>
      <path d="M1480.39,959.39c1.39,1.31,4-1.06,2.62-2.38-1.39-1.31-4,1.06-2.62,2.38Z"/>
      <path d="M1472.5,956.81c-1.39-1.32-4.02,1.06-2.62,2.38,1.39,1.32,4.02-1.06,2.62-2.38Z"/>
      <path d="M1479.52,948.01c1.39,1.32,4-1.06,2.62-2.37-1.39-1.32-4,1.06-2.62,2.37Z"/>
      <polygon points="1483.89 946.48 1483.89 949.72 1487.38 949.8 1487.38 946.56 1483.89 946.48"/>
      <polygon points="1496.1 962.13 1498.7 962.18 1498.7 958.94 1496.1 958.89 1496.1 962.13"/>
      <path d="M1494.36,952.37c1.38,1.31,3.98-1.06,2.6-2.37-1.38-1.31-3.99,1.06-2.6,2.37Z"/>
      <polygon points="1368.18 919.19 1365.47 919.12 1365.47 922.42 1368.18 922.49 1368.18 919.19"/>
      <path d="M1367.29,950.16s-.92-6.22-.92-6.22c-5.74-2.13-2.33,9.62.92,6.22Z"/>
      <path d="M1359.11,955.37c1.44,1.34,4.16-1.08,2.72-2.42-1.44-1.34-4.16,1.08-2.72,2.42Z"/>
      <path d="M1636.32,921.18l.93-4.62c-7.89-1.84-4.8,6.93-.93,4.62Z"/>
      <polygon points="1360.02 941.32 1363.65 941.4 1363.65 938.93 1360.02 938.85 1360.02 941.32"/>
      <path d="M1366.03,902.54c-1.27.15-.55,4.6-4.2,3.25v2.48s2.6.19,2.6.19l.6,2.43c4.56.92,3.76-1.64,5.38-1.65l6.23,1.15c3.81-6.01,2.77.97,6.46.1,2.17-.51,1.46-4.97.25-6.39-5.59-2.69-11.45.21-17.32-1.56Z"/>
      <path d="M1738.56,900.62l4.01.12c.5-4.26-4.51-4.41-4.01-.12Z"/>
      <path d="M1728.91,885.52l-7.27-.23c-.43,8.22,8.65,8.28,7.27.23Z"/>
      <path d="M1752.18,897.16l-3.99.65-.02-2.32c-4.54-1.46-6.71,5.26-2.67,6.8,3.05.97-.11-1.87,6.61-2.11l.07-3.03Z"/>
      <path d="M1744.98,910.92c1.27,1.27,3.67-.99,2.4-2.26-1.27-1.27-3.67.99-2.4,2.26Z"/>
      <path d="M826.7,901.78v-5.38c-6.21.1-4.86.66-5.34,4.34,1.78.35,3.45,1.15,5.34,1.03Z"/>
      <path d="M1708.74,888.43c1.09-.69.74-2.46.76-3.54-7.72-1.61-4.77,6.07-.76,3.54Z"/>
      <polygon points="1537.58 912.25 1537.55 906.64 1531.57 905.64 1530.71 912.86 1533.09 912.66 1533.66 911.4 1537.58 912.25"/>
      <path d="M1556.79,905.51c-3.84,4.74-17.3-1.02-16.63,5.99,2.88.59,4.84,1.25,7.71.21l.79,2.89,8.6,1.38.86-2.38c-.75,3.79,1.52,1.77,3.23,2.68.18,2.34,5.61,2.74,7.53,3.17,2.22.15,3.33-1.36,5.04-1.44,2.1-.27,8.27,3.9,11.16-.45,5.47-.91,5.28,1.77,8.37-3.03.98-.18,8.16-.2,8.96.24,1.35.74-.1,3.57,3.34,3.17,3.31-.39,1.87-2.4,2.34-2.89h2.71s.59-1.58.59-1.58l.84,2.4c6.9.24,4.13-1.39,4.98-4.89.14-.57,2.91-1.55,2.95-2.84,1.47,2.22-3.24,2.18-2.09,7.09,3.69-.82,6.25-2.08,10.33-1.28l.92-1.58c1.67,3.48,10.99-.2,11.23.32.15.31-.22,1.19.04,1.75.39.81,1.59.68,1.53,1.01-.22,1.24-1.45,2.7-.58,4.25,1.54,2.14,11.25,2.03,11.48.79.39-2.67-1.37-4.82-2.5-7.13l4.94-.24c.92,2.06-1.57,1.31-1.68,1.92-.18.97.3,2.5,1.28,2.79,2.52.75,2.83-2.78,4.95-3.01l.47,2.3,2.83.16.82-2.36.41,3.17,3.29.08c.36-.33-1.21-8.59-1.7-9.68-.22-.5-1.06-.57-1.3-.93-.4-.59-.12-1.6-.44-1.94-.51-.53-3.13.39-2.31-1.38.74-1.61,4.93.45,6.18-1.8.35,2.3,4.38,2.07,6.55,1.76,1.47-.21,2.43-2.07,3.71-1.07,3.06,3.49-2.09,13.92,4.52,13.89,7.34-2.27,3.65-6.76,4.05-12.43,2.27,1.66,4.47-.82,6.13,2.13l-2.45.32c-.47,3.37.5,1.85,2.6,2.63,3.37,1.25,5.18,1.69,8.99,1.47,3.59-1.84,7.43-.51,8.36,3.54l2.82.04-1.22-7.05c1.05,1.41,2.54,2.2,3.86,3.25.97.76.21,1.99,2.62,1.63l.41-1.57.79.02c.17,3.52,4.16,1.85,6.1,2.07,2.87.32,6.98,3.97,8.5-1.62,5.51,2.41,10.72,3.14,9.48-4.36-2.91-1.15-4.13-.77-6.8-.35-.63-2.88-5.14-1.11-6.77-3.62,2.52-2.82,2.33-6.13-2-6.72-5.1-.7.68,6.02.37,6.27-2.28.91-2.38-1.52-2.93-1.64-7.5-1.75-3.39,2.93-11.29,4.37-2.27-2.69-3.31-.64-5.21-1.89-.87-.57-1.13-.95-2.41-.7,2.64-5.17,6.09,3.33,9.03-3.56.56-.39,3.72,2.04,4.73-.32,1.52-2.81-5.46-3.21-6.93-3.67-1.52,0-4.43,3.85-7.3,3.59-.62-2.8-3.27-1.14-5.52-1.68-.39-.09-.91-2.71-3.77-1.69l-.06,3.07-3.96-.12-.06-3.08c-2.17-.29-3.88.78-5.31,2.19l-.92-1.61c-5.18-1.41-2.55,2.55-5.6,3.01-2.83.69-1.97-1.6-2.07-3.23l-6.06-1.02c-1.65,3.94-4.94.85-7.7,1.9-3.58,3.38-.27,2.34-5.52,1.65-1.61.16-2.04,2.03-4.01.69-.87-.59-.33-2.49-3.38-1.59-2.1.62-1.12,2.54-.5,3.84-2.85.69-1.34-3.88-2.58-4.71-5.23-1.84-3.98,2.2-4.95,2.83-1.11.72-4.3-.85-5.98-.74-2.18.14-2.05,1.89-2.84,2.1-2.01.54-5.12.45-7.16-.18l-.58-1.98c1.88-.39,3.5-3.58,4.32-4.14.67-.46,2.93,1.37,3.91.73.61-.39,2.43-4.81,1.78-5.4-.65-.58-16.11-.04-17.31,1.22-.36.37-.19,1.5-.66,2.13-.71.98-2.72.33-2.05,2.72.05.17,2.46,2.2,2.92,2.2l3.77-1.55-.88,5.04,1.71,1.32c-1.48-1.11-6.92-1.6-7.4-1.9-1.03-.67.39-5.01-4.94-2.64-2.18.97-1.41,2.65-2.42,3.37-1.79,1.28-4.08,1.06-6.16.56v2.39s-5.88-.97-5.88-.97l-.03,5.08,1.72.94c-1.71.57-1.95.83-1.71,2.71l-2.5-.05.84-7.14-4.18-.18-.05-2.32c-2.89-.71-3.86.95-5.89,2.21l-.04-2.36-7.52-.32c2.11-9.48-12.28-8.92-8.62.14l2.62.55c-1.06,1.72-3.28,1.22-2.55,3.93-3.26-.9-2.7-1.95-2.55-4.88-6.13-1.28-.57,3.25-8.02,3.69l-.5,2.48c-2.16-.78.87-2.8-3.03-2.53ZM1554.71,912.71c-1.07.5-2.98-1.36-2.56-1.66,1.07-.5,2.98,1.36,2.56,1.66ZM1735.75,908.32c.52.27.52.53,0,.78v-.78ZM1687.11,898.28c.53.28.53.54,0,.78v-.78ZM1682.62,904.43l.81.02v1.56l-.81-.02v-1.56ZM1654.49,904.64l5.11-.87-.83,3.13c-3.81-2.53-5.96,1.4-9.91.49l5.62-2.75ZM1645.52,904.48l1.68,1.28-4.13,3.05-.84-3.98,3.29-.36ZM1641.82,911.14c.54.28.54.54,0,.79v-.79ZM1633.3,906.15c1.08-.29.03-2.24,2.29-1.5-.84,2.5-1.28,2.69-4.16,2.24-.26-1.38,1.05-.52,1.87-.74ZM1614.32,906.41c.48,1.29-1.83,1.95-2.66,2.57-1.59,1.21-1.33,2.96-5.31,1.96-.97-3.14,6.42-1.54,7.97-4.53ZM1605.52,913.31l1.67,1.63-1.68-.04v-1.59ZM1592.05,908.15l1.68,1.64-1.68-.04v-1.59ZM1583.6,910.31v2.39s-.83-.02-.83-.02c.2-1.04-.59-1.8-1.7-1.65v-.78s2.53.07,2.53.07ZM1559.39,912.06l4.69.12c.67,2.94-3.55,1.09-5.1,1.46l.41-1.57Z"/>
      <path d="M1677.25,886.95c-2.62.3-7.79.43-10.66.49-2.5.05-5.17-1.17-6.47-1.08-.78.05-.61,1.91-1.84,2.28-1.38.41-5.86-.38-6.11-.1v3.16c-1.81-.71-1.08-2.92-3.76-3.31-7.64-1.1-4.6,5.77,1.99,4.94l1.46,3.15c2.72.22,5.67-.41,7.09-2.45,1.06-.38,4.99-1.1,6.11-1.11,2.62-.02,4.98,2.8,8.46.94l.07-3.08c4.15-1.04.82,3.26,4.5,2.52.19-.04,2.2-2.47,2.07-3.09l.8.02c.42,4.62,6.33,1.56,8.47,2.04,1.91.43,4.19,3.12,7.12.31l-.9-6.56c-3.95,1.08-11.44-3.67-12.23,1.14l-.8-.03c.3-3.46-3.33-.44-5.37-.2Z"/>
      <path d="M1369.09,938.22l-2.65-.09-.07-3.29-3.17-.07c-2.08,2.92,3.14,2.62,2.35,5.74l3.54.18v-2.47Z"/>
      <path d="M1588.78,894.61l-.11,4.68,5.54-.58c1.6-4.73-1.24-5.92-5.43-4.1Z"/>
      <path d="M877.63,961.02c-5.68-1.18-.53,3.86-8.43,3.44v2.65s7.38.12,7.38.12l-.99-3.19c1.63-.06,3.1-2.11,2.04-3.02Z"/>
      <polygon points="576.94 901.74 576.27 904.57 581.32 903.83 582 901 576.94 901.74"/>
      <path d="M476.1,915.29l3.52.09c1.4-6-2.88-1.93-3.85-5.43-1.09-.51-2.08-.38-3.22-.39l.02,2.81,3.36.22.18,2.69Z"/>
      <path d="M602.58,908.01c-1.81-1.51-5.22,1.18-3.41,2.69,1.81,1.51,5.22-1.18,3.41-2.69Z"/>
      <path d="M608.29,883.13l-1.14,8.3,6.83.19c0-3.29-.08-9.08-5.69-8.49Z"/>
      <path d="M462.5,916.91l.56-3.79c-3.44-2.85-8.58,7.79-.56,3.79Z"/>
      <polygon points="424.93 888.48 424.93 892.28 428.51 892.37 428.51 888.58 424.93 888.48"/>
      <path d="M370.59,894.71c-1.93-1.57-5.57,1.21-3.64,2.77,1.93,1.57,5.57-1.21,3.64-2.77Z"/>
      <path d="M404.49,884.13c-1.91-1.56-5.52,1.19-3.61,2.76,1.91,1.56,5.52-1.19,3.61-2.76Z"/>
      <path d="M441.65,883.24c-1.89-1.56-5.46,1.19-3.57,2.74,1.89,1.55,5.46-1.19,3.57-2.74Z"/>
      <path d="M615.11,924.97c5.42.62,5.38-.74,5.68-4.5l-5.69-.14v4.63Z"/>
      <path d="M448.8,916.58c-1.89-1.55-5.45,1.21-3.56,2.75,1.89,1.54,5.45-1.21,3.56-2.75Z"/>
      <path d="M358.41,903.99l-9.59,1.82-.18,3.7c5.85.48,10.21-.23,9.77-5.52Z"/>
      <path d="M689.3,878.99c-1.76-1.5-5.1,1.14-3.33,2.65,1.77,1.5,5.09-1.14,3.33-2.65Z"/>
      <path d="M695.97,921.25c-6.45-.23-11.27-1.6-10.01,5.26l8.94-1.13,1.06-4.13Z"/>
      <path d="M685.97,959.49c1.77,1.48,5.09-1.2,3.33-2.68-1.76-1.48-5.1,1.2-3.33,2.68Z"/>
      <path d="M707.05,926.99v-5.49s-6.65-.14-6.65-.14c-.64,3.97,1.92,6.05,6.65,5.63Z"/>
      <path d="M670.34,885.78l4.46.12v-3.66c-3.75-.69-4.22,1.03-4.46,3.54Z"/>
      <path d="M659.13,913.98c-1.78-1.5-5.14,1.17-3.36,2.67,1.78,1.5,5.14-1.17,3.36-2.67Z"/>
      <polygon points="632.11 920.72 632.11 924.41 635.49 924.49 635.49 920.8 632.11 920.72"/>
      <path d="M680.39,882.39l-3.34-.09-.09,5.46-3.14.03-.12,3.59c4.68.33,8.91.56,12.77-1.43,1.62,0,3.55,1.3,5.49,1.06.34-.04,1.4-3.18,5.13-1.74v-6.4c-5.92-.19-2.57,3.06-10.44.56-1.76,3.15-2.86,1.2-6.24,2.64v-3.67Z"/>
      <path d="M641.14,956.88c-1.79-1.49-5.17,1.21-3.38,2.7,1.79,1.49,5.16-1.21,3.38-2.7Z"/>
      <polygon points="662.04 965.45 661.39 968.26 666.32 967.49 666.98 964.68 662.04 965.45"/>
      <path d="M618.52,882.5v3.69l4.53.12c.51-2.87-1.1-4.13-4.53-3.82Z"/>
      <path d="M182.22,934.11c.39-3.19.32-3.24-3.84-3.02-.06.98.03,1.97,0,2.95,1.24-.09,2.59.15,3.84.07Z"/>
      <path d="M318.55,912.66l4.24-1.46-1.25-4.2c-4.43-2.04-6.44,4.86-2.99,5.66Z"/>
      <path d="M188.6,935.22c-4.86-.52-4.73.83-5.11,3.82,3.39-.56,5.79.42,5.11-3.82Z"/>
      <path d="M94.16,976.12c-2.08-1.6-6,1.32-3.92,2.92,2.08,1.6,6-1.32,3.92-2.92Z"/>
      <path d="M25.36,999.19l.08-2.97,5.73.96c3.24-.39,7.04-9.93,6.22-10.8l-6.62-2.11,7.98.1v-10.01s2.15,2.07,2.15,2.07l7.15.05c2.14-1.39-4.18-7.08-4.73-7.12-3.17-.26-6.12,3.08-11.66,1.93-4.08-6.27-16.41-3.39-23.63-2.9-3.36,1.26-.93,5.35-6.46,4.59l-.23,2.88c-.44-.39-.88-.69-1.33-.95v8.92l1.96.02c1.71.24-.17,2.79,1.4,3.1,6.08,1.18.82-3.85,6.02-2.94l-.85,4.04-8.53,1.3v6.09c6.97.05,13.97.2,19.1,1.79,1.27.39,1.35,3.27,6.25,1.97ZM26.76,986.22l3.99.05v2l-3.99-.05v-2ZM22.76,976.15l2.66.04v.99l-2.66-.04v-.99ZM22.77,990.18c2.15.97,3.89,2.32,6.65,2.09l-.68,1-5.98-1.1v-1.99ZM15.41,986.08v-1c.87.35.87.68,0,1Z"/>
      <path d="M1461.08,901.2c-1.4-1.33-4.03,1.03-2.63,2.36,1.4,1.33,4.03-1.03,2.63-2.36Z"/>
      <path d="M0,0v926.43c3.88.89,7.83,1.74,10.71-.68,1.38,3.27-5.63,3.38-2.01,7.05,1.95,1.98,4.73-.51,2.03,6.01l6.68.14-4.94,2.77c-7.32-.87.34-8.65-8.31-8.11l-.14-4.97-4.02.64v33.27c.91.18,1.92.35,3.32.29,2.38-.11,4.34-2.68,7.4-1.92v4.03c6.48.75,8.23-1.86,14.03,1.22,1.67.05,2.86-1.4,4.36-1.72,2.82-.6,6.37.94,5.65-2.14l1.3.02,1.28,2.57c5.06,1.81,10.89-1.94,15.39-2.28,5.92-.57,11.55,2.86,13.34-.85,14.32.83,4.29-3.16,9.05-5.82,1.47-.38,4.13-.29,3.29,1.53l-2.75,1.04c.97,9.15,8.72,1.08,15.87,3.65l-.76-3.06c-4.21-1.44-8.45.13-8.42-5.03,13.9.78,3.06,3.62,11.34,4.51.89.44.01,2.28,3.67,1.71,3.29-1.96,2.57-5.72,7.12-4.93l.15-3.91c2.95-.96,4.93,1.05,5.22,1.09,2.05.26,4.41-.09,6.51.12l-3.92.92v2.97c8,.69,7.1,2,15.03-.7,10-.77,20.67.83,30.35-.53.88-4.81-4.38-4.11-9.04-4.09v-2.95s9.04.15,9.04.15c1.15-3.01-1.6-2.64-2.13-3.33-1.12-4.75-5.46-3.59-10.76-3.29l9.02-2.32-.35-2.76c-2.47-.19-2.55-.28-2.24-2.2l3.88.07v-2.95s-8.85.95-8.85.95c1.36,3.8-3.74,4.43-4.09,5.46,1.38,5.82-4.64,1.7-7.09,7.04l-1.93-7.95,6.46,1.11c-.05-1.99.88-5.98-1.95-6.95-3.48-.96-3.33.94-3.89,2.9-6.34-.21-15.93-3.76-21.96-2.29-2.01.49-1.75,4.29-7.32,2.69l-.65,3.97-11.12-9.16c2.23.23,4.93-.26,7.01.13.52.1,4.28,6.13,4.99-.71,2.86-.11,3.35-.08,4.34-2.08l.66,3.01,7.18-1.88,2.69,2.15c7.78-1.97,36.96,3.09,34.23-7.28l1.28,3.97,3.86.08v-3.94c3.36-.18,3.81,2.66,7.13,3.12,3.42.47,7.2-.86,10.65-.94l2.31-4.75,6.75.28,1.56,4.73,4.94.22.05-3.31-2.59-1.63c4.68.23,10.36-2.29,14.02-4.16,2.28-1.46-.19-3.61,6.34-1.28l-3.8,3.82c4.1,1.15,3.1-1.85,5.65-1.93,5.42-.16,9.34,2.55,14.59,2.33l.11-2.8c4.35,1.3,5.34-1.96,5.7-1.95,3.07.78,6.71,1.86,8.56-1.41.74-.42,2.44-.04,3.02-.48.51-.39.18-1.58.77-2.29.33-.39,1.53-.34,1.95-1.09.68-1.22,2.13-7.85,3.32-7.99,5.31-.06,11.08,1.35,8.08,6.08l9.21,1.23,4.55-3.82c.97,7.79,5.32,3.78,6.4.27,2.47-.53,9.24-.39,12.31.18l-1.25,3.83,9.94,1.2-2.49-3.44,3.74-.4-1.24-4.86c2.69.2,2.02,3.44,2.6,3.81.86.55,3.66-.07,5.25.23.99.19.64,1.77,1.62,1.98,9.73,2.06,4.44-5.97,6.6-10.45-1.23-.05-2.47-.06-3.7-.1-.24.81.17,1.98,0,2.89l-3.69-2.97c1.23.02,2.47.04,3.7.08.79-2.66,2.51-3.61,6.17-3.7l.16,3.73,6,1.24-1.23-3.87c1.15-.13,2.71.27,3.7.09.8-.15,3.19-1.87,6.16-.8v-3.87s3.66.1,3.66.1c-.03,9.22,8.48,7.31,16.58,5.14,2.3-.34,1.87,1.88,2.97,2.56,2.59,1.6,12.05.74,9.82-3.1l-3.66-.1,1.23-5.71,1.97,2c6.69-1.79,22.75,5.35,22.32-2.32-3.94.99-3.81-2.38-5.59-2.92l-8.96-.32c3.36-1.2,8.1.46,9.02-2.57.99.91,3.5.69,4.13,1.21,1.1.92-1.69,3.56,3.81,2.76l-1.21-3.84,6.05-.79-2.41,7.56,3.53.04c-.19-2.69,1.26-3.09,3.8-4.19l-2.49-5.25c3.8-.72,13.69,2.76,12.06-2.53,2.81-.5-1.47,5.85,8.4,3.08-.23,1.64-.89,3.06-1.19,4.72l7.2.19-2.4-4.81c7.43,1.06,8.69-2.47,17.06-.62,6.7-.81,7.33-5.2,6.84,5.06l3.3-.24.77-1.48,9,3.01-.6-3.78c3.56,1.38,3.33,1.6,2.98,4.8l9.24-.88c1.66-.86,2.18-16.33,5.57-17.6,3.58-1.33-.36,5.24-.52,6.18-.43,2.59.08,5.33-.08,7.94,3.14,1.13,4.92-2.22,6.43-2.3.69-.04,7.72.04,8.13.11,2.44.43,4.31,3.17,8.97.92l-1.14-5.64c5.77,3.11,12.08-2.68,12.9-7.14l2.33,7.57-8.2-.23v5.65s3.53-2.72,3.53-2.72l1.84,1.97c4.75.85,3.81-1.66,4.75-1.8,4.26-.61,6.51,1.96,8.05-3.49,2.54-8.81-5.14-4.66-1.68-9.37l9.29.74,1.09-4.25c2.19-.11.99,2,.83,3.03-.42,2.7-.11,6.3-3.23,6.75l2.39,6.13c-5.82-1.09-9.11,3.8-2.5,3.81l.28,2.56,4.48.23c-1.46-4.47,4.39-3.71,3.57-6.9-.17-.65-5.49-.05.52-4.02l8.73,1.02c.91-4.67-2.78-1.51-2.31-3.79l8.75-.63.53-6.92-2.33-2.52,3.93,1.13c1.87-3.68,6.7-2.63,11.08-2.54.98-2.33-3.38-8.28.73-9.2,6.39.05,11.5,2.69,17.07-.48l.61,2.36c-3.53.47-3.6,4.62-.2,5.52l-1.05,6-4.52-.08,2.3,8.43c-4.51-.36-6.8-.5-10.29,2.24-1.51,1-2.79,4.05-4.64,2.92-.34-.21-4.22-7.57-4.64-.13l-1.32-1.69-3.29-.31v3.74c-3.16-1.46-6.12-1.52-9.25-.25v-2.81s-3.48-.09-3.48-.09l1.16,4.7-3.49-.09v7.47s12.02.22,12.02.22c2.89-.64.21-4.69,4.76-3.5l1.88,3.68,6.04.32,4.18-7.38.1,4.61,3.36.14c-1.3,3.04-3.25,14.61,3.06,7.5,2.51-1.26,5.57-.02,3.68-4.89-.7-1.81-4.27-.75-3.29-3.44,2.16.97,3.59,1.11,5.72.14-.44,6.17,6.81,2.03,11.96,4.1l2.91-5.53,1.29,5.48,3.73.26c4.25-3.96-2.78-10.68,7.53-8.18l-2.27-4.68c6.14-1.05,3.85,5.49,7.37,4.85,4.4-.55,6.12-2.79,5.13-6.34,3.67-.56,1.78,2.06,2.5,4.03,3.8,16.75,6.42,7.46,27.99,7.89l-1.06-4.22-10.72.28c-1.15-.23.29-3.53-2.86-2.92l3.23-.98c1.67-6.86,7.89-3.45,9.24,2.21,2.44.35,3.56.45,3.31-1.69l1.98,1.39c-1.73,2.98-.73,5.74.26,8.78l-4.88.79-.75,2.74c6.64,1.02,5.03-.7,7.19-3.16,4.35-4.94,4.5-.73,4.05,3.46l4.48.12-1.12-6.46,4.49.12.06-4.03-9.01-3.13-1.13-3.24c5.41,2.69,4.69.16,6.4-.71,1.81-.92,3.72-1.13,5.08-1.76,1.34-.62.21-2.09,1.94-1.73-.32,2.22-.11,2.53,2.25,3.27l-2,.53-.25,2.61,12.25,1.24c-.76-3.83,3.61-6.02,7.34-7.03.69-.08.36,2.28,3.26,2.82,4.11.76,1.51-2.46,4.98-1.71,2.36,4.21,5.3,6.79,9.44,2.1,1.98,2.47,5.22,3.76,3.86,7.41-3.32-.04-10.92-3.97-11.06.1-.13,3.92,3.81,3.03,4.53,3.9,2.36,5.42-.81,7.34,7.64,9.71,1.17.42,3.4-.21,4.41,1.49l-2.23.84v1.83c3.24.65,1.68,1.97,2.27,3.48.41,1.03,3.29.67,2.16,3.45l-3.87.82.56-3.61c-6.22-.63-9.97,4.98-8.84,9.82,5.99-.31,8.79.05,7.66,5.6l-3.23-.02.03,2.7c16,7.06,22-7.28,6.6-3.47l4.4-4.45c-1.02-2.42,1.27-2.36,1.81-3.04,1.17-1.47-.72-2.44,3.74-2.75l-.05-3.18-3.29-.09-1.09,2.71c-.52-6.44,6.44-1.43,11.31-3.38,1.31-.53.12-2.12,1.86-1.74v5.45c6.8.83,4.58-4.78,6.49-7.43,1.22-1.69,6.71-.36,3.91-4.13l-6.01-1.05,4.41-.5.09-2.96c3.37.77,3.73-2.36,5.36-4.45,2.51.31.33,5.64,1.09,6.38l4.36.12-.05-4.86,3.32-1.4c-1.12,2.63-.44,5.83-1.09,8.43-.07.3-4.2,2.5-3.27,5.05l-2.31-5.38-4.22-.23,1.08,8.18h-3.16s-.1,3.56-.1,3.56c3.85,1.05,2.83-2.98,9.82-2.47l-3.28.82c-.43,3.77,2.52,5.56,6.55,6.51l-8.5,3.59-.23,3.45c4.66.28,9.19.87,13.69,1.2.56,0,1.1,0,1.65.11,1.95.11,3.9.17,5.86.12,5.36.09,5.7-3.21,10.34-2.52,1.68-8.93-5.53-6.4-12.91-5.59l-.11,2.58c-.23.34-7.09-2.55-7.6-3.36-1.3-2.99,5.38,1.09,3-4.75-.44-.49-2.37.4-1.91-1.09,1.69-.28,2.01.06,3.18.76,5.02,2.99,3.58.19,4.6-.38,3.19,1.59,7.34-.84,10.78-1.38l.98-3.95c-2.11,1.53-9.15-1.78-9.71-1.14-.5.57.32,3.37-2.2,3.55,1.13-4.75-4.57-.85-3.27-5.51l5.44.14c.62-4.42-.16-7.3-3.26-10.93,3.73-.66,6.26-2.11,7.06-5.25l.53,3.65,4.34.12c.39,1.43-1.48.6-2.2,1.42-1.69,1.83-1.4,6.64,2.04,6.82-2.1,3.03,1.69,7.75,6.67,7.29-.51,3.25-9.56,9.92-3.2,12.16-.07,1.64-2.29,3.9.61,5.87l3.6-.04.13-2.56c5.43-1.52,5.68,2.62,8.48,3.35,7.04,1.84,8.8-1.24,8.72-6.62,3.24.99,6.99,1.79,5.05,5.34-.12.23-3.02.18-1.83,2.83l3.22-2.62c2.86-.44,1.55.68,2.77,1.94,11.87-1.84,8.64-2.11,12.82-10.49,2.02-2.27,7.3-3.15,5.81-7.09,3.07-1.04,3.24,1.88,3.82,1.96.97.13,5.05-.76,5.77-1.25,2.64-1.83,1.04-12.93,10.89-9.07,1.16.45.32,1.91,2.23,1.81,3.35-.18,7.45-.57,8.65-3.4,3.79-.34,3.61,2.58,5.01,3.5,1.43.93,6.33.99,3.41,4.82-2.11,2.77-5.14-1.87-5.47-1.94-1.81-.37-4.15-.09-6.05-.05l-2.76,3.39c.97-4.83-1.51-3.72-6.24-3.63-.17,3.43-4.12,2.93-3.31,6.07l4.24.99-6.4.21-2.61,4.03-5.85-1.92-.05,2.61c-9.79-1.95-10.82,11.06-1.04,10.79l1.11-6.22c2.02.14.56,2.51,2.03,4.15,3.45,3.85,9.46-1.47,12.48-1.79,2.27-.24,4.22,2.4,5.06-.97l10.11,1.99v-3.57c3.49-.62,1.48,1.79,2.15,2.68,4.84-.35,7.41-.55,11.94,1.28l6.43-6.13.52,4.44,6.26,1.01,1.14-6.51-2.15-1.48,6.23.07c-.54-4.45,2.47-2.13,4.17-.01.31.56-.23,1.68.37,2.62,5.24,2.37-1.06,11.15-.31,15.3,5.24-.75,10.08,2.49,14.28-.4,3.87-.56,5.26.77,8.03-1.8,4.57.55,7.06,4.5,11.41,3.86.95-.11.7-7.25,3.65-5.25,2.1,1.43-1.4,11.48,6.21,8.46v-5.68c1.66-.05.99,1.87,1.99,3.17,3.36,4.34,9.56.17,14.43.69l-1-7.91,3.06.05c-1.75-2.34,1.56-6.75.77-7.71-2.31.02-3.38-4.35-1.27-5.47l1.57,4.41c3.25.83,2.92-1.64,5.6-2.48l2.15,2.63,6.53-.66c-.62,1.55-2.77,1.85-4.14,2.95-2.01,1.62.72,2.72-5.05,1.21v3.51c4.56-.49,4.86.24,7.15,3.24l-5.1-.55v3.5s4.03.18,4.03.18l.2,2.37c2.74.65,4.37.55,5.59,2.95l2.84.08.63-1.73,1.98.04.65,1.8c4.77-1.8,6.18,2.13,10.45,1.76l.61-1.6c.38,2.36,3.73,2.38,5.97,1.76,1.28-.35,1.24-1.86,1.93-2.24,1.63-.91,3.59,1.24,2.73-3.65,2.94-1.11,6.02,1.89,7.57,1.93,1.46.04,7.18-3.35,10.06-3.29l2.46,6.49,3.08.6.03-6.07c5.43,1.23,8.98-6.39,4.71-9.23-1.32-.88-4.58-.36-4.73-2.1,2.96,1.34,7.76-4.15,8.08-.31,3.06,5.72-.51,4.65-1.83,8.92-1.14,3.65.5,5.07,4.76,4.67l1.01-2.58c.05,3.25,3.58,4.83,6.49,6.25l2.47-1.38-.96-3.82c4.56-.09,7.32-3.99,11.92-3.17l1.15,4.22c6.33-.93,10.06,2.73,15.75,3.04-1.19-3.34,2.11-4.7,5.54-5.06,3.49-.37,2.13,1.97,3.96,2.56,1.3.42,7.41.51,8.35-.07,1.35-.83.02-3.25,1.88-3.04-.52,5.7,8.38,3.99,7.88-.69,2.73.83,5.93,1.56,7.18-1.29,1.76-1.06,2.92,1.09,3.1-3.63l3.42,2.67-3.9,2.05c-1.47,4.24,7.87,3.13,10.61,3.13l2.06-3.27v5.14c11.19,1.42.92-4.41,11.55.37l.25,3.18,4.72,1.08c-.08-1.2.3-2.62-.13-3.75-.34-.91-5.41-2.41-1.82-3.98.19,3.14,3,2.76,5.82,2.7l-1.73.92c-.91,2.62.2,4.68,3.66,4.24l2-6.74c3.58.15,6.02,1.45,9.6.17l-.97,4.23,3.87.08c-.69,6.43,2.53,6.11,7.22,2.73,1.61,1.79,1.12,3.15,4.31,2.63v-2.56s7.18,1.89,7.18,1.89l.54-2.5c8.51-1.07,3.82,2.62,8.56,1.81v-2.55c2.7-.76,1.69,2.04,3.41,2.56,5.04,1.51,4.43-3.54,4.22-6.63-1.37-.21-2.72.06-4.07.12-1.07.04-1.87,1.69-1.64-.65,2.91-4.27,7.03-4.87,12.37-3.54.29,1.57-1.71.41-2.66.92-3.02,4.92.29,3.91,1.69,7.94l7.62,2.29.94-2.52v5.91c4,.82,2.94-1.67,4.09-3.04,4.06-.96,2.2-5.2,2.5-8.1l2.88-1.33-.86,10.05c7.78.58,12.48,9.85,19.2,2.25l7.11.89-1.02-5.83-5.51-.15-.51,2.48-1.03-1.79c-5.44,1.48-7.61-.09-5.98-5.07,3.28.36,3.01.02,4.66-1.62.47-.68,1-1.97,2.34-1.63.64.5,1.18.97,1.42,1.71,1.55,0,3.12.19,4.66.04l.05-2.47,2.68,1.03.26,5.7,5.01,1.9c3.46-.4,2.65-3.65,1.42-5.88,1.36-1.27,3.55,3.25,4.37,3.44,3.64.83,2.73-1.02,3.74-1.61,2.18-1.29,3.85.38,3.13-4.07,3.07.19,5.2-.07,4.63-3.27-3.07.42-2.76-2.6-6.42-1.92l-1.04-6.65-5.6.71-1.88-7.6,7-1.52.49,2.53,5.46-.8.12-7.43-5.6-.14v-5.04s2.7.74,2.7.74c-.34,1.75,6.9.41,7.61.02,1.42-.79.5-5.97,3.21-7.06.03,2.25-1.92,3.76,1.31,4.56-.73,1.41-2.27,5.54.55,5.54,4.53,0,3-3.47,5.57-5.71l1.38,4.21,5.47-.77.17-3.17c7.62-2.53,4.25,5.3,20.22,2.14v-2.49s-2.77-.08-2.77-.08v-2.49c2.78.82,8.76-2.26,10.86-.36,1.86,1.68-.88,7.62,8.42,5.89l-.46-5.82,1.38,5.02,2.56-.18c-.07-1.6.95-1.95,1.57-.56,1.19,2.69-.4,7.82,4.09,8.43v.81s-1.86.47-1.86.47l.03,4.47,4.57.12.1-4.06c3.38,0,3.86-1.19,3.54-4.13l1.46,1.72,3.08.06.06-3.64c-.05-.25-4.62-2.25-5.1-2.31-7.66,1.58-5.4.25-3.91-4.94l5.31-.8-1.81,3.25,2.72.08v-2.49c3.18,1.84,5.54.24,4.35-3.07l-1.62-.16v-.81s2.52-.15,2.52-.15l.66-1.43,1.34.08.54,1.68c4.04.71,4.08-3.37,8.11-3.93l.56,4.04c3.94,1.49,7.44,2.86,11.57,1.2l-.84-4.08c4.12-.83,6.41-1.82,10.78-.48l.03,4.49c.13,1.02,3.32.87,3.66-1.55.23-1.69-2.05-4.07.39-3.68.74,2.83,3.92,1.31,6.13,2.61,1.79,1.05,2.13,4.55,7.3,4.38,1.64-3.05-.13-5.2-2.22-7.46,2.6-.28,4.14-.45,3.58-3.18,4.51,5.09,13.94,5.19,19.07,7.05.84.56-.17,3.41,3.67,3.45,2.92.04,1.79-2.76,2.2-4.27.15-.54,2.7-.79,1.76-2.97,2.09,1.76,2.69,3.81,6.19,3.45v-5.71c4.93.75,1.48,7.7,11.92,2l.9,2.51,3.39.08.99-1.63c.39,2.42,4.36,2.73,3.96.13l.86.03c-.27,2.62,2.42,4.82,5.27,4.23-2.98,3.96-1.45,9.35-.88,13.78-1.54,1.26-12.36-9.29-12.38,1.21l-6.94.73.38,4.09c1.47,2.26,4.75-1.71,4,1.7-1.51-.18-3.28.19-4.72-.12-.61-.13-.72-2.67-3.21-1.72-.49,6.21,4.18,12.39,11.42,11.64l.07-2.33,7.76-.78.11-4.78,2.62.07.91,8.15c2.58,1.04,2.54-1.45,3.16-1.55,5.17.52,4.62-.3,7.76-3.85,1.41,3.15,4.57,4.05,3.93.1,4.77,1.53,9.11-.41,13.92-.44-.25,1.58-2.3-.18-1.76,2.78.27,1.49.63,1.8,2.21,2.1,3.26.63,2.8-2.5,3.04-4.8l1.37,1.72,8.06-1.41c1.23,4.66,3.71.98,6.97.88.79-2.91-1.57-3.39-2.56-4.63-1.21-4.95-4.27-2.55-6.05-5.24l6.08-.24c2.39,1.39.62,3.11.84,5.26,1.89-.22,6.17.43,5.2-2.69-.14-.82-2.13.13-1.75-1.24l3.45.09-.09-4.77-6-.59c-1.89-3.29-.46-7.89-5.99-7.07l-.02,2.41-3.78-.98c-.91,1.93-2.66,2.16-4.87,2.34v-3.24c-2.39-.19-3.15-.55-3.96,1.55-3.99-1.94-7.83.43-10.71-3.14.66-1.15.9-2.35.76-3.67-1.68.13-3.51-.17-5.2-.18l-1.77-5.7,2.99.97c.98-1.08-.1-2.16,2.24-1.62-.99,2.62,1.53,4.54,1.75,6.53,4.48-.34,3.1-2.48,4.92-3.01,2.23-.65,4.55,1.18,6.76.94,13.18-4.28,29.9-2.27,43.88-1.87l1.03-1.66c5.07.09,23.67,1.66,27.67.54,3.97-1.11,4.65-1.77,9.6-1.69,2.01.03,4.49,1.45,7.17.09l-.76-7.12,2.52.07v5.58s3.26,0,3.26,0l1.47-3.09,4.41,1.16.55,2.26c4.43.17,9.17-2.95,13.44-2.65.49.03-.15,2.3,3.15,1.43,3.19-.84,1.56-5.38,3.49-6.09,3.56,7.2,3.11,6.37,11.04,3.75.88-.41,4.17-1.9,4.39-2.03.88-.54.44-3.21,2.87-3.5l3.04,4.69,29.03-.59c2.2-4.35,5.33-.44,9.46-1.24l.16-2.11c3.31-1.47,5.62,1.56,9.15.93,4.99-6.52,8.31.38,14.35.46l.02-2.34,2.77.95.96-1.64,7.6,1.08c.12,1.62-.8,3.88,2.02,3.2.85-.09,1.36-4.69,2.42-5.4,1.73,3.64-2.25,8.25,5.94,5.28,7.67,1.75,1.82-2.95,11.78-4.43l4.12,4.48c4.24.08,7.12-.57,8.23-4.77.63-.45,3.2,1.57,4.46-.15l-.02-3.12,4.38.16c-.76,2.47-1.23,4.39.1,6.88,5.19,1.79,4.24-3.95,8.65-2.71l-.79,3.82c1.95.96,6.28,1.02,7.96-.08,1.11-.72.42-2.47.94-3.3.28-.44,2.93-1.21,3.38-2.38l.88,1.63c3.01-1.5,3.1.89,4.76,1.55,2.28.9,1.64-1.24,2.36-1.38,2.19-.41,5.34.82,7.71-.42l.46-3.14.78,3.11,4.78-.17.79-3.42,7.38-.59.4,3.1,2.34.08v-3.08s11.59-1.24,11.59-1.24l.91-5.21c2.28-.18,3.76,2.96,4.36,3.17.61.21,10.19-1.61,12.5-1.58,1.64.02,3.06,1.89,5.16,1.54,1.49-3.25,9.13-.67,12.32-1.08.28-.04,1.21-.99,4.73-1.38,7.92-.88,17.17-2.99,24.7-3.47,2.92-.19,4.78,1.6,7.4-2.17,2.35,1.29,1.63,4.63,3.04,6.16,2.16,2.34,8.1,1.22,10.67.44l-.44-6.86,4.97-.48c.39,1.15,1.2,1.29,1.84,1.56V0H0ZM.67,947.68v-1.01c.87.35.87.69,0,1.01ZM.67,943.65v-1.01c.87.35.87.69,0,1.01ZM10.71,957.89l-1.32-.02v-2l1.32.02v2ZM141.04,946.16l2.58.05v.97l-2.58-.05v-.97ZM143.62,950.15l-.64,1.96-1.95-2,2.58.04ZM136.5,951.01c.84.34.84.67,0,.99v-.99ZM105.28,939.56c.85.35.85.68,0,.99v-.99ZM100.05,951.38c.85.35.85.68,0,.99v-.99ZM98.75,941.43c.85.35.85.68,0,.99v-.99ZM38.73,953.84c3.46-.93,7.27,1.34,11.11.7,1.3-.22-.25-4.04,6.99-.51l5.08,3.69c-7.5-3.84-15.62-.12-23.19-3.88ZM40.07,946.36l11.93,1.21c-2.47.61-9.43-.75-11.93-1.21ZM69.85,954.85v-1c.86.35.86.68,0,1ZM74.46,942.97l-3.94-.07v-.98l3.94.07v.98ZM83.24,931.2c-.89.15-.8,1.36-1.36,1.61-2,.91-4.45-.64-3.47,3.27-5.34-1.59-10.94-.17-16.38.58l-.81,4.04c-3.47-1.19-11.03,4.8-10.54-.15l4.05-.46-.13-4.42c-8.34,1.07-7.27-3.65-9.13-4.77-6.3-3.78-5.38,3.72-8.01,4.95l-10.55-.62-2.82,5.83c.56-3.01.03-3.27-3.86-3.16l-.23-3.4c3.39-1.14,6.32-.58,5.41-4.44l-9.35-.19v-4.01c5.86-1.66,13.78,4.08,17.95,4.28,2.6.13,5.42-1.36,9.32-.73,8.28,4.47,5.94-.13,15.95-.77,8.65.17,15.51,7.87,22.41-1.45l7.22,3.12c.16,1.93-3.76.56-5.68.88ZM103.5,913.52l-.9-2.85c-8.87.17-17.34-.08-26.19-.53-2.57-.13-2.07.05-1.96-2.02,4.71.29,10.74-1.04,15.12-.74,6.77,1.48,8.27,3.65,14.7.56,9.11-1.25,9.07,9.17-.77,5.58ZM145.56,924.52v-.99c.84.35.84.68,0,.99ZM157.81,918.85l-3.86-.08v-.97l3.86.08v.97ZM193.06,917.64l-.61-.48,1.9-1.42.61.48-1.9,1.42ZM198.8,909.94l-1.25-.03v-1.95l1.25.03v1.95ZM226.73,907.64l-2.52-.06v-.96l2.52.06v.96ZM233.69,905.86v-.98c.82.34.82.67,0,.98ZM240.61,908.94l-1.24-.03v-1.94l1.24.03v1.94ZM240.62,893.34l-2.51-.06v-.96l2.51.06v.96ZM243.77,902.2v-.97c.82.34.82.67,0,.97ZM264.48,888.13v1.93c-1.85.27-2.6-.49-3.75-1.55l3.75-.38ZM253.21,868.38l1.24.04v2.91l-1.24-.03v-2.91ZM258.79,896.8c-4.52-.12-3.03-2.8-6.84-3.17l4.39-.88.62,2.96,3.75.1v-3.89s4.99,1.14,4.99,1.14l.03,2.86c-2.36-.22-4.72.95-6.94.89ZM269.49,890.19c-.89-3.1,4.92-2.69,7.48-2.71,0,1.4-7.14,2.97-7.48,2.71ZM280.1,880.78v-.97c.81.34.81.67,0,.97ZM281.96,894.39l-1.23-.03v-1.93l1.23.03v1.93ZM285.08,897.38v-.97c.81.34.81.67,0,.97ZM288.81,880.04v-.97c.81.34.81.67,0,.97ZM291.3,895.59v-.97c.81.34.81.67,0,.97ZM297.5,884.16c1.09,1.11,2.68,1.1,4.36,1.07l-.62,1.91-4.33-2.53.59-.44ZM301.23,891.98v-.97c.8.34.8.67,0,.97ZM301.84,898.76c-2.83-.66-2.6-3-2.46-4.89,2.83.66,2.6,3,2.46,4.89ZM309.29,886.38l-1.23-2.45.59-.44,1.85,2.93-1.22-.03ZM317.93,892.4c-.07-2.97.66-5.95-1.24-8.7l3.7.1-2.46,8.6ZM330.86,884.06c-1.3-.92-2.24-1.52-1.84-2.93l2.45.07-.6,2.86ZM345.58,844.11c.79.35.79.67,0,.96v-.96ZM350.47,892.27l-.65-2.85-4.85-.18,1.23-3.8c-4.45.94-4.29-1.18-5.33-1.76-1.6-.88-5.16.31-2.86-3.02,1.26-1.82,6.74-4.82,7.53-5.82,1.42-1.79-.89-4.5,3.1-3.74-3.07,2.7.19,7.02-.31,8.95-3.01,2.89-1.94,4.38-.8,8.21l4.79.21-1.85,3.79ZM355.99,841.58l1.2.04v1.91l-1.2-.04v-1.91ZM355.36,887.6v-.96c.79.34.79.66,0,.96ZM354.77,877.99c-1.18-2.58-1.29-6.21,2.42-7.6l-2.42,7.6ZM362.08,884.9v-5.74s1.2.03,1.2.03l1.22,5.77-2.43-.06ZM360.86,871.44v-.94c3.16.34,1.51-2.7,4.87-1.78-.58,1.34-3.24,3.41-4.87,2.72ZM369.38,887l-3.64-.1v-.94l3.64.1v.94ZM375.46,871.86l-2.42-.07v-1.91l2.42.07v1.91ZM391.21,873.27v-5.73s4.83,1.1,4.83,1.1c-.02,2.45-3.27-1.14-2.42,3.74l3.63,1.05-6.04-.16ZM443.45,828.31c.77.34.77.66,0,.95v-.95ZM437.49,850.02c-.17.26-.36.53-.61.82l.61-.82c1.75-2.76-1.01-3.95-1.8-6.8l5.97,1.15-4.17,5.65ZM438.07,854.69v.93l-2.38-.07v-.93l2.38.07ZM435.7,833.74l1.17.04v3.79s-2.38-.08-2.38-.08l1.2-3.75ZM433.9,855.5c.78.34.78.66,0,.95v-.95ZM430.31,835.45c.78.34.78.66,0,.95v-.95ZM422.53,845.65l2.39.08v.94l-2.39-.08v-.94ZM415.33,845.42l2.39.08v.94l-2.39-.08v-.94ZM399.68,859.21l1.19.04v1.9l-1.19-.04v-1.9ZM398.47,867.74l4.82-5.57-1.2,4.72,4.8-.34c-2.38,3.03-4.69,1.28-8.42,1.18ZM407.51,858.49v-.95c.78.34.78.66,0,.95ZM410.51,848.1l-3.6-.11v-.94l3.6.12v.94ZM423.19,866.62c-1.18-1.93-1.01-2.37-4.22-2.06l-1.86,5.65c-4.07-.84-5.34-4.18-6.6-6.86,6.91-1.86,12.4,2.29,18.58-1.36l1.83,3.86-7.72.78ZM435.09,875.46v-.95c.78.34.78.65,0,.95ZM435.86,865.26c-.62.38.64,2.09-1.36,1.64l-1.2-5.72c2.02-.36.54,1.78,1.87,2.01,6.09,1.04,7.24-3.57,6.49-7.45l2.71,6.46c.66.67,2.75.8,3.17,1.81.02,7.2-8.13-.93-11.69,1.25ZM447.61,874.87l-1.17-.03c-.37-2,.65-3.78,1.19-5.64l1.17.03-1.19,5.64ZM490.23,824.29v2.82l-5.88-1.15c.73-2.12,3.58-1.87,5.88-1.66ZM478.43,838.02c.37,1.74-1.22,3.06-3.53,2.7l3.53-2.7ZM466.04,834.77c3.84-.52,4.17,6.77,2.94,8.59l-1.88-2.04-5.22.86c2.63-1.32,2.04-7.12,4.16-7.41ZM458.33,843.02l1.17.04v2.83l-1.17-.04v-2.83ZM452.37,881.62l-2.37-.07v-.93l2.37.07v.93ZM456.54,878.9c-1.26-.9-2.17-1.49-1.78-2.88l2.37.07-.58,2.81ZM489.05,873.21l-2.95.85-.56-.47,3.51-1.31v.93ZM491.08,857.59c-2.49,2.84-2.37,3.05-1.02,6.12-.09.12-1.22.01-1.69.41-7.36,6.25-5.65.05-7.46-1.1-1.17-.75-16.95.42-19.35.95-1.02.22-.85,1.4-1.74,1.73-1.2.45-6.89,1.21-7.43.78l2.43-5.12c-1.78-.95-3.05-.03-2.43-2.44l8.16.13,1.34-6.46c5.42.12,1.69,3.83,2.36,6.69,4.89-.06,11.2,1.98,10.67-3.46l4.16,1.17,2.23-1.85,4.2,1.01-1.16-7.57,2.48,3.74,4.55.71c-1.97,1.29-.01,3.32-.31,4.56ZM481.99,842.84c.74-2.38,6.24-2.07,5.9-4.5l1.32,2.77,3.37.21c0,7.14-5.29.51-10.6,1.52ZM497.87,836.79v-.94c.76.34.76.65,0,.94ZM509.59,825.92c.76.34.76.65,0,.94v-.94ZM510.77,863.51l-2.93-2.9,3.51.1-.58,2.79ZM507.84,854.04l3.5.11c1.56,1.3-4.78,5.6-3.5-.11ZM516.04,856.17l-1.18-3.78,1.15.04,2.35,3.81-2.32-.07ZM523.02,826.39l-1.15-.04v-1.87l1.15.04v1.87ZM523.04,835.77v-1.87s2.32.08,2.32.08l-2.32,1.79ZM530.01,863.16c-3.79,2.54-2.52-10.4-3.48-12.28l4.41,3.53-.93,8.75ZM554.38,832.17l1.14.04v1.86l-1.14-.04v-1.86ZM553.21,840.52l-2.9.83-.55-.46,3.45-1.28v.92ZM554.38,856.43v-1.86s3.46.11,3.46.11c.56.38-2.02,2.4-3.46,1.75ZM586.01,819.34c.74.34.74.65,0,.93v-.93ZM582.58,822.93c.74.34.74.65,0,.93v-.93ZM575.69,821.79c3.12-.59,1.84-3.07,5.16-2.64v3.71c-1.61.09-3.49-.41-5.02-.22-1.36.17.08,2.31-1.85,1.83-.07-2.59-1.12-2.15,1.72-2.68ZM571.09,839.27v-.93c.75.34.75.65,0,.93ZM577.4,840.41l-1.13-.04v-3.71l1.13.04v3.71ZM575.78,830.17c-2.06.44-.78,3.54-4.12,2.59l2.44-4.44,11.34.29v2.77c-3.8,1.5-6.76-1.83-9.67-1.2ZM587.72,870.48l-1.12-.04c.22-1.31-.67-2.02-2.29-1.94v-1.84s3.41.1,3.41.1v3.71ZM590.01,834.34l-1.13-.04v-1.85l1.13.04v1.85ZM606.01,846.94l1.12.04v3.7l-1.12-.04v-3.7ZM601.45,853.29l3.41.11v.91l-3.41-.11v-.91ZM599.17,870.83l1.12.03v1.85l-1.12-.03v-1.85ZM596.87,831.8v1.85c-1.69.24-2.37-.49-3.42-1.51l3.42-.34ZM596.31,867.95l-1.7-1.43,1.13-2.29,2.28.07-1.71,3.65ZM599.17,881.02l-1.13-2.35c1.39-1.73,3.34-1.38,5.68-1.22,1.03.88-2.45,4.24-4.55,3.57ZM602.56,867.72l-1.12-2.39,4.52.07.04-2.72c3.7-.48,1.3,3.01,6.82,2.06,1.41-3.63-4.61-3.62-4.57-6.16,3.66-.59,1.44-3.27,4.01-4.96l.85,2.59,1.21.3.78,1.82-3.42-.1v2.77s4.4.25,4.4.25l1.29,6.4-14.82.06ZM627.01,853.17c.74.33.74.64,0,.92v-.92ZM628.43,864.13c-.52.94-4.9,2.7-6.52,1.81l1.14-5.51c2.58.27,7.31.43,5.38,3.7ZM642.73,834.39l.67-2.8,1.79,1.94c4.94,1.67,4.86-5.7,8.33-.68-6.26.41-2.17,4.52-2.21,6.77-5.22,1.65.61,3.96-5.66,3.11v-3.7s-4.38-.25-4.38-.25l-2.39-4.13,3.84-.26ZM637.75,840.61c.27.2-3.37,4.39-4.51,4.45.64-2.4.23-5.55,4.51-4.45ZM638.88,855.39l-4.52-.14,2.27-3.6,1.11.03,1.14,3.71ZM630.41,835.74v-.92c.73.33.73.64,0,.92ZM634.93,882.95v-.92c.73.33.73.64,0,.92ZM645.09,867.49c-3.92-.11-7.37,1.51-11.84-.28-.14-1.78,3.26-.52,4.9-.77,1.95-3.1,9.16-3.69,13.14-4.2l-1.13-10.15,3.37-.82v6.44s3.39.11,3.39.11l-2.29,7.74,3.41.57v2.75c-4.39.7-8.96-1.28-12.93-1.4ZM656.9,856.9v-1.84s2.24.08,2.24.08l-2.24,1.76ZM660.25,834.01l-1.1-.04v-2.75l1.1.04v2.75ZM660.82,847.83v-.92c.73.33.73.64,0,.92ZM680.95,860.41c.72.33.72.63,0,.92v-.92ZM664.75,848.88c.88,1.18,4.95,3.57,5.34,4.03.72.87.09,2.43.24,3.49-5.51-2.18-7.03-2.17-5.58-7.53ZM670.35,860.07v-.9c1.08-.38,5.56,1.82,5.56,2.47l-.53.42-5.03-1.99ZM674.82,867.56v-1.83s2.22.07,2.22.07l-2.22,1.76ZM676.49,851.1v-.92c.73.33.73.64,0,.92ZM678.16,830.97l-5.58-.2v-.9l5.58.2v.9ZM680.4,865.89v-.9l2.79-.82.53.45-3.32,1.27ZM683.18,845.82v-.92c.72.33.72.64,0,.92ZM684.29,839.43c-2.42.07-.25-7.87-1.66-9.21l4.19,1.27c2.34,1.5-1.14,7.9-2.53,7.94ZM694.31,871.79c-1.35-1.22-3.21-2.01-2.78-3.73l2.21.06,1.1,3.25-.53.42ZM694.86,832.48l-3.32-.12v-1.82l3.32.12v1.82ZM700.4,868.33l-1.09-.03v-1.82l1.09.03v1.82ZM698.19,856.84l1.66-1.31,1.66,1.86-3.32-.55ZM699.3,849.09v-.9s4.42-.77,4.42-.77v1.82s-4.42-.15-4.42-.15ZM704.84,817.3c-.54-.38,1.93-2.34,3.32-1.69v1.82l-3.32-.13ZM723.07,865.38c.72.33.72.63,0,.91v-.91ZM721.96,838.92c.72.33.72.63,0,.91v-.91ZM728.03,874.64c1.83-.33.64,1.25,1.27,1.66,8.73.38,4.82,6.07.36,10.22l-.64-2.65-8.71-2.18c-1.16-4.42,8.76,1.75,7.72-7.05ZM719.21,903.54v-.9s3.29-.84,3.29-.84v1.82s-3.29-.09-3.29-.09ZM710.38,890.54l6.17-2.48c3.76.11,6.78-2.19,10.28-.63l1.18,8.15-2.19-5.53-15.44.49ZM733.02,903.87c-5.72-1.89-6.23-2.46-4.99-7.38l1.11,2.76c5.49,1.09,6.06-2.84,9.33-5.2l-.27,5.27,1.9.66c-2.01,2.32-6.1,1.05-7.08,3.89ZM749.41,872.55l.44,2.65-3.17.9c-.44-1.75,1.41-2.4,2.73-3.55ZM743.39,884.17c-.79-1.64,1.29-4.57,3.13-3.39.34.22.23,2.25,3.43,2.21l-6.56,1.18ZM754.87,889.94v-.91c.71.32.71.62,0,.91ZM760.33,883.73l-3.83-1v-1.81s3.27.09,3.27.09l1.08,2.31-.52.42ZM769.57,877.67l-4.34-.13v-.89l4.34.13v.89ZM821.33,875.23c1.02.22,2.53,1.82,4.31,1.41.79,4.06-3.55-1.66-4.28,6.46l-3.22.49,2.19-4.8c-3.91-1.23-2.68-4.34.99-3.56ZM809.57,889.65l1.06.03v1.79l-1.06-.03v-1.79ZM805.27,872.41l3.21,1.01-6.44,3.39c.12-2.04,3.92-.12,3.24-4.41ZM803.64,885.88v-.9c.7.32.7.62,0,.9ZM789.62,918.87v-.9c.7.32.7.62,0,.9ZM785.83,883.57l-3.24-1.02c1.78-3.42.51-5.94-.01-9.46l2.16-.39c.42,4.97,6.91.8,8.22,4.82l5.83-.79c-2.69,2.41-2.34,4.84-2.16,8.04l-1.54-4.61c-4.12-2.5-9.51-.7-9.26,3.41ZM790.7,896.34v-.9c.7.32.7.62,0,.9ZM806.33,914.76c-3.48-1.72-5.69-1.25-8.6.7l-.02-2.71-6.46-.61c.89-1.63,6.29-.05,6.47-.29l.02-2.69,9.67,1.14-1.08,4.47ZM829.85,898.83l1.12,5.76-1.72-1.87-6.83-.15c.42,4.54-1.81,8.09,0,12.58-3.97-3.03-6.44-1.53-9.62-1.57,2.53-1.52,2.38-3.03,1.15-5.3-.9-1.15-3.03-.19-4.17-.8-2.82-3.75-2.66-8.91-9.94-5.06-1.41,1.22-.2,3.28-2.12,3.12-.12-4.98,2-8.23.35-13.35-.62-1.93-3.06-3.01-1.5-5.03l4.37-1.35,2.23,9.91,7.46-.64c-3.54,1.06-.84,11.02.13,11.58.6.35,5.46.46,6.12.09.46-.26.57-1.56,1.22-2.07,2.76-2.16,2.73.04,3.26-3.94-.63-.12-1.45.04-2.14-.06l1.07-3.55c-1.68-.06-3.87-.2-4.29-1.91,3.26-.01,8.23-1.45,11.26-1.08,3.22.4,7.8,3.11,2.59,4.68ZM840.04,885.11c.69.32.69.62,0,.9v-.9ZM840.59,892.32l-1.05-1.81c-.82-.17-1.71-.35-1.08-1.85l1.08,1.85c.5.1.98.2,1.08.58.09.37.04.8-.02,1.23l1.05,1.8c-1.38.1-1.19-.82-1.05-1.8ZM845.36,893.32v-.9c.69.32.69.62,0,.9ZM846.43,888.88v-.9c.69.32.69.62,0,.9ZM845.89,886.18l-3.18-.99v-.88s4.25-.77,4.25-.77l-1.07,2.65ZM842.7,916.53l-1.05-.03v-1.78l1.05.03v1.78ZM851.74,914.96v-.89c.69.31.69.61,0,.89ZM857.03,915.07l-.5-.44,1.05-2.21,1.04.03-1.59,2.62ZM861.81,909.4l1.58-1.29,1.59,1.8-3.17-.52ZM874.41,912.79l-3.08-.47,4.2-3.92-1.12,4.38ZM915.86,881.07c.68.32.68.61,0,.89v-.89ZM889.73,865.19c.68.32.68.61,0,.89v-.89ZM889.72,877.65l1.57,1.37-.5.41-1.57-1.37.5-.41ZM866.03,885.85l-4.08-1.13-.14-3.45c1.71-.31.62,1.08,1.32,1.59,1.36.98,3.82-.96,2.9,2.99ZM864.98,868.86c1.68-2.42,7.67-.46,10.56-.55l-.52,1.75c-2.92-1.74-6.74-.85-10.04-1.2ZM871.85,878.89c1.06,3.24,4.42,4.57,2.63,8.1-5.36-.68-9.31-6.03-2.63-8.1ZM875.73,889.82l.84,3.04-2.09.37v-5.34l3.15,1.86-1.91.08ZM890.21,909.33c-.64,2.71,1.89,4.6-3.1,3.81l-.16-2.49c-6-.53-9.89-5.53-1.14-3.51.35,3.17,4.28.8,6.53.8.46,1.51-1.89.33-2.14,1.38ZM894.83,903.5c-4.25-.74-4.99,3.62-6.28-.13l-7.1-.18-.71,1.19-1.55-.33,1.08-7.98c2.86,1.47-.87,3.56,1.53,4.96,4.48,2.61,8.5-.41,7.4-4.73l-4.74.74-.51-1.78c2.63,1.11,3.45-1.72,3.75-1.71,2.01.07,4.14,1.99,7.18.3,1.5-.83-.73-3.47,2.7-2.66l1.04,16.9-3.8-4.59ZM906.06,874.62l4.06,1c1.65,3.8-4.83,3.32-6.04,4.46-.65.61.25,3.06-3.34,3.22l-1.06-3.58c3.8.5,5.28-2.56,6.38-5.1ZM901.79,887.77l1.03.03v2.66s-2.08-.06-2.08-.06l1.06-2.62ZM910.65,911.06v-.89c.68.31.68.61,0,.89ZM913.02,898.48c-2.28-.98-5.35-.81-7.73-1.6-1.67-.56-1.56-2.7-4.55-2.05,1.14-3.45,7.96,1.57,9.39.27l.02-3.93-4.19-.62,3.09-.84c1.06-3.24-2.17-3.7-3.09-6.71l2.07-.37.04,2.6,4.14.19-.83,5.12c2.51,1.34,3.52,3.29,7.08,3.03-1.44,2.67-3.06,5.04-1.04,7.93-2.93.53-1.78-1.88-4.4-3ZM919.5,913.05l-2.07-.05v-1.76l2.07.05v1.76ZM929.38,860.25c.67.32.67.61,0,.88v-.88ZM930.93,877.99l-1,3.85,3.07,2.38-6.22-.18c1.66-1.66.43-6.69,4.15-6.05ZM935.12,917.89c1.13,4.92-4.31,8.54-9.99,5.07l.62-7.1,1.14,1.66c5.14,1.28,6.46-3.87,11.07-2.93l2.28,2.06c-.92,1.76-4.69.92-5.13,1.24ZM943.34,915.41l-1.17-2.59c-1.97-.4-3.54.61-2.95-1.92l5.14.56-1.02,3.95ZM945.44,898.1c-.72,1.14-5.46,1.29-7.26,1.3l.23,2.53,1.84.18-4.12,3.41c.55-2.76-2.77-1.7-5.19-1.9.25,1.77-.43,3.98,0,5.63.17.65,3.3.7,2.09,3.27l-6.22.74c-3.46-6.7,6.35-4.68-.06-17.14.75-1.43,4.76-2.15,5.05-2.36.89-.66-1.1-3.23,2.26-2.42l-.67,3.53-3.48-.11v3.53s7.26.2,7.26.2l-1.03-3.55c1.94-1.37,10.87,4.16,9.31-1.51,2.04-.17.22,4.36.02,4.68ZM949.53,904.98l-1.01-.03v-1.76l1.01.03v1.76ZM950.56,884.74l-3.08-1.86v-.86c3.31.6,1.8-3.07,4.11-3.41l-1.03,6.13ZM999.18,872.15c.66.31.66.6,0,.88v-.88ZM995.62,881.68l2.02.06v2.62l-2.02-.06v-2.62ZM994.09,886.88c.66.31.66.6,0,.88v-.88ZM991.56,887.69l1,.03v2.62l-1-.03v-2.62ZM991.04,860.51c.66.31.66.61,0,.88v-.88ZM990.53,875.38c-3.51.03-7.14,1.63-9.18-2.02,2.72-.43,7.68-.59,9.18,2.02ZM990.02,881.51v-.88c.66.31.66.6,0,.88ZM984.41,879.59v2.62l-1-.03v-2.62l1,.03ZM980.33,872.45v.86s-2.56.79-2.56.79l-1.52-1.35,4.08-.3ZM954.7,897.19v-1.74s4.1-1.66,4.1-1.66c-.22,2.42-.65,4.06-4.1,3.41ZM955.21,887.52v-.88c.67.31.67.61,0,.88ZM956.75,885.8l1.02-7.89c-.76-.68-7.19,2.29-4.12-.58,2.74-.39,9.85-1.68,11.03-3.84.85-1.56-.8-3.9,3.04-3.91,2.4,0,3.87,2.59,3.4,4.32-3.06-.35-11.9,3.68-9.1,6.67,1.77.25,4.4.52,3.98,2.85l-7.18-1.09-2.06,3.46ZM971.12,891.47l-3.07.81c-.13-1.69-.23-3.34,1.53-4.35l1.53,3.54ZM971.64,904.68v-.88c.67.31.67.6,0,.88ZM966.49,899.25c-2.24,3.15-.62,7.25.03,10.56-3.17-1.27-2.69-1.49-2.65-4.41l-2.93-.15c-.68-.38.49-6.07,1.46-6.98,1.07-1,3.14-.57,3.47-.86,1.07-.94-1.68-5.21,2.17-4.24-.87,3.51,1.48,2.18,2.73,2.99.86,2.94,5.02,1.3,5.46,3.38-2.88,1.5-7.61-3.12-9.75-.27ZM989.53,917.85l4.92-.12.32,1.39,3.89-.17c-2.63,2.37-7.04,1.58-9.12-1.1ZM1007.72,916.44c.17,1.05,2.55-.01,2.1,1.46l-7.1-1.04c-.68-2.79,2.01-1.51,4.07-1.65.08-5.94-1.51-13.91-10.13-9.41-2.19,1.15-1.19,3.51-4.1,2.92l-.1-5.18-8.41-1.05c-1.05.27-1.49,1.03-1.94,1.8-1.96,3.26,2.04,4.3,3.32,7.76-3.83.81.58-3.57-10.2-2.44,1.3-2.33,1.43-1.92,4.13-2.56.99-4.45-3.18-3.5-1.99-7.4,3.92-.56,6.02-3.01,10.1-1.57l2.55-6.07.56,2.59,3,.13c-.16-1.65,2.34-.35,3.8-1.03.23-2.31,4.06-1.25,5.77-2.13.84-.47.27-3.46,3.62-3.47l-1.01,8.71c-.61.54-6.51-2.89-6.05.22,1.34,9.01,6.13,5.76,12.12,1.69-.46,3.71-3.77,6.08-4.09,9.97.31,2.76.64,5.09-.03,7.73ZM1011.35,924.93v-.87c.66.31.66.6,0,.87ZM1010.84,918.8v-.86s3.02-.81,3.02-.81v1.74s-3.02-.08-3.02-.08ZM1014.88,873.51l-4.04-1c.54-1.72,2.15-1.89,4.04-1.61v2.61ZM1031.53,914.95c.65.31.65.6,0,.87v-.87ZM1025.49,896.5c.65.31.65.6,0,.87v-.87ZM1020.44,876.3c.66.31.66.6,0,.87v-.87ZM1018.94,897.19c-1.13-1.19,2.4-7.74,4.02-5.99.73,3.89-.27,4.52-4.02,5.99ZM1025.98,907.84l-.99-.03v-2.61l.99.03v2.61ZM1026,872.12l.99.03v1.74l-.99-.03v-1.74ZM1035.04,928.09c-1.72.13-.78-2.01-2.62-2.56-1.95-.59-4.81.59-6.42-1.57,3.22.63,6.78.68,10.04-.19l-1.01,4.32ZM1040.57,904.74v-.87c.65.31.65.6,0,.87ZM1063.07,894.95c.49.35-1.74,2.24-2.99,1.64v-1.73l2.99.09ZM1051.59,885.07c.65.31.65.6,0,.87v-.87ZM1049.59,873.72c.65.31.65.6,0,.87v-.87ZM1053.08,916.35l-.98-.02v-2.6l.98.02v2.6ZM1058.07,924.28l-.98-.02v-1.73l.98.02v1.73ZM1055.09,907.73c-.06-.86.06-1.74,0-2.6-1.25-.03-2.57.24-3.73-.35-.2-.1-3-2.51-2.26-3.28l5.9,2c.33.53.05,1.09.09,1.63,3.3.07,6.51-1.62,6.98,2.78-2.64-.82-4.33-.95-6.97-.18ZM1064.06,913.17c-4.47.3-.78-3.69,1-4.3l-1,4.3ZM1072.03,873.56l.98.03v1.72l-.98-.03v-1.72ZM1075,914.3l-.98-.02c.27-1.79-1.09-2.94-2-4.37l2.98.07v4.33ZM1086.4,898.18v-.86c.64.31.64.59,0,.86ZM1087.38,912.01l-.47-.42.98-3,.97.02c.24,1.6.05,2.52-1.48,3.4ZM1086.9,902.52l4.9,1.04c1.33,5.88-6.53.2-4.9-1.04ZM1185.34,893.26l.94.03v4.25l-.94-.03v-4.25ZM1136.97,897.87l1.94.05v.84l-1.94-.05v-.84ZM1135.03,898.67l.96.03v2.56l-.96-.03v-2.56ZM1129.66,893.37c.63.3.63.59,0,.86v-.86ZM1126.24,896.71c1.95.51,2.2,1.89,1.94,3.49-1.95-.51-2.2-1.89-1.94-3.49ZM1123.29,893.19c.98.67.54,5.81-.47,6.85l-2.48-1.36v-1.72c3.76.36-.48-6.12,2.95-3.77ZM1120.85,877.66c.64.31.64.59,0,.86v-.86ZM1119.88,866.46c.64.31.64.59,0,.86v-.86ZM1105.15,898.7c.64.3.64.59,0,.86v-.86ZM1097.27,925.21v-.86c.64.3.64.59,0,.86ZM1134.99,912.7c.26,1.04,2.4,0,1.98,1.44l-2.93,2.5,6.82.18c.33,2.04-2.95,3.64-2.97,3.89-.26,2.81,2.98,6.34-3.85,5.37v-4.29c-2.59.01-4.56-.99-5.31,1.49l-2.89-.79-1.73,2.34-2.77.09v-2.58c-2.18.13-5,.58-7.1-.18-1.35-.49-.72-2.24-3.19-2.69-3.14-.57-2.27,1.59-2.91,1.57-3.33-.08-7.18-.58-10.68.74-1.14.43-.02,2.41-2.66,1.64l2.97-11.13-3.84-.19-1.1-3.38,5.92-.72-.99-3.46c3.41.39,5.2-.06,4.94-3.32l12,3.85c1.2,2.18,2.81,1.41,4.61,2.23,2.24,1.02,4.32,3.72,7.9,3.17.71-3.25-.79-4.6-2.93-6.93l4.84-.7c.37,1.91,1.6,5.07,4.42,4.36,1.74-2.89,2.55-2.83,6.36-2.38l.96-5.11c0,1.71.26,7.32,1.26,8.41.49.54,2.06-.3,1.66,1.08l-8.76-.22c.16,1.2-.31,2.65-.03,3.75ZM1149.6,922.16c-2.72-.02-1.72-2.61-5.65-1.97l-1.15-2.06,2.05-.86-1.06-3.8,8.73-.64-2.91,9.33ZM1149.62,907.63l3.37-1.63,3.41,2.65-6.78-1.02ZM1159.24,917.65l-.91,5.59-2.9-.08c-.66-.58,1.77-6.98,2.85-7.91,1.02-.88,3.59-.4,4.41-3l1.44,5.15-4.9.25ZM1164.96,906.08c-.28-.97-1.69-1.4-1.79-2.36.77-.53,8.82,2.36,10.46.11.6-.83-.67-2.66,1.11-2.35-.09,2.64,1.12,7.07-2.79,6.64l-.65-1.65c-3.15-.7-3.58,1.8-6.68,2.4-.6-.81.7-1.57.35-2.78ZM1170.91,930.35l-2.9-3.46,3.85-1.62-.95,5.08ZM1182.44,935.72l-1.91-.04v-.84l1.91.04v.84ZM1192.03,941.03c-2.03.15-.28-2.58-1.06-3.33-.72-.69-5.1-.17-4.22-5.27,1.34.48,2.07,2.97,2.58,3.28.88.54,2.55.13,3.65.25l-.97,5.07ZM1209.71,914.3l-.94-1.74c-.75-.76-3.83,1.46-4.02,1.81-1.65,2.96,2.45,5.94,1.63,6.62-3.39.76-2.89-3.57-7.46-.86l-2.1,10.81-3.81-3.47c2.87.46,3.29-5.24,2.7-7-1.27-3.76-4.71-1.39-6.81-1.75-4.19-3.02-12.2-.98-15.53-.3-1.66.02-4.2-1.48-6.32-.96l.99-2.52c4.16,2.27,7.14-1.78,11.38-1.56l1.61-11.74c1.13.49-.05,2.31.66,3.27.34.46,2.4.7,2.7,1.5,1.18,3.15-1.91,1.59-2.69,2.18-1.12.85-2.53,6.64,1.28,7.53,4.87,1.15,10.75,1.77,11-3.93l.96,2.57c.6.83,8.17-1.66,8.54-2.86-.16-6.65-6.42-3.93-11.42-4.03-.14-1.37,2.02-.97,3.17-1.6.82-.45.7-2.29,3.4-1.68l.12-5.87,5.72-.7c.29,1.29.5,2.91,1.28,4.02.36.52,2.68,1.68,3.19,2.95l6.02-.75.96,5.1c-5.63-.95-3.83,2.28-6.2,4.92ZM1219.23,917.93v-.85c.62.3.62.58,0,.85ZM1219.7,913.7l-1.89-.05v-.83l1.89.05v.83ZM1218.02,902.49c-.42-.27-.31-1.13-.69-1.53l1.42-1.66,2.85,3.89c-.7.15-3.23-.48-3.57-.7ZM1239.12,936.14c.61.29.61.58,0,.84v-.84ZM1229.66,865.82c.61.3.61.58,0,.84v-.84ZM1230.12,903.85c-.1.48,0,.98.37,1.35.36.36.98.4,1.51.41l.02,1.66-2.75-.98-.07-2.47.93.03ZM1224.44,921.43l-1.82-4.77c.49-3.32.91.27,1.02.33,1.25.64,3.16.12,4.6.31l-3.8,4.12ZM1233.38,922.43c-1.29,1.52,1.17,4.99-2.3,4.23,1.02-2.07,1.46-10.46-1.89-10.19v-.83c3.6.09-.07-4.75,6.13-4.08,1.76,1.98-.67,1.85-2.35,1.64v2.53s3.78.1,3.78.1v-1.68s1.89.05,1.89.05v1.68s-1.89-.05-1.89-.05l-.11,5.81-3.26.78ZM1236.76,937.78l1.87.05c-.14,1.19.56,1.86,1.9,1.73v.83c-2.25.25-4.02-.49-3.77-2.6ZM1243.36,918.53l-.93-.02v-3.37l.93.02v3.37ZM1257.94,904.6l2.33,3.01-.45.39c-.67-.81-1.26-1-2.36-.89l.47-2.51ZM1245.72,901.74c.61.3.61.58,0,.84v-.84ZM1244.31,910.13c-1.46-5.33,4.72-2.52,3.76-6.64l4.69,1,.02,2.5-3.78-.11v3.38c-1.84-.94-2.85-.97-4.69-.12ZM1246.66,932.1v-.84c.61.29.61.58,0,.84ZM1254.65,926.39l-.92-.02v-1.68l.92.02v1.68ZM1254.66,932.27l1.41-1.64.46,1.69-1.87-.05ZM1264.75,915.55c-3.13.68-3.48,5.96-3.52,8.48-5.16.71-4.83-5.71-9.09-5.5-1.7-1.17-1.19-3.95-5.94-1.61v-2.52c3.1,1.19,6.26-.95,7.97-1.1,1.72-.14,4.89,1.15,7.06.65v-3.37c1.69.72,4.78,3.33,3.51,4.98ZM1265.45,935.89v-.84c.61.29.61.57,0,.84ZM1266.85,907.36l-2.8-.08v-.83l2.8.08v.83ZM1300.37,899.91l-2.77-.08v-.82l2.77.08v.82ZM1308.7,892.64v-2.5s2.76.08,2.76.08v1.66s-2.76.76-2.76.76ZM1338.12,897.65l-1.82-.05v-.82l1.82.05v.82ZM1354.1,907.23c.59.29.59.57,0,.83v-.83ZM1367.73,884.46v-.83c.59.29.59.57,0,.83ZM1446.53,882.82v-.82c.57.29.57.56,0,.82ZM1466.8,921.7v-.81c.57.29.57.56,0,.81ZM1510.85,910.71l-.04,2.37-3.42.77v-3.23s3.46.09,3.46.09ZM1503.48,910.5c.56.29.56.55,0,.81v-.81ZM1501.75,916.93c.56.28.56.55,0,.81v-.81ZM1479.08,914.71v-.81c.57.29.57.56,0,.81ZM1483.02,915.62c.2-1.06-.61-1.83-1.75-1.68v-.8s1.3.03,1.3.03l1.31,2.46-.86-.02ZM1488.25,910.08l-2.61-.07v-.8l2.61.07v.8ZM1489.99,899.6l-1.77,1.26c-.58,5.12,1.41,2.46,1.77,4.41l-3.51-.61-.96-3.47-3.38-.19c-.52,1.95,1.52,3.36,1.51,5.16-.01,2.85-2.45,3.12-3.7,5.33l-3.02-5.42,1.79-.79-.59-2.8,3.13-.71c1.03-2.39-1.61-2.38-1.76-2.98-.65-2.62,1.71-5.12.01-7.6l2.56.11c.48.3.62,3.41.99,4.25.33.76,2.78,1.02,1.69,3.9l5.23.16ZM1500.88,888.59v-.81c.56.29.56.56,0,.81ZM1526.4,882.12l-.85-.03v-2.41l.85.03v2.41ZM1545.73,888.37v-.8c.56.29.56.55,0,.8ZM1546.59,880.36v-.8c.56.29.56.55,0,.8ZM1580.64,883.87v-.8c.55.28.55.55,0,.8ZM1587.82,884.1l-1.68-.05v-.79l1.68.05v.79ZM1586.99,876.1v-2.39s1.68.06,1.68.06c.55,1.01-1.35,2.73-1.68,2.33ZM1594.15,876.34v-.8c.55.28.55.55,0,.8ZM1616.4,877.08l-1.67-.06v-1.58l1.67.06v1.58ZM1618.07,869.99l-.82-.03v-1.58l.82.03v1.58ZM1632.26,866.52l-.82-.03v-1.58l.82.03v1.58ZM1653.82,880.7l-2.47.71v-1.58s2.47.09,2.47.09v.78ZM1656.31,880.78v-.78s2.47-.71,2.47-.71v1.57s-2.47-.08-2.47-.08ZM1697.3,871.95l-4.88-.17v-.77l4.88.17v.77ZM1706.26,879.31v-2.34s.8.03.8.03c-.1.44,0,.92.34,1.26.34.33.83.45,1.29.37v.77s-2.43-.08-2.43-.08ZM1798.98,872.42l-3.15-.89v-1.53s3.15.11,3.15.11v2.31ZM1802.52,876.39v-.77c.51.27.51.53,0,.77ZM1806.37,871.21c-1.11-.42-1.33.22-1.09-1.65l5.82-.46c1.17.25,1.4,2.73,2.02,3.8-2.12-.64-4.75-.93-6.75-1.7ZM1815.47,871.46l3.18-2.51,2.29-.37.4,3.07c-1.81-1.66-3.86-.05-5.87-.2ZM1824.84,846.49c0-2.22,2.08,1.95,4.68-5.17l1.55,6.95c-3.38.76-2.85-2.56-6.23-1.78Z"/>
      <polygon points="705.94 893.17 702.63 893.08 702.63 896.73 705.94 896.81 705.94 893.17"/>
      <path d="M575.75,861.81c.79-1.26,5.48-3.93,1.72-6.09-6.28-3.62-6.81,5.48-9.21,6.29l-9.28-.75c-.9,5.18,1.19,2.95,3.13,4.04,1.01.57,1.96,4.64,4.96,2.05v-2.13c8.31,3.07,6.39.24,8.68-3.4Z"/>
      <path d="M1464.6,901.3c-1.39-1.33-4.03,1.03-2.63,2.36,1.4,1.33,4.03-1.03,2.63-2.36Z"/>
      <path d="M1255.6,939.87c1.49,1.37,4.3-1.09,2.81-2.45-1.49-1.37-4.3,1.09-2.81,2.45Z"/>
      <path d="M1470.75,901.47v-3.25c-6.6-1.44-5.83,3.61,0,3.25Z"/>
      <path d="M1040.02,943.04l-5.37-.98-1.63,3.41-4.01-.96c-2.08,8.72,12.28,2.21,11.01-1.47Z"/>
      <path d="M170.67,948.65c-.61,1.99-4.4.2-7.15,1.76-7.27,6.51,10.62,6.15,14.7,3.16,2.05-4.36-5.28-3.42-6.25-5.89,6.24,1.52,6-2.79,11.53-1.77.22-2.25-.28-4.64,0-6.87-5,.83-6.78.6-6.41,5.77l-1.35-2.9-10.19-1.24-.05,2.88-5.11-.02v3.93s10.29,1.18,10.29,1.18Z"/>
      <path d="M280.73,908.89c1.98,1.58,5.7-1.23,3.73-2.81-1.98-1.58-5.7,1.23-3.73,2.81Z"/>
      <polygon points="288.19 917.79 288.19 912.94 284.46 912.85 284.46 917.71 288.19 917.79"/>
      <polygon points="264.49 913.38 250.68 913.07 250.69 915.97 264.49 917.26 264.49 913.38"/>
      <polygon points="316.69 905.88 320.36 905.95 321.62 900.21 316.69 900.08 316.69 905.88"/>
      <path d="M272.99,919.14c.24-.09.24-1.02.7-1.28,11.26-6.27,0-6.58-7.96-5.43-1.11,3.3,1.68,2.56,2.55,3.61,1.44,1.75.37,4.7,4.72,3.09Z"/>
      <path d="M711.48,952.64c-1.75-1.48-5.06,1.19-3.31,2.67,1.75,1.48,5.06-1.19,3.31-2.67Z"/>
      <polygon points="156.53 937.56 156.53 941.49 160.39 941.57 160.39 937.63 156.53 937.56"/>
      <polygon points="207.73 919.93 207.73 923.84 211.53 923.92 211.53 920.01 207.73 919.93"/>
      <path d="M171.96,938.83l6.24-1.01c.5-1.22.12-2.52.17-3.78-4.25.32-6.79.77-6.41,4.79Z"/>
      <polygon points="191.16 948.02 191.16 951.94 194.98 952.01 194.98 948.09 191.16 948.02"/>
      <polygon points="679.37 928.15 682.62 928.28 682.62 923.69 678.17 923.6 679.37 928.15"/>
      <path d="M887.06,928.29l-6.26.73c-.1,6.38,10.24,6.38,6.26-.73Z"/>
      <path d="M876.48,945.77l-.03-3.37-7.25-1.15c.37,6.14.47,5.8,7.28,4.52Z"/>
      <path d="M863.92,967.02c3.54.63,3.99-1.05,4.22-3.49l-4.22-.07v3.56Z"/>
      <polygon points="868.14 952.83 864.98 952.77 864.98 956.33 868.14 956.39 868.14 952.83"/>
      <polygon points="853.33 967.74 857.57 967.81 857.57 965.14 853.33 965.07 853.33 967.74"/>
      <polygon points="879.75 945.91 883.95 946 883.95 942.44 879.75 942.36 879.75 945.91"/>
      <polygon points="877.64 956.56 881.84 956.64 881.84 953.08 877.64 953.01 877.64 956.56"/>
      <path d="M898.63,926.75l-8.22.83-1.2,6.07c4.8.09,10.39-2.16,9.42-6.9Z"/>
      <path d="M1148.64,914.45c-1.54-1.4-4.45,1.09-2.91,2.49,1.54,1.4,4.45-1.09,2.91-2.49Z"/>
      <polygon points="873.98 971.68 874.47 968.1 870.76 968.9 870.26 972.48 873.98 971.68"/>
      <path d="M1099.73,911.91v6.46c5.81,1.34,5.45-8.52,0-6.46Z"/>
      <path d="M869.2,959.98c-1.68-1.44-4.84,1.17-3.16,2.61,1.68,1.44,4.83-1.17,3.16-2.61Z"/>
      <path d="M1118.81,909.33l-7.28-.12v-3.45s-5.47.66-5.47.66l-.48,3,2.01.55v.84c-3.61.07-3.08,2.6-2.95,5.1,7.45-.82,3.24,2.76,7.87,1.92l.98-5.13c.44,1.14.57,3.81,1.6,4.41.93.54,7.02,2.01,7.99,1.64.15-.06,2.15-1.88,2.18-2.02,1.18-5.29-5.92-2.17-6.46-7.4Z"/>
      <path d="M1133.07,920.05c1.55,1.4,4.46-1.1,2.92-2.49-1.55-1.4-4.47,1.09-2.92,2.49Z"/>
      <path d="M926.79,953.47v-3.98s-4.16-.07-4.16-.07c-.56,2.75.75,5.67,4.16,4.05Z"/>
      <path d="M977.27,968.03l4.97-.02,1.15-5.13c-1.54-1.37-7.74,3.79-6.12,5.15Z"/>
      <polygon points="731.32 909.32 731.32 912.95 734.61 913.03 734.61 909.4 731.32 909.32"/>
      <polygon points="972.12 942.47 969.08 942.41 969.08 948.56 973.17 948.64 972.12 942.47"/>
      <path d="M985.44,945.37v-7.89c-3.31.1-4.63,2-8.17.71.22,3.62-5.05,3.51-2.97,8.63,1.63.01,4.06,1.34,5.41,1.02,1.4-.33,1.4-3.93,5.72-2.47Z"/>
      <path d="M1019.93,959.15c6.46,1.6,7.98.64,13.1-2.38l.08,2.54,3.94.15-3.01-2.67,4.02-.79c1.25-3.53-2.66-3.17-2.02-6.13-3.03-1.07-2.89,1.53-3.65,1.67-6.95,1.3-11.91-5.38-12.46,7.6Z"/>
      <polygon points="1010.88 945.08 1014.89 945.09 1014.89 941.6 1009.36 941.43 1008.81 944.09 1004.76 942.26 1004.76 947.51 1010.79 947.55 1010.88 945.08"/>
      <path d="M1000.57,949.07c1.7-2.56,1.26-6.26-2.6-6.29-.77-.49-.83-2.1-1.9-2.41-6.63.21-4.03,4.79-2.36,8.57l6.86.13Z"/>
      <path d="M986.5,958.5c2.96.04,5.38,1.61,8.09.18l.06,2.56c3.82-.48,4.67,1.46,6.64,3.74,5.36-2.44,8.9-1.54,14.59-.68.89-5.1-.83-3.91-3.68-5.64-2.13-3.49-8.68-2.11-12.53-2.52l-1,3.48,1-6.1-3.04-.06-.05,2.55-7.07-.07,3.06-.81c-.65-7.52-8.21-1.64-6.07,3.35Z"/>
      <path d="M954.69,970.3l-7.12.84-.16,3.41h-3.02s0,2.63,0,2.63l7.29.63c1.11-3.21,4.2-3.57,3.02-7.51Z"/>
      <path d="M955.73,948.29c1.63,1.43,4.71-1.14,3.08-2.57-1.63-1.43-4.71,1.14-3.08,2.57Z"/>
      <path d="M887.02,968.37c-11.68-.94-12.53,9.76-.96,9.71-.49-3.79,3.6-5.95.96-9.71Z"/>
      <path d="M937.14,977.96c-1.64-1.43-4.74,1.17-3.1,2.6,1.64,1.43,4.74-1.17,3.1-2.6Z"/>
      <path d="M963.94,959.01v-3.51c-7.72-1.5-6.82,3.96,0,3.51Z"/>
      <path d="M967.03,941.49c-3.44.21-13.55-4.86-11.23,1.89.73,2.13,9.67,2.11,10.76.78l.47-2.67Z"/>
      <path d="M902.83,925.96c4.55.78,2.32-.96,3.47-2.29,3.13-.46,1.39-3.58,1.75-5.59l-3.13-.08c.98,3.84-3.58,3.6-2.09,7.95Z"/>
      <path d="M817.07,959.96c-3.6-.64-4.05,1.05-4.28,3.52l4.28.07v-3.59Z"/>
      <polygon points="1207.34 910.84 1210.19 910.92 1210.19 907.53 1207.34 907.46 1207.34 910.84"/>
      <path d="M812.78,968.87l9.64-.74c.81-5.05-5.39-3.49-9.65-3.76v4.5Z"/>
      <path d="M794.48,964.98c-4.33.09-3.92-3.98-8.64-2.86v5.43s4.33.06,4.33.06c-1.29,4.54,3.41,5.62,3.43,1.14,2.51.53,3.22-1.8,3.76-1.91,4.68-.9,6.82,2.39,11.05,1.92l2.21-8.9c-6.88-.96,1.28,5-16.1,2.46l-.04,2.67Z"/>
      <path d="M827.32,928.68l-3.81-.93-1.07,5.36,10.69-.67c1.07-3.66-3.14-1.76-2.15-5.43-.25-.49-3.67-.21-3.66,1.66Z"/>
      <path d="M771.74,964.6c-1.72-1.46-4.98,1.19-3.25,2.65,1.72,1.46,4.97-1.19,3.25-2.65Z"/>
      <polygon points="807.4 928.29 801.09 929.16 800.96 933.55 807.25 931.79 807.4 928.29"/>
      <path d="M783.67,959.38c-1.72-1.46-4.96,1.18-3.24,2.65,1.72,1.46,4.96-1.19,3.24-2.65Z"/>
      <polygon points="835.75 953.99 835.25 957.58 839.51 957.67 839.51 953.19 835.75 953.99"/>
      <path d="M776.08,953.82c-1.72-1.47-4.97,1.18-3.25,2.65,1.72,1.47,4.97-1.18,3.25-2.65Z"/>
      <polygon points="784.76 972.03 788 972.08 788 968.48 784.76 968.43 784.76 972.03"/>
      <polygon points="820.29 962.71 824.56 962.78 824.56 959.2 820.29 959.12 820.29 962.71"/>
      <path d="M869.07,924.42c-3.35-2.25-5.51.11-7.78.21-1.03.04-2.68-.99-3.57-.5-.38.21-4.44,5.98-2.87,7.01,1.1,1.52,7.49,2.68,8.91,1.76.58-.37-.56-1.97,1.2-1.56l1.66,4.53c5.44.3,6.44-4.17,12.01-3.39l1.11-7.94c-7.03-1.82-4.1,2.9-7.87,3.41-3.53.78-2.59-1.68-2.8-3.53Z"/>
      <polygon points="761.96 927.29 755.41 927.14 755.42 929.83 761.95 930.9 761.96 927.29"/>
      <polygon points="747.77 916.08 735.71 916.7 735.7 919.42 745.99 920.51 747.64 919.14 747.77 916.08"/>
    </g>
  </g>
</svg>