<?xml version="1.0" encoding="UTF-8"?>
<svg id="Capa_2" data-name="Capa 2" xmlns="http://www.w3.org/2000/svg" viewBox="0 0 264.38 231.4">
  <defs>
    <style>
      .cls-1 {
        fill: #fff;
      }
    </style>
  </defs>
  <g id="Capa_2-2" data-name="Capa 2">
    <g>
      <path class="cls-1" d="M199.57,44.47h.08C184.37,2.44,131.01-13.45,94.99,12.79c-44.89,35.06-34.67,101.96,19.12,121.28.21-.15.27-.39.17-.63-3.57-2.5-5.63-6.74-6.68-10.86,5.41,6.48,13.16,10.83,21.3,12.86,1.98.47,4,.67,6,1.05.5.07.81-.76.37-1.02-.3-.17-1.64-.16-2.05-.22-.44-.06-.89-.23-1.31-.35-10.5-3.22-20.35-9.76-26.03-19.32-.55-.74-1.4-3.67-2.44-3.26-.78,4.08-.41,8.4.75,12.37-14.36-7.29-25.43-20.91-30.14-36.27,0,0,.03.02.04.03-.06-.07-.13-.14-.21-.2C62.6,54.12,83.34,15.7,118.06,6.44c34.43-9.64,70.69,11.65,79.08,46.39,6.09,23.51-2.43,51.66-22.57,65.9-2.06,1.35-4.47,2.66-7.01,2.45-16.94-1.71-15.62-29.09-25.65-28.92,2.03-2.11,4.14-4.14,6.21-6.2,1.56-1.46,2.94-3.48,4.96-4.29.37.07.98.13,1.22.45.22.35.62.38.91.08.66-2.97-2.22-5.89-5.01-3.94-3,2.89-7.23,8.16-10.11,11.21-.06-5.63.11-14.68.12-20.42,3.44-2.93,8.46-4.67,12.94-4.95.89,2.11,1.62,4.32,2.4,6.48-3.96,2.02-2.74,5.08,1.55,4.88,2.22,5.41,4.91,13.48,7,19,1.24,3.33,2.94,6.93,1.77,10.52-.25.78-1.39,1.72-1.37,2.39.34.61,1.66.19,2.24.23.95-.15,5.04-.2,5.89-.47.72-.18,1.41-1.23,2-1.27,2.6,1.67,6.53,2.32,9.61,1.68.31-.06.57-.13.75-.42.03-.58-.69-.76-1.11-.99-4.46-3.32-7.61-9.88-9.81-15.12-2-4.27-3.95-8.68-5.91-13.05l-2.58-5.63c-.32-.47-.54-1.1-.75-1.65,1.8-2.09.2-4.19-1.69-5.42,2.67.76,5.4,1.75,7.72,3.31,1.55-.03,1.4-1.82.98-2.87,3.15,1.4,6.29,3.53,9.87,2.38,1.59-.48,2.97-1.51,3.76-2.99.29-.54.67-1.48-.08-1.76-3.21,2.02-7.63,1.06-10.7-.82,0,0-1.86-.78-4.33-1.52-1.8-.48-3.6-1-5.41-1.4-1.86-.41-3.78-.41-5.65-.68-6.39-13.63-14.2-31.28-20.23-45.12-.41-1.31-.32-2.86.3-4.1.25-.44,1.06-1.16,1-1.67-1.12-1.49-3.45-.41-4.83.14-1.33-.53-3.84-1.67-4.85-.09.06.58.72,1.12,1.02,1.62,1.36,2.55-.11,5.44-1.25,7.78-5.53,12.04-12.99,29.57-18.69,41.43-1.98.27-4.01.29-5.97.74-1.03.24-2.05.51-3.08.79-2.26.6-6,2.06-6,2.06-2.79,1.67-7.58,2.98-10.41.88-.26-.01-.4.02-.64.12-.3,2.19,2.15,3.98,4.03,4.57,3.58,1.15,6.72-.98,9.87-2.38-.44,1-.52,3.12,1.11,2.8,2.27-1.54,4.98-2.48,7.6-3.23-1.85,1.22-3.46,3.26-1.76,5.34-.24.57-.47,1.27-.81,1.81l-.43.95c-.71,1.57-1.38,3.11-2.12,4.72l-.02.04h0c-2.95,6.45-6.03,13.15-8.88,19.44-1.6,2.93-3.63,5.69-6.02,8.03-.54.72-1.41.54-1.75,1.08-.55,1.29,2.76.99,3.47,1.06,2.72-.03,4.75-.53,6.98-2.08,1.25,1.89,3.12,1.61,5.11,1.8,1.54.06,3.24.59,4.73.16.02-.52-1.1-1.6-1.36-2.21-1.12-2.89-.08-6.16,1.01-8.9,1.12-3.05,6.41-17.56,7.63-20.9.93-.04,1.89,0,2.75-.39,2.61-1.35,1.15-3.69-.91-4.64.73-2.02,1.37-4.14,2.27-6.09l.51-.31c4.06.36,8.81,1.88,11.97,4.52.23.71.47,1.42.52,2.16.13,6.7.12,21.19.19,28.08.04,4.14.07,8.29.07,12.43.21,4.26.26,8.72-1.91,12.56-.45.89-.99,1.71-1.62,2.48-.34.43-1.06.84-.91,1.46,2.86,1.16,6.51.56,8.7-1.67,2.22,2.21,5.8,2.83,8.69,1.67.03-.28.01-.4-.17-.62-2.03-2.05-3.29-4.82-3.94-7.61-.95-7.45-.07-15.34-.24-22.88.57-.35,1.06-.62,1.71-.78,2.85,1.3,3.73,4.42,4.85,7.1,3.94,8.06,4.89,18.56,14.08,22.6,18.64,7.67,36.02-23.94,40.28-38.42,4.11-14.18,3.99-29.07-1.38-42.89ZM135.77,65.31c-4.75-3.09-10.46-4.1-15.92-5.35,5.01-13.81,10.85-29.65,15.91-43.43h0c4.88,13.33,11.03,30.11,15.91,43.44-2.08.48-4.12,1.12-6.24,1.45-3.36.84-6.85,1.79-9.66,3.89Z"/>
      <g>
        <g>
          <path class="cls-1" d="M23.27,163.58c.68,0,1.38-.28,2.09-.85.72-.57,1.3-1.2,1.75-1.92l-3.22-4.63h-1.24c-.3,1.24-1.6,1.86-3.9,1.86H3.84c-.68,0-1.38.28-2.09.85-.72.57-1.3,1.2-1.75,1.92l3.22,4.63h1.24c.3-1.24,1.6-1.86,3.9-1.86h3.56l-1.75,1.69v29.93c0,1.92-.34,3.35-1.02,4.29-.75.98-1.54,1.47-2.37,1.47l.9,1.81,11.58-4.86v-1.75c-.94,0-1.56-.3-1.86-.9s-.45-1.6-.45-2.99v-28.68h6.32Z"/>
          <path class="cls-1" d="M45.41,164.09c0-1.24-.65-2.63-1.95-4.18s-2.27-2.32-2.91-2.32-3.11.8-7.4,2.4c-4.29,1.6-6.44,2.53-6.44,2.8v32.41c0,1.92-.34,3.35-1.02,4.29-.75.98-1.54,1.47-2.37,1.47l.9,1.81,11.58-4.86v-1.75c-.94,0-1.56-.3-1.86-.9s-.45-1.6-.45-2.99v-10.62h5.08v15.47c0,.68.36,1.4,1.07,2.17s1.49,1.33,2.32,1.67l6.16-3.44v-1.24c-1.81-.38-2.71-1.6-2.71-3.67v-10.95l2.77-1.41v-1.35h-2.77v-14.8h0ZM38.58,178.88h-1.75l-3.33,1.47v-16.66c.72-.57,1.45-.85,2.2-.85,1.92,0,2.88,1.39,2.88,4.18v11.86Z"/>
          <path class="cls-1" d="M89.45,156.18h-1.24c-.3,1.24-1.6,1.86-3.9,1.86h-14.18l-1.29-1.86h-1.24c-.3,1.24-1.6,1.86-3.9,1.86h-14.91c-.68,0-1.38.28-2.09.85-.72.57-1.3,1.2-1.75,1.92l3.22,4.63h1.24c.3-1.24,1.6-1.86,3.9-1.86h3.56l-1.75,1.69v29.93c0,1.92-.34,3.35-1.02,4.29-.75.98-1.54,1.47-2.37,1.47l.9,1.81,11.58-4.86v-1.75c-.94,0-1.56-.3-1.86-.9s-.45-1.6-.45-2.99v-28.68h5.59l1.29,1.86h1.24c.3-1.24,1.6-1.86,3.9-1.86h3.56l-1.75,1.69v29.93c0,1.92-.34,3.35-1.02,4.29-.75.98-1.54,1.47-2.37,1.47l.9,1.81,11.58-4.86v-1.75c-.94,0-1.56-.3-1.86-.9s-.45-1.6-.45-2.99v-28.68h6.32c.68,0,1.38-.28,2.09-.85.72-.57,1.3-1.2,1.75-1.92l-3.22-4.63v-.02Z"/>
          <path class="cls-1" d="M106.1,157.48c-.64,0-3.11.8-7.4,2.4-4.29,1.6-6.44,2.53-6.44,2.8v30.04c0,2.26.59,4.2,1.78,5.82,1.19,1.62,2.24,2.43,3.16,2.43s3.44-.8,7.56-2.4,6.18-2.55,6.18-2.85v-31.73c0-1.24-.65-2.63-1.95-4.18-1.3-1.54-2.27-2.31-2.91-2.31l.02-.02ZM104.13,194.86c-.75.6-1.49.9-2.2.9-1.92,0-2.88-1.39-2.88-4.18v-28.01c.72-.57,1.45-.85,2.2-.85,1.92,0,2.88,1.39,2.88,4.18v27.95h0Z"/>
          <path class="cls-1" d="M130.44,157.48c-.64,0-3.11.8-7.4,2.4-4.29,1.6-6.44,2.53-6.44,2.8v30.04c0,2.26.59,4.2,1.78,5.82,1.19,1.62,2.24,2.43,3.16,2.43s3.44-.8,7.56-2.4,6.18-2.55,6.18-2.85v-31.73c0-1.24-.65-2.63-1.95-4.18-1.3-1.54-2.27-2.31-2.91-2.31l.02-.02ZM128.47,194.86c-.75.6-1.49.9-2.2.9-1.92,0-2.88-1.39-2.88-4.18v-28.01c.72-.57,1.45-.85,2.2-.85,1.92,0,2.88,1.39,2.88,4.18v27.95h0Z"/>
          <path class="cls-1" d="M164.09,195.93c-1.28,0-2.56-.75-3.84-2.26s-2.34-3.26-3.19-5.25c-.85-1.99-1.53-3.91-2.06-5.73-.53-1.83-.79-3.13-.79-3.93,4.14-1.66,6.18-2.62,6.1-2.88v-10.9c0-1.92.34-3.35,1.02-4.29.75-.98,1.54-1.47,2.37-1.47l-.9-1.81-11.58,4.86v1.75c.94,0,1.56.3,1.86.9.3.6.45,1.6.45,2.99v7.34c0,.68-.6,1.33-1.81,1.95-1.21.62-2.3.93-3.28.93v-16.77c0-.64-.36-1.35-1.07-2.12-.72-.77-1.49-1.33-2.32-1.67l-5.7,3.22v1.24c1.54.3,2.32,1.6,2.32,3.9v29.25c0,1.92-.34,3.35-1.02,4.29-.75.98-1.54,1.47-2.37,1.47l.9,1.81,11.58-4.86v-1.75c-.94,0-1.56-.3-1.86-.9s-.45-1.6-.45-2.99v-11.46l.28-.11c0,2,1.12,5.87,3.36,11.63,2.24,5.76,4.02,8.64,5.34,8.64.94,0,3.16-1.11,6.67-3.33v-1.69h0Z"/>
          <path class="cls-1" d="M172.51,191.53v-26.54c0-1.92.34-3.35,1.02-4.29.75-.98,1.54-1.47,2.37-1.47l-.9-1.81-11.58,4.86v1.75c.94,0,1.56.3,1.86.9.3.6.45,1.6.45,2.99v25.81c0,1.84-.39,3.22-1.19,4.12-.3.34-.67.64-1.1.9s-.8.39-1.1.39l.9,1.81s3.88-1.67,11.52-5.02v-1.58c-.83,0-1.41-.22-1.75-.65s-.51-1.16-.51-2.17h.01Z"/>
          <path class="cls-1" d="M185.72,193.51c-.53-.6-.79-2.41-.79-5.42v-23.09c0-1.92.34-3.35,1.02-4.29.75-.98,1.54-1.47,2.37-1.47l-.9-1.81-11.58,4.86v1.75c.94,0,1.56.3,1.86.9.3.6.45,1.6.45,2.99v24.51c0,1.66.6,3.18,1.81,4.57s2.41,2.4,3.62,3.02c1.21.62,2.15.93,2.85.93s3.55-1.05,8.56-3.16v-1.58c-2.41,0-4.61-.23-6.61-.68-.87-.23-1.75-.9-2.65-2.03h-.01Z"/>
          <path class="cls-1" d="M206.5,193.51c-.53-.6-.79-2.41-.79-5.42v-23.09c0-1.92.34-3.35,1.02-4.29.75-.98,1.54-1.47,2.37-1.47l-.9-1.81-11.58,4.86v1.75c.94,0,1.56.3,1.86.9.3.6.45,1.6.45,2.99v24.51c0,1.66.6,3.18,1.81,4.57,1.21,1.39,2.41,2.4,3.62,3.02,1.21.62,2.15.93,2.85.93s3.55-1.05,8.56-3.16v-1.58c-2.41,0-4.61-.23-6.61-.68-.87-.23-1.75-.9-2.65-2.03h-.01Z"/>
          <path class="cls-1" d="M235.43,163.07c-.4-1.54-.74-2.86-1.04-3.95-.3-1.09-.57-1.64-.79-1.64-.64,0-3.12.8-7.43,2.4-4.31,1.6-6.47,2.53-6.47,2.8v29.7c0,2.11,1.03,4.07,3.08,5.87,2.05,1.81,3.66,2.71,4.83,2.71.57,0,2.15-.52,4.74-1.55,2.6-1.04,3.99-1.55,4.18-1.55v-1.64c-1.7,0-3.28-.07-4.75-.23-1.47-.15-2.82-.75-4.06-1.81-.83-.72-1.24-3.16-1.24-7.34v-5.65h5.14l2.82-1.41v-1.35h-7.96v-14.91c.3-.38.64-.57,1.02-.57.53,0,1.22,1.54,2.09,4.6.87,3.07,1.58,4.6,2.15,4.6.15,0,1.21-.48,3.19-1.44,1.97-.96,3.38-1.63,4.2-2.01v-1.13c-1.2,0-2.02-.37-2.45-1.1-.43-.73-.85-1.87-1.24-3.42v.02Z"/>
          <path class="cls-1" d="M261.16,194.64c-2.33-2.03-4.37-5.97-6.1-11.8,4.1-1.62,6.16-2.58,6.16-2.88v-15.87c0-1.24-.65-2.63-1.95-4.18-1.3-1.55-2.25-2.32-2.85-2.32s-2.97,1.26-7.12,3.78c0-.64-.38-1.36-1.13-2.15s-1.51-1.34-2.26-1.64l-5.7,3.22v1.24c1.54.3,2.32,1.6,2.32,3.9v29.25c0,1.92-.34,3.35-1.02,4.29-.75.98-1.54,1.47-2.37,1.47l.9,1.81,11.58-4.86v-1.75c-.94,0-1.56-.3-1.86-.9s-.45-1.6-.45-2.99v-7.4l.62-.17c.15,1.51,1.18,4.59,3.07,9.26,1.9,4.67,3.47,7,4.71,7,.94,0,3.16-1.11,6.67-3.33v-1.69c-1.09,0-2.16-.43-3.22-1.3h0ZM254.38,179.33c0,.68-.6,1.33-1.81,1.95-1.21.62-2.3.93-3.28.93v-18.35c.79-.56,1.53-.85,2.2-.85,1.92,0,2.88,1.39,2.88,4.18v12.14h0Z"/>
        </g>
        <g>
          <path class="cls-1" d="M39.52,230.87h-6.92v-12.05h1.88v10.34h5.03v1.71Z"/>
          <path class="cls-1" d="M54.01,228.28h-4.29l-1.02,2.58h-2.08l5.24-12.6,5.23,12.6h-2.06l-1.02-2.58ZM53.33,226.6l-1.46-3.67-1.46,3.67h2.92Z"/>
          <path class="cls-1" d="M71.08,228.45c-.34,1.17-1.4,2.09-2.71,2.35-.24.05-.49.06-.73.06-.49,0-.97-.08-1.43-.26-.76-.31-1.43-.81-2-1.54l1.49-1.17c.34.45.75.78,1.18.94.36.15.75.18,1.1.1.62-.11,1.12-.52,1.27-1.01.16-.55-.21-1.04-.55-1.36-.54-.5-1.41-1.36-1.48-1.43l-1.48-1.4c-.45-.44-.76-.93-.92-1.45-.16-.5-.18-1.04-.03-1.53.15-.52.46-.97.89-1.35.41-.34.91-.58,1.44-.68.58-.13,1.2-.08,1.79.13.62.24,1.17.65,1.64,1.22l-1.48,1.19c-.62-.75-1.25-.75-1.59-.68-.42.08-.78.36-.88.7-.06.23-.05.6.46,1.09l2.01,1.93c.29.29.65.63.91.88.52.47.88,1.01,1.06,1.58.18.55.2,1.14.03,1.69Z"/>
          <path class="cls-1" d="M81.08,223.72h4.4v1.71h-4.4v3.73h5.34v1.71h-7.22v-12.05h7.22v1.69h-5.34v3.21Z"/>
          <path class="cls-1" d="M103.25,230.87h-2.13l-3.04-4.08h-1.38v4.08h-1.88v-12.05h3.57c1.59,0,2.52.65,3,1.2.63.7.97,1.67.97,2.79s-.34,2.08-.97,2.78c-.29.32-.75.7-1.4.92l3.25,4.35ZM98.4,225.1c.78,0,1.36-.23,1.74-.65.46-.49.54-1.17.54-1.64s-.08-1.17-.54-1.66c-.37-.42-.96-.63-1.74-.63h-1.69v4.58h1.69Z"/>
          <path class="cls-1" d="M130.88,230.87h-2.13l-3.04-4.08h-1.38v4.08h-1.88v-12.05h3.57c1.59,0,2.52.65,3,1.2.63.7.97,1.67.97,2.79s-.34,2.08-.97,2.78c-.29.32-.75.7-1.4.92l3.25,4.35ZM126.03,225.1c.78,0,1.36-.23,1.74-.65.46-.49.54-1.17.54-1.64s-.08-1.17-.54-1.66c-.37-.42-.96-.63-1.74-.63h-1.69v4.58h1.69Z"/>
          <path class="cls-1" d="M140.42,223.72h4.4v1.71h-4.4v3.73h5.34v1.71h-7.22v-12.05h7.22v1.69h-5.34v3.21Z"/>
          <path class="cls-1" d="M163.59,230.87v-6.4l-3.77,5.62-3.78-5.62v6.4h-1.88v-12.6l5.67,8.44,5.67-8.44v12.6h-1.9Z"/>
          <path class="cls-1" d="M177.48,230.39c-.73-.31-1.36-.75-1.92-1.3s-.99-1.19-1.3-1.92-.47-1.53-.47-2.34.16-1.61.47-2.35c.31-.71.75-1.35,1.3-1.92.55-.55,1.19-.97,1.92-1.28s1.53-.47,2.34-.47,1.61.16,2.35.47c.71.31,1.35.73,1.92,1.28.55.57.97,1.2,1.28,1.92.31.75.47,1.54.47,2.35s-.16,1.61-.47,2.34c-.31.73-.73,1.36-1.28,1.92-.57.55-1.2.99-1.92,1.3-.75.31-1.54.47-2.35.47s-1.61-.16-2.34-.47ZM176.9,221.92c-.78.78-1.22,1.82-1.22,2.92s.44,2.14,1.22,2.92,1.82,1.22,2.92,1.22,2.14-.44,2.92-1.22,1.22-1.82,1.22-2.92-.44-2.14-1.22-2.92-1.82-1.22-2.92-1.22-2.14.44-2.92,1.22Z"/>
          <path class="cls-1" d="M197.36,226.76l3.17-7.94h2.05l-5.16,12.58-5.52-12.58h2.08l3.39,7.94Z"/>
          <path class="cls-1" d="M214.06,228.28h-4.29l-1.02,2.58h-2.08l5.24-12.6,5.23,12.6h-2.06l-1.02-2.58ZM213.38,226.6l-1.46-3.67-1.46,3.67h2.92Z"/>
          <path class="cls-1" d="M231.78,230.87h-6.92v-12.05h1.88v10.34h5.03v1.71Z"/>
        </g>
      </g>
    </g>
  </g>
</svg>